<svg width="775" height="312" viewBox="0 0 775 312" fill="none" xmlns="http://www.w3.org/2000/svg">
<rect x="297.5" y="87.5" width="215" height="146" fill="#D9D9D9" stroke="black" stroke-width="3"/>
<rect x="119.5" y="114.5" width="175" height="119" fill="#D9D9D9" stroke="black" stroke-width="3"/>
<rect x="515.5" y="1.5" width="147" height="232" fill="#D9D9D9" stroke="black" stroke-width="3"/>
<rect x="297.5" y="87.5" width="215" height="146" fill="#D9D9D9" stroke="black" stroke-width="3"/>
<path d="M179.661 169.273H182.273L184.489 174.676H184.591L186.807 169.273H189.419V178H187.365V172.639H187.293L185.196 177.945H183.884L181.787 172.609H181.714V178H179.661V169.273ZM193.79 178.124C193.103 178.124 192.512 177.983 192.017 177.702C191.526 177.418 191.147 177.023 190.88 176.517C190.615 176.009 190.483 175.419 190.483 174.749C190.483 174.075 190.615 173.486 190.88 172.98C191.147 172.472 191.526 172.077 192.017 171.795C192.512 171.511 193.103 171.369 193.79 171.369C194.478 171.369 195.067 171.511 195.559 171.795C196.053 172.077 196.432 172.472 196.696 172.98C196.963 173.486 197.097 174.075 197.097 174.749C197.097 175.419 196.963 176.009 196.696 176.517C196.432 177.023 196.053 177.418 195.559 177.702C195.067 177.983 194.478 178.124 193.79 178.124ZM193.803 176.551C194.053 176.551 194.265 176.474 194.438 176.321C194.611 176.168 194.743 175.955 194.834 175.682C194.928 175.409 194.975 175.094 194.975 174.736C194.975 174.372 194.928 174.054 194.834 173.781C194.743 173.509 194.611 173.295 194.438 173.142C194.265 172.989 194.053 172.912 193.803 172.912C193.544 172.912 193.326 172.989 193.147 173.142C192.971 173.295 192.836 173.509 192.742 173.781C192.651 174.054 192.605 174.372 192.605 174.736C192.605 175.094 192.651 175.409 192.742 175.682C192.836 175.955 192.971 176.168 193.147 176.321C193.326 176.474 193.544 176.551 193.803 176.551ZM200.248 174.267V178H198.164V171.455H200.146V172.656H200.218C200.363 172.256 200.61 171.942 200.96 171.714C201.309 171.484 201.725 171.369 202.208 171.369C202.669 171.369 203.068 171.473 203.406 171.68C203.747 171.885 204.011 172.172 204.199 172.541C204.389 172.908 204.483 173.337 204.48 173.828V178H202.396V174.237C202.399 173.874 202.306 173.589 202.119 173.385C201.934 173.18 201.677 173.078 201.348 173.078C201.129 173.078 200.936 173.126 200.768 173.223C200.603 173.317 200.475 173.452 200.385 173.628C200.297 173.804 200.251 174.017 200.248 174.267ZM205.77 178V171.455H207.854V178H205.77ZM206.814 170.692C206.521 170.692 206.27 170.595 206.06 170.402C205.849 170.206 205.744 169.97 205.744 169.695C205.744 169.422 205.849 169.189 206.06 168.996C206.27 168.8 206.521 168.702 206.814 168.702C207.109 168.702 207.361 168.8 207.568 168.996C207.778 169.189 207.884 169.422 207.884 169.695C207.884 169.97 207.778 170.206 207.568 170.402C207.361 170.595 207.109 170.692 206.814 170.692ZM212.875 171.455V172.989H208.745V171.455H212.875ZM209.61 169.886H211.694V175.942C211.694 176.07 211.714 176.173 211.754 176.253C211.797 176.33 211.858 176.385 211.937 176.419C212.017 176.45 212.112 176.466 212.223 176.466C212.302 176.466 212.386 176.459 212.474 176.445C212.565 176.428 212.633 176.413 212.679 176.402L212.994 177.906C212.895 177.935 212.754 177.97 212.572 178.013C212.393 178.055 212.179 178.082 211.929 178.094C211.44 178.116 211.021 178.06 210.672 177.923C210.325 177.784 210.059 177.568 209.875 177.276C209.693 176.983 209.605 176.615 209.61 176.172V169.886ZM216.923 178.124C216.235 178.124 215.645 177.983 215.15 177.702C214.659 177.418 214.279 177.023 214.012 176.517C213.748 176.009 213.616 175.419 213.616 174.749C213.616 174.075 213.748 173.486 214.012 172.98C214.279 172.472 214.659 172.077 215.15 171.795C215.645 171.511 216.235 171.369 216.923 171.369C217.61 171.369 218.2 171.511 218.691 171.795C219.186 172.077 219.565 172.472 219.829 172.98C220.096 173.486 220.23 174.075 220.23 174.749C220.23 175.419 220.096 176.009 219.829 176.517C219.565 177.023 219.186 177.418 218.691 177.702C218.2 177.983 217.61 178.124 216.923 178.124ZM216.936 176.551C217.186 176.551 217.397 176.474 217.571 176.321C217.744 176.168 217.876 175.955 217.967 175.682C218.061 175.409 218.108 175.094 218.108 174.736C218.108 174.372 218.061 174.054 217.967 173.781C217.876 173.509 217.744 173.295 217.571 173.142C217.397 172.989 217.186 172.912 216.936 172.912C216.677 172.912 216.458 172.989 216.279 173.142C216.103 173.295 215.968 173.509 215.875 173.781C215.784 174.054 215.738 174.372 215.738 174.736C215.738 175.094 215.784 175.409 215.875 175.682C215.968 175.955 216.103 176.168 216.279 176.321C216.458 176.474 216.677 176.551 216.936 176.551ZM221.297 178V171.455H223.321V172.648H223.39C223.509 172.216 223.703 171.895 223.973 171.685C224.243 171.472 224.557 171.365 224.915 171.365C225.012 171.365 225.111 171.372 225.213 171.386C225.316 171.398 225.411 171.416 225.499 171.442V173.253C225.4 173.219 225.269 173.192 225.107 173.172C224.948 173.152 224.806 173.142 224.681 173.142C224.434 173.142 224.211 173.197 224.012 173.308C223.816 173.416 223.661 173.568 223.547 173.764C223.436 173.957 223.381 174.185 223.381 174.446V178H221.297ZM232.945 169.273V178H230.839V171.241H230.788L228.837 172.435V170.611L230.989 169.273H232.945Z" fill="black"/>
<path d="M377.661 152.273H380.273L382.489 157.676H382.591L384.807 152.273H387.419V161H385.365V155.639H385.293L383.196 160.945H381.884L379.787 155.609H379.714V161H377.661V152.273ZM391.79 161.124C391.103 161.124 390.512 160.983 390.017 160.702C389.526 160.418 389.147 160.023 388.88 159.517C388.615 159.009 388.483 158.419 388.483 157.749C388.483 157.075 388.615 156.486 388.88 155.98C389.147 155.472 389.526 155.077 390.017 154.795C390.512 154.511 391.103 154.369 391.79 154.369C392.478 154.369 393.067 154.511 393.559 154.795C394.053 155.077 394.432 155.472 394.696 155.98C394.963 156.486 395.097 157.075 395.097 157.749C395.097 158.419 394.963 159.009 394.696 159.517C394.432 160.023 394.053 160.418 393.559 160.702C393.067 160.983 392.478 161.124 391.79 161.124ZM391.803 159.551C392.053 159.551 392.265 159.474 392.438 159.321C392.611 159.168 392.743 158.955 392.834 158.682C392.928 158.409 392.975 158.094 392.975 157.736C392.975 157.372 392.928 157.054 392.834 156.781C392.743 156.509 392.611 156.295 392.438 156.142C392.265 155.989 392.053 155.912 391.803 155.912C391.544 155.912 391.326 155.989 391.147 156.142C390.971 156.295 390.836 156.509 390.742 156.781C390.651 157.054 390.605 157.372 390.605 157.736C390.605 158.094 390.651 158.409 390.742 158.682C390.836 158.955 390.971 159.168 391.147 159.321C391.326 159.474 391.544 159.551 391.803 159.551ZM398.248 157.267V161H396.164V154.455H398.146V155.656H398.218C398.363 155.256 398.61 154.942 398.96 154.714C399.309 154.484 399.725 154.369 400.208 154.369C400.669 154.369 401.068 154.473 401.406 154.68C401.747 154.885 402.011 155.172 402.199 155.541C402.389 155.908 402.483 156.337 402.48 156.828V161H400.396V157.237C400.399 156.874 400.306 156.589 400.119 156.385C399.934 156.18 399.677 156.078 399.348 156.078C399.129 156.078 398.936 156.126 398.768 156.223C398.603 156.317 398.475 156.452 398.385 156.628C398.297 156.804 398.251 157.017 398.248 157.267ZM403.77 161V154.455H405.854V161H403.77ZM404.814 153.692C404.521 153.692 404.27 153.595 404.06 153.402C403.849 153.206 403.744 152.97 403.744 152.695C403.744 152.422 403.849 152.189 404.06 151.996C404.27 151.8 404.521 151.702 404.814 151.702C405.109 151.702 405.361 151.8 405.568 151.996C405.778 152.189 405.884 152.422 405.884 152.695C405.884 152.97 405.778 153.206 405.568 153.402C405.361 153.595 405.109 153.692 404.814 153.692ZM410.875 154.455V155.989H406.745V154.455H410.875ZM407.61 152.886H409.694V158.942C409.694 159.07 409.714 159.173 409.754 159.253C409.797 159.33 409.858 159.385 409.937 159.419C410.017 159.45 410.112 159.466 410.223 159.466C410.302 159.466 410.386 159.459 410.474 159.445C410.565 159.428 410.633 159.413 410.679 159.402L410.994 160.906C410.895 160.935 410.754 160.97 410.572 161.013C410.393 161.055 410.179 161.082 409.929 161.094C409.44 161.116 409.021 161.06 408.672 160.923C408.325 160.784 408.059 160.568 407.875 160.276C407.693 159.983 407.605 159.615 407.61 159.172V152.886ZM414.923 161.124C414.235 161.124 413.645 160.983 413.15 160.702C412.659 160.418 412.279 160.023 412.012 159.517C411.748 159.009 411.616 158.419 411.616 157.749C411.616 157.075 411.748 156.486 412.012 155.98C412.279 155.472 412.659 155.077 413.15 154.795C413.645 154.511 414.235 154.369 414.923 154.369C415.61 154.369 416.2 154.511 416.691 154.795C417.186 155.077 417.565 155.472 417.829 155.98C418.096 156.486 418.23 157.075 418.23 157.749C418.23 158.419 418.096 159.009 417.829 159.517C417.565 160.023 417.186 160.418 416.691 160.702C416.2 160.983 415.61 161.124 414.923 161.124ZM414.936 159.551C415.186 159.551 415.397 159.474 415.571 159.321C415.744 159.168 415.876 158.955 415.967 158.682C416.061 158.409 416.108 158.094 416.108 157.736C416.108 157.372 416.061 157.054 415.967 156.781C415.876 156.509 415.744 156.295 415.571 156.142C415.397 155.989 415.186 155.912 414.936 155.912C414.677 155.912 414.458 155.989 414.279 156.142C414.103 156.295 413.968 156.509 413.875 156.781C413.784 157.054 413.738 157.372 413.738 157.736C413.738 158.094 413.784 158.409 413.875 158.682C413.968 158.955 414.103 159.168 414.279 159.321C414.458 159.474 414.677 159.551 414.936 159.551ZM419.297 161V154.455H421.321V155.648H421.39C421.509 155.216 421.703 154.895 421.973 154.685C422.243 154.472 422.557 154.365 422.915 154.365C423.012 154.365 423.111 154.372 423.213 154.386C423.316 154.398 423.411 154.416 423.499 154.442V156.253C423.4 156.219 423.269 156.192 423.107 156.172C422.948 156.152 422.806 156.142 422.681 156.142C422.434 156.142 422.211 156.197 422.012 156.308C421.816 156.416 421.661 156.568 421.547 156.764C421.436 156.957 421.381 157.185 421.381 157.446V161H419.297ZM426.909 161V159.483L430.092 156.696C430.331 156.48 430.534 156.283 430.702 156.104C430.869 155.922 430.997 155.74 431.085 155.558C431.173 155.374 431.217 155.173 431.217 154.957C431.217 154.716 431.165 154.51 431.06 154.339C430.955 154.166 430.81 154.033 430.625 153.939C430.44 153.845 430.229 153.798 429.99 153.798C429.749 153.798 429.537 153.848 429.355 153.947C429.173 154.044 429.031 154.185 428.929 154.369C428.83 154.554 428.78 154.778 428.78 155.043H426.781C426.781 154.449 426.915 153.936 427.182 153.504C427.449 153.072 427.824 152.74 428.307 152.507C428.793 152.271 429.357 152.153 429.999 152.153C430.661 152.153 431.236 152.264 431.724 152.486C432.213 152.707 432.591 153.017 432.858 153.415C433.128 153.81 433.263 154.268 433.263 154.791C433.263 155.124 433.196 155.453 433.062 155.78C432.929 156.107 432.689 156.467 432.342 156.862C431.999 157.257 431.51 157.73 430.876 158.281L429.832 159.244V159.3H433.369V161H426.909Z" fill="black"/>
<path d="M562.661 113.273H565.273L567.489 118.676H567.591L569.807 113.273H572.419V122H570.365V116.639H570.293L568.196 121.945H566.884L564.787 116.609H564.714V122H562.661V113.273ZM576.79 122.124C576.103 122.124 575.512 121.983 575.017 121.702C574.526 121.418 574.147 121.023 573.88 120.517C573.615 120.009 573.483 119.419 573.483 118.749C573.483 118.075 573.615 117.486 573.88 116.98C574.147 116.472 574.526 116.077 575.017 115.795C575.512 115.511 576.103 115.369 576.79 115.369C577.478 115.369 578.067 115.511 578.559 115.795C579.053 116.077 579.432 116.472 579.696 116.98C579.963 117.486 580.097 118.075 580.097 118.749C580.097 119.419 579.963 120.009 579.696 120.517C579.432 121.023 579.053 121.418 578.559 121.702C578.067 121.983 577.478 122.124 576.79 122.124ZM576.803 120.551C577.053 120.551 577.265 120.474 577.438 120.321C577.611 120.168 577.743 119.955 577.834 119.682C577.928 119.409 577.975 119.094 577.975 118.736C577.975 118.372 577.928 118.054 577.834 117.781C577.743 117.509 577.611 117.295 577.438 117.142C577.265 116.989 577.053 116.912 576.803 116.912C576.544 116.912 576.326 116.989 576.147 117.142C575.971 117.295 575.836 117.509 575.742 117.781C575.651 118.054 575.605 118.372 575.605 118.736C575.605 119.094 575.651 119.409 575.742 119.682C575.836 119.955 575.971 120.168 576.147 120.321C576.326 120.474 576.544 120.551 576.803 120.551ZM583.248 118.267V122H581.164V115.455H583.146V116.656H583.218C583.363 116.256 583.61 115.942 583.96 115.714C584.309 115.484 584.725 115.369 585.208 115.369C585.669 115.369 586.068 115.473 586.406 115.68C586.747 115.885 587.011 116.172 587.199 116.541C587.389 116.908 587.483 117.337 587.48 117.828V122H585.396V118.237C585.399 117.874 585.306 117.589 585.119 117.385C584.934 117.18 584.677 117.078 584.348 117.078C584.129 117.078 583.936 117.126 583.768 117.223C583.603 117.317 583.475 117.452 583.385 117.628C583.297 117.804 583.251 118.017 583.248 118.267ZM588.77 122V115.455H590.854V122H588.77ZM589.814 114.692C589.521 114.692 589.27 114.595 589.06 114.402C588.849 114.206 588.744 113.97 588.744 113.695C588.744 113.422 588.849 113.189 589.06 112.996C589.27 112.8 589.521 112.702 589.814 112.702C590.109 112.702 590.361 112.8 590.568 112.996C590.778 113.189 590.884 113.422 590.884 113.695C590.884 113.97 590.778 114.206 590.568 114.402C590.361 114.595 590.109 114.692 589.814 114.692ZM595.875 115.455V116.989H591.745V115.455H595.875ZM592.61 113.886H594.694V119.942C594.694 120.07 594.714 120.173 594.754 120.253C594.797 120.33 594.858 120.385 594.937 120.419C595.017 120.45 595.112 120.466 595.223 120.466C595.302 120.466 595.386 120.459 595.474 120.445C595.565 120.428 595.633 120.413 595.679 120.402L595.994 121.906C595.895 121.935 595.754 121.97 595.572 122.013C595.393 122.055 595.179 122.082 594.929 122.094C594.44 122.116 594.021 122.06 593.672 121.923C593.325 121.784 593.059 121.568 592.875 121.276C592.693 120.983 592.605 120.615 592.61 120.172V113.886ZM599.923 122.124C599.235 122.124 598.645 121.983 598.15 121.702C597.659 121.418 597.279 121.023 597.012 120.517C596.748 120.009 596.616 119.419 596.616 118.749C596.616 118.075 596.748 117.486 597.012 116.98C597.279 116.472 597.659 116.077 598.15 115.795C598.645 115.511 599.235 115.369 599.923 115.369C600.61 115.369 601.2 115.511 601.691 115.795C602.186 116.077 602.565 116.472 602.829 116.98C603.096 117.486 603.23 118.075 603.23 118.749C603.23 119.419 603.096 120.009 602.829 120.517C602.565 121.023 602.186 121.418 601.691 121.702C601.2 121.983 600.61 122.124 599.923 122.124ZM599.936 120.551C600.186 120.551 600.397 120.474 600.571 120.321C600.744 120.168 600.876 119.955 600.967 119.682C601.061 119.409 601.108 119.094 601.108 118.736C601.108 118.372 601.061 118.054 600.967 117.781C600.876 117.509 600.744 117.295 600.571 117.142C600.397 116.989 600.186 116.912 599.936 116.912C599.677 116.912 599.458 116.989 599.279 117.142C599.103 117.295 598.968 117.509 598.875 117.781C598.784 118.054 598.738 118.372 598.738 118.736C598.738 119.094 598.784 119.409 598.875 119.682C598.968 119.955 599.103 120.168 599.279 120.321C599.458 120.474 599.677 120.551 599.936 120.551ZM604.297 122V115.455H606.321V116.648H606.39C606.509 116.216 606.703 115.895 606.973 115.685C607.243 115.472 607.557 115.365 607.915 115.365C608.012 115.365 608.111 115.372 608.213 115.386C608.316 115.398 608.411 115.416 608.499 115.442V117.253C608.4 117.219 608.269 117.192 608.107 117.172C607.948 117.152 607.806 117.142 607.681 117.142C607.434 117.142 607.211 117.197 607.012 117.308C606.816 117.416 606.661 117.568 606.547 117.764C606.436 117.957 606.381 118.185 606.381 118.446V122H604.297ZM615.229 122.119C614.564 122.119 613.974 122.006 613.46 121.778C612.949 121.548 612.545 121.232 612.25 120.828C611.955 120.425 611.804 119.96 611.798 119.435H613.92C613.929 119.625 613.99 119.794 614.104 119.942C614.217 120.087 614.372 120.2 614.568 120.283C614.764 120.365 614.987 120.406 615.237 120.406C615.487 120.406 615.707 120.362 615.898 120.274C616.091 120.183 616.241 120.06 616.349 119.903C616.457 119.744 616.51 119.562 616.507 119.358C616.51 119.153 616.452 118.972 616.332 118.812C616.213 118.653 616.044 118.53 615.825 118.442C615.609 118.354 615.354 118.31 615.058 118.31H614.21V116.81H615.058C615.317 116.81 615.544 116.767 615.74 116.682C615.939 116.597 616.094 116.477 616.205 116.324C616.315 116.168 616.369 115.989 616.366 115.787C616.369 115.591 616.322 115.419 616.226 115.271C616.132 115.121 616 115.004 615.83 114.922C615.662 114.839 615.467 114.798 615.246 114.798C615.013 114.798 614.801 114.839 614.611 114.922C614.423 115.004 614.274 115.121 614.163 115.271C614.053 115.422 613.994 115.597 613.989 115.795H611.973C611.979 115.276 612.124 114.818 612.408 114.423C612.692 114.026 613.078 113.714 613.567 113.49C614.058 113.266 614.618 113.153 615.246 113.153C615.871 113.153 616.42 113.263 616.895 113.482C617.369 113.7 617.739 113.999 618.003 114.376C618.267 114.751 618.399 115.176 618.399 115.651C618.402 116.142 618.241 116.547 617.918 116.865C617.597 117.183 617.183 117.379 616.678 117.453V117.521C617.354 117.601 617.864 117.82 618.207 118.178C618.554 118.536 618.726 118.983 618.723 119.52C618.723 120.026 618.574 120.474 618.276 120.866C617.98 121.256 617.568 121.562 617.04 121.787C616.514 122.009 615.911 122.119 615.229 122.119Z" fill="black"/>
<rect x="640.5" y="218.5" width="133" height="92" fill="url(#paint0_linear_54_84)" stroke="#1AAC20" stroke-width="3"/>
<rect x="489.5" y="218.5" width="133" height="92" fill="url(#paint1_linear_54_84)" stroke="#FF0000" stroke-width="3"/>
<rect x="1.5" y="218.5" width="133" height="92" fill="url(#paint2_linear_54_84)" stroke="#1AAC20" stroke-width="3"/>
<rect x="180.5" y="218.5" width="133" height="92" fill="url(#paint3_linear_54_84)" stroke="#FF0000" stroke-width="3"/>
<path d="M26.3878 263.124C26.3395 262.945 26.2685 262.787 26.1747 262.651C26.081 262.511 25.9659 262.393 25.8295 262.297C25.6932 262.2 25.5369 262.128 25.3608 262.08C25.1847 262.028 24.9915 262.003 24.7812 262.003C24.358 262.003 23.9915 262.105 23.6818 262.31C23.375 262.514 23.1378 262.812 22.9702 263.205C22.8026 263.594 22.7188 264.067 22.7188 264.624C22.7188 265.183 22.7997 265.661 22.9616 266.055C23.1236 266.45 23.358 266.751 23.6648 266.959C23.9716 267.166 24.3438 267.27 24.7812 267.27C25.1676 267.27 25.4943 267.207 25.7614 267.082C26.0313 266.955 26.2358 266.774 26.375 266.541C26.5142 266.308 26.5838 266.034 26.5838 265.719L26.9759 265.766H24.8537V264.227H28.6165V265.382C28.6165 266.163 28.4503 266.832 28.1179 267.389C27.7884 267.946 27.3338 268.374 26.7543 268.672C26.1776 268.97 25.5142 269.119 24.7642 269.119C23.9318 269.119 23.2003 268.939 22.5696 268.578C21.9389 268.217 21.4474 267.703 21.0952 267.036C20.7429 266.365 20.5668 265.57 20.5668 264.649C20.5668 263.933 20.6733 263.298 20.8864 262.744C21.0994 262.187 21.3963 261.716 21.777 261.33C22.1605 260.943 22.6037 260.651 23.1065 260.452C23.6122 260.253 24.1563 260.153 24.7386 260.153C25.2443 260.153 25.7145 260.226 26.1491 260.371C26.5866 260.516 26.973 260.72 27.3082 260.984C27.6463 261.249 27.9205 261.562 28.1307 261.926C28.3409 262.29 28.4716 262.689 28.5227 263.124H26.3878ZM32.9151 269.124C32.2276 269.124 31.6367 268.983 31.1424 268.702C30.6509 268.418 30.2717 268.023 30.0046 267.517C29.7404 267.009 29.6083 266.419 29.6083 265.749C29.6083 265.075 29.7404 264.486 30.0046 263.98C30.2717 263.472 30.6509 263.077 31.1424 262.795C31.6367 262.511 32.2276 262.369 32.9151 262.369C33.6026 262.369 34.1921 262.511 34.6836 262.795C35.1779 263.077 35.5572 263.472 35.8214 263.98C36.0884 264.486 36.2219 265.075 36.2219 265.749C36.2219 266.419 36.0884 267.009 35.8214 267.517C35.5572 268.023 35.1779 268.418 34.6836 268.702C34.1921 268.983 33.6026 269.124 32.9151 269.124ZM32.9279 267.551C33.1779 267.551 33.3896 267.474 33.5629 267.321C33.7362 267.168 33.8683 266.955 33.9592 266.682C34.0529 266.409 34.0998 266.094 34.0998 265.736C34.0998 265.372 34.0529 265.054 33.9592 264.781C33.8683 264.509 33.7362 264.295 33.5629 264.142C33.3896 263.989 33.1779 263.912 32.9279 263.912C32.6694 263.912 32.4506 263.989 32.2717 264.142C32.0955 264.295 31.9606 264.509 31.8668 264.781C31.7759 265.054 31.7305 265.372 31.7305 265.736C31.7305 266.094 31.7759 266.409 31.8668 266.682C31.9606 266.955 32.0955 267.168 32.2717 267.321C32.4506 267.474 32.6694 267.551 32.9279 267.551ZM40.3448 269.124C39.6573 269.124 39.0664 268.983 38.5721 268.702C38.0806 268.418 37.7013 268.023 37.4343 267.517C37.1701 267.009 37.038 266.419 37.038 265.749C37.038 265.075 37.1701 264.486 37.4343 263.98C37.7013 263.472 38.0806 263.077 38.5721 262.795C39.0664 262.511 39.6573 262.369 40.3448 262.369C41.0323 262.369 41.6218 262.511 42.1133 262.795C42.6076 263.077 42.9869 263.472 43.2511 263.98C43.5181 264.486 43.6516 265.075 43.6516 265.749C43.6516 266.419 43.5181 267.009 43.2511 267.517C42.9869 268.023 42.6076 268.418 42.1133 268.702C41.6218 268.983 41.0323 269.124 40.3448 269.124ZM40.3576 267.551C40.6076 267.551 40.8192 267.474 40.9925 267.321C41.1658 267.168 41.2979 266.955 41.3888 266.682C41.4826 266.409 41.5295 266.094 41.5295 265.736C41.5295 265.372 41.4826 265.054 41.3888 264.781C41.2979 264.509 41.1658 264.295 40.9925 264.142C40.8192 263.989 40.6076 263.912 40.3576 263.912C40.0991 263.912 39.8803 263.989 39.7013 264.142C39.5252 264.295 39.3903 264.509 39.2965 264.781C39.2056 265.054 39.1602 265.372 39.1602 265.736C39.1602 266.094 39.2056 266.409 39.2965 266.682C39.3903 266.955 39.5252 267.168 39.7013 267.321C39.8803 267.474 40.0991 267.551 40.3576 267.551ZM47.1097 269.094C46.6268 269.094 46.1879 268.969 45.793 268.719C45.3981 268.469 45.0827 268.094 44.8469 267.594C44.6112 267.094 44.4933 266.473 44.4933 265.732C44.4933 264.962 44.6154 264.328 44.8597 263.831C45.104 263.334 45.4237 262.966 45.8185 262.727C46.2163 262.489 46.6438 262.369 47.1012 262.369C47.445 262.369 47.739 262.429 47.9833 262.548C48.2276 262.665 48.4293 262.815 48.5884 263C48.7475 263.185 48.8683 263.376 48.9506 263.575H48.9933V260.273H51.0771V269H49.0146V267.939H48.9506C48.8626 268.141 48.7376 268.33 48.5756 268.506C48.4137 268.682 48.2106 268.824 47.9663 268.932C47.7248 269.04 47.4393 269.094 47.1097 269.094ZM47.8342 267.47C48.087 267.47 48.3029 267.399 48.4819 267.257C48.6609 267.112 48.7987 266.909 48.8952 266.648C48.9918 266.386 49.0401 266.08 49.0401 265.727C49.0401 265.369 48.9918 265.061 48.8952 264.803C48.8015 264.544 48.6637 264.345 48.4819 264.206C48.3029 264.067 48.087 263.997 47.8342 263.997C47.5756 263.997 47.3569 264.068 47.1779 264.21C46.9989 264.352 46.8626 264.553 46.7688 264.811C46.6779 265.07 46.6325 265.375 46.6325 265.727C46.6325 266.08 46.6793 266.386 46.7731 266.648C46.8668 266.909 47.0018 267.112 47.1779 267.257C47.3569 267.399 47.5756 267.47 47.8342 267.47ZM57.0568 260.273V269H54.973V260.273H57.0568ZM61.4428 269.124C60.7582 269.124 60.1673 268.989 59.6701 268.719C59.1758 268.446 58.7951 268.058 58.5281 267.555C58.2638 267.05 58.1317 266.449 58.1317 265.753C58.1317 265.077 58.2653 264.486 58.5323 263.98C58.7994 263.472 59.1758 263.077 59.6616 262.795C60.1474 262.511 60.7198 262.369 61.3789 262.369C61.8448 262.369 62.271 262.442 62.6573 262.587C63.0437 262.732 63.3775 262.946 63.6587 263.23C63.94 263.514 64.1587 263.865 64.315 264.283C64.4712 264.697 64.5494 265.173 64.5494 265.71V266.23H58.8604V265.02H62.6104C62.6076 264.798 62.555 264.601 62.4528 264.428C62.3505 264.254 62.2099 264.119 62.0309 264.023C61.8548 263.923 61.6516 263.874 61.4215 263.874C61.1886 263.874 60.9798 263.926 60.7951 264.031C60.6104 264.134 60.4641 264.274 60.3562 264.453C60.2482 264.629 60.1914 264.83 60.1857 265.054V266.286C60.1857 266.553 60.2383 266.787 60.3434 266.989C60.4485 267.187 60.5977 267.342 60.7908 267.453C60.984 267.564 61.2141 267.619 61.4812 267.619C61.6658 267.619 61.8335 267.594 61.984 267.543C62.1346 267.491 62.2638 267.416 62.3718 267.317C62.4798 267.217 62.5607 267.095 62.6147 266.95L64.5281 267.006C64.4485 267.435 64.2738 267.808 64.0039 268.126C63.7369 268.442 63.386 268.687 62.9513 268.864C62.5167 269.037 62.0138 269.124 61.4428 269.124ZM69.3338 262.455V263.989H65.1236V262.455H69.3338ZM66.0014 269V262.122C66.0014 261.616 66.0966 261.197 66.2869 260.865C66.4773 260.53 66.7415 260.28 67.0795 260.115C67.4176 259.947 67.8082 259.864 68.2514 259.864C68.5412 259.864 68.8139 259.886 69.0696 259.932C69.3281 259.974 69.5199 260.013 69.6449 260.047L69.3125 261.572C69.2358 261.547 69.142 261.526 69.0312 261.509C68.9233 261.491 68.821 261.483 68.7244 261.483C68.4801 261.483 68.3125 261.537 68.2216 261.645C68.1307 261.753 68.0852 261.901 68.0852 262.088V269H66.0014ZM74.0309 262.455V263.989H69.9016V262.455H74.0309ZM70.7667 260.886H72.8505V266.942C72.8505 267.07 72.8704 267.173 72.9102 267.253C72.9528 267.33 73.0138 267.385 73.0934 267.419C73.1729 267.45 73.2681 267.466 73.3789 267.466C73.4585 267.466 73.5423 267.459 73.6303 267.445C73.7212 267.428 73.7894 267.413 73.8349 267.402L74.1502 268.906C74.0508 268.935 73.9102 268.97 73.7283 269.013C73.5494 269.055 73.3349 269.082 73.0849 269.094C72.5962 269.116 72.1772 269.06 71.8278 268.923C71.4812 268.784 71.2156 268.568 71.0309 268.276C70.8491 267.983 70.761 267.615 70.7667 267.172V260.886ZM80.7276 269.124C80.0373 269.124 79.445 268.982 78.9506 268.697C78.4592 268.413 78.0813 268.018 77.8171 267.513C77.5529 267.004 77.4208 266.416 77.4208 265.749C77.4208 265.078 77.5529 264.49 77.8171 263.984C78.0842 263.476 78.4634 263.08 78.9549 262.795C79.4492 262.511 80.0387 262.369 80.7234 262.369C81.3285 262.369 81.8555 262.479 82.3043 262.697C82.756 262.916 83.1083 263.226 83.3612 263.626C83.6168 264.024 83.7518 264.491 83.766 265.028H81.8185C81.7788 264.693 81.6651 264.43 81.4776 264.24C81.293 264.05 81.0515 263.955 80.7532 263.955C80.5117 263.955 80.3001 264.023 80.1183 264.159C79.9364 264.293 79.7944 264.491 79.6921 264.756C79.5927 265.017 79.543 265.341 79.543 265.727C79.543 266.114 79.5927 266.44 79.6921 266.707C79.7944 266.972 79.9364 267.172 80.1183 267.308C80.3001 267.442 80.5117 267.509 80.7532 267.509C80.9464 267.509 81.1168 267.467 81.2646 267.385C81.4151 267.303 81.5387 267.182 81.6353 267.023C81.7319 266.861 81.793 266.665 81.8185 266.435H83.766C83.7461 266.974 83.6112 267.446 83.3612 267.849C83.114 268.253 82.766 268.567 82.3171 268.791C81.8711 269.013 81.3413 269.124 80.7276 269.124ZM87.8878 269.124C87.2003 269.124 86.6094 268.983 86.1151 268.702C85.6236 268.418 85.2443 268.023 84.9773 267.517C84.7131 267.009 84.581 266.419 84.581 265.749C84.581 265.075 84.7131 264.486 84.9773 263.98C85.2443 263.472 85.6236 263.077 86.1151 262.795C86.6094 262.511 87.2003 262.369 87.8878 262.369C88.5753 262.369 89.1648 262.511 89.6562 262.795C90.1506 263.077 90.5298 263.472 90.794 263.98C91.0611 264.486 91.1946 265.075 91.1946 265.749C91.1946 266.419 91.0611 267.009 90.794 267.517C90.5298 268.023 90.1506 268.418 89.6562 268.702C89.1648 268.983 88.5753 269.124 87.8878 269.124ZM87.9006 267.551C88.1506 267.551 88.3622 267.474 88.5355 267.321C88.7088 267.168 88.8409 266.955 88.9318 266.682C89.0256 266.409 89.0724 266.094 89.0724 265.736C89.0724 265.372 89.0256 265.054 88.9318 264.781C88.8409 264.509 88.7088 264.295 88.5355 264.142C88.3622 263.989 88.1506 263.912 87.9006 263.912C87.642 263.912 87.4233 263.989 87.2443 264.142C87.0682 264.295 86.9332 264.509 86.8395 264.781C86.7486 265.054 86.7031 265.372 86.7031 265.736C86.7031 266.094 86.7486 266.409 86.8395 266.682C86.9332 266.955 87.0682 267.168 87.2443 267.321C87.4233 267.474 87.642 267.551 87.9006 267.551ZM92.2621 269V262.455H94.2862V263.648H94.3544C94.4737 263.216 94.6683 262.895 94.9382 262.685C95.2081 262.472 95.522 262.365 95.88 262.365C95.9766 262.365 96.076 262.372 96.1783 262.386C96.2805 262.398 96.3757 262.416 96.4638 262.442V264.253C96.3643 264.219 96.2337 264.192 96.0717 264.172C95.9126 264.152 95.7706 264.142 95.6456 264.142C95.3984 264.142 95.1754 264.197 94.9766 264.308C94.7805 264.416 94.6257 264.568 94.5121 264.764C94.4013 264.957 94.3459 265.185 94.3459 265.446V269H92.2621ZM99.3967 265.267V269H97.3129V262.455H99.2944V263.656H99.3668C99.5117 263.256 99.7589 262.942 100.108 262.714C100.458 262.484 100.874 262.369 101.357 262.369C101.817 262.369 102.216 262.473 102.554 262.68C102.895 262.885 103.159 263.172 103.347 263.541C103.537 263.908 103.631 264.337 103.628 264.828V269H101.544V265.237C101.547 264.874 101.455 264.589 101.267 264.385C101.083 264.18 100.826 264.078 100.496 264.078C100.277 264.078 100.084 264.126 99.9165 264.223C99.7518 264.317 99.6239 264.452 99.533 264.628C99.445 264.804 99.3995 265.017 99.3967 265.267ZM107.978 269.124C107.293 269.124 106.702 268.989 106.205 268.719C105.711 268.446 105.33 268.058 105.063 267.555C104.799 267.05 104.667 266.449 104.667 265.753C104.667 265.077 104.8 264.486 105.067 263.98C105.335 263.472 105.711 263.077 106.197 262.795C106.683 262.511 107.255 262.369 107.914 262.369C108.38 262.369 108.806 262.442 109.192 262.587C109.579 262.732 109.913 262.946 110.194 263.23C110.475 263.514 110.694 263.865 110.85 264.283C111.006 264.697 111.085 265.173 111.085 265.71V266.23H105.396V265.02H109.146C109.143 264.798 109.09 264.601 108.988 264.428C108.886 264.254 108.745 264.119 108.566 264.023C108.39 263.923 108.187 263.874 107.957 263.874C107.724 263.874 107.515 263.926 107.33 264.031C107.146 264.134 106.999 264.274 106.891 264.453C106.783 264.629 106.727 264.83 106.721 265.054V266.286C106.721 266.553 106.773 266.787 106.879 266.989C106.984 267.187 107.133 267.342 107.326 267.453C107.519 267.564 107.749 267.619 108.016 267.619C108.201 267.619 108.369 267.594 108.519 267.543C108.67 267.491 108.799 267.416 108.907 267.317C109.015 267.217 109.096 267.095 109.15 266.95L111.063 267.006C110.984 267.435 110.809 267.808 110.539 268.126C110.272 268.442 109.921 268.687 109.487 268.864C109.052 269.037 108.549 269.124 107.978 269.124ZM112.149 269V262.455H114.173V263.648H114.241C114.36 263.216 114.555 262.895 114.825 262.685C115.095 262.472 115.409 262.365 115.767 262.365C115.863 262.365 115.963 262.372 116.065 262.386C116.167 262.398 116.262 262.416 116.35 262.442V264.253C116.251 264.219 116.12 264.192 115.958 264.172C115.799 264.152 115.657 264.142 115.532 264.142C115.285 264.142 115.062 264.197 114.863 264.308C114.667 264.416 114.512 264.568 114.399 264.764C114.288 264.957 114.233 265.185 114.233 265.446V269H112.149Z" fill="black"/>
<path d="M661.388 263.124C661.339 262.945 661.268 262.787 661.175 262.651C661.081 262.511 660.966 262.393 660.83 262.297C660.693 262.2 660.537 262.128 660.361 262.08C660.185 262.028 659.991 262.003 659.781 262.003C659.358 262.003 658.991 262.105 658.682 262.31C658.375 262.514 658.138 262.812 657.97 263.205C657.803 263.594 657.719 264.067 657.719 264.624C657.719 265.183 657.8 265.661 657.962 266.055C658.124 266.45 658.358 266.751 658.665 266.959C658.972 267.166 659.344 267.27 659.781 267.27C660.168 267.27 660.494 267.207 660.761 267.082C661.031 266.955 661.236 266.774 661.375 266.541C661.514 266.308 661.584 266.034 661.584 265.719L661.976 265.766H659.854V264.227H663.616V265.382C663.616 266.163 663.45 266.832 663.118 267.389C662.788 267.946 662.334 268.374 661.754 268.672C661.178 268.97 660.514 269.119 659.764 269.119C658.932 269.119 658.2 268.939 657.57 268.578C656.939 268.217 656.447 267.703 656.095 267.036C655.743 266.365 655.567 265.57 655.567 264.649C655.567 263.933 655.673 263.298 655.886 262.744C656.099 262.187 656.396 261.716 656.777 261.33C657.161 260.943 657.604 260.651 658.107 260.452C658.612 260.253 659.156 260.153 659.739 260.153C660.244 260.153 660.714 260.226 661.149 260.371C661.587 260.516 661.973 260.72 662.308 260.984C662.646 261.249 662.92 261.562 663.131 261.926C663.341 262.29 663.472 262.689 663.523 263.124H661.388ZM667.915 269.124C667.228 269.124 666.637 268.983 666.142 268.702C665.651 268.418 665.272 268.023 665.005 267.517C664.74 267.009 664.608 266.419 664.608 265.749C664.608 265.075 664.74 264.486 665.005 263.98C665.272 263.472 665.651 263.077 666.142 262.795C666.637 262.511 667.228 262.369 667.915 262.369C668.603 262.369 669.192 262.511 669.684 262.795C670.178 263.077 670.557 263.472 670.821 263.98C671.088 264.486 671.222 265.075 671.222 265.749C671.222 266.419 671.088 267.009 670.821 267.517C670.557 268.023 670.178 268.418 669.684 268.702C669.192 268.983 668.603 269.124 667.915 269.124ZM667.928 267.551C668.178 267.551 668.39 267.474 668.563 267.321C668.736 267.168 668.868 266.955 668.959 266.682C669.053 266.409 669.1 266.094 669.1 265.736C669.1 265.372 669.053 265.054 668.959 264.781C668.868 264.509 668.736 264.295 668.563 264.142C668.39 263.989 668.178 263.912 667.928 263.912C667.669 263.912 667.451 263.989 667.272 264.142C667.096 264.295 666.961 264.509 666.867 264.781C666.776 265.054 666.73 265.372 666.73 265.736C666.73 266.094 666.776 266.409 666.867 266.682C666.961 266.955 667.096 267.168 667.272 267.321C667.451 267.474 667.669 267.551 667.928 267.551ZM675.345 269.124C674.657 269.124 674.066 268.983 673.572 268.702C673.081 268.418 672.701 268.023 672.434 267.517C672.17 267.009 672.038 266.419 672.038 265.749C672.038 265.075 672.17 264.486 672.434 263.98C672.701 263.472 673.081 263.077 673.572 262.795C674.066 262.511 674.657 262.369 675.345 262.369C676.032 262.369 676.622 262.511 677.113 262.795C677.608 263.077 677.987 263.472 678.251 263.98C678.518 264.486 678.652 265.075 678.652 265.749C678.652 266.419 678.518 267.009 678.251 267.517C677.987 268.023 677.608 268.418 677.113 268.702C676.622 268.983 676.032 269.124 675.345 269.124ZM675.358 267.551C675.608 267.551 675.819 267.474 675.993 267.321C676.166 267.168 676.298 266.955 676.389 266.682C676.483 266.409 676.529 266.094 676.529 265.736C676.529 265.372 676.483 265.054 676.389 264.781C676.298 264.509 676.166 264.295 675.993 264.142C675.819 263.989 675.608 263.912 675.358 263.912C675.099 263.912 674.88 263.989 674.701 264.142C674.525 264.295 674.39 264.509 674.297 264.781C674.206 265.054 674.16 265.372 674.16 265.736C674.16 266.094 674.206 266.409 674.297 266.682C674.39 266.955 674.525 267.168 674.701 267.321C674.88 267.474 675.099 267.551 675.358 267.551ZM682.11 269.094C681.627 269.094 681.188 268.969 680.793 268.719C680.398 268.469 680.083 268.094 679.847 267.594C679.611 267.094 679.493 266.473 679.493 265.732C679.493 264.962 679.615 264.328 679.86 263.831C680.104 263.334 680.424 262.966 680.819 262.727C681.216 262.489 681.644 262.369 682.101 262.369C682.445 262.369 682.739 262.429 682.983 262.548C683.228 262.665 683.429 262.815 683.588 263C683.748 263.185 683.868 263.376 683.951 263.575H683.993V260.273H686.077V269H684.015V267.939H683.951C683.863 268.141 683.738 268.33 683.576 268.506C683.414 268.682 683.211 268.824 682.966 268.932C682.725 269.04 682.439 269.094 682.11 269.094ZM682.834 267.47C683.087 267.47 683.303 267.399 683.482 267.257C683.661 267.112 683.799 266.909 683.895 266.648C683.992 266.386 684.04 266.08 684.04 265.727C684.04 265.369 683.992 265.061 683.895 264.803C683.801 264.544 683.664 264.345 683.482 264.206C683.303 264.067 683.087 263.997 682.834 263.997C682.576 263.997 682.357 264.068 682.178 264.21C681.999 264.352 681.863 264.553 681.769 264.811C681.678 265.07 681.632 265.375 681.632 265.727C681.632 266.08 681.679 266.386 681.773 266.648C681.867 266.909 682.002 267.112 682.178 267.257C682.357 267.399 682.576 267.47 682.834 267.47ZM689.973 269V262.455H691.997V263.648H692.065C692.185 263.216 692.379 262.895 692.649 262.685C692.919 262.472 693.233 262.365 693.591 262.365C693.688 262.365 693.787 262.372 693.889 262.386C693.991 262.398 694.087 262.416 694.175 262.442V264.253C694.075 264.219 693.945 264.192 693.783 264.172C693.624 264.152 693.482 264.142 693.357 264.142C693.109 264.142 692.886 264.197 692.688 264.308C692.491 264.416 692.337 264.568 692.223 264.764C692.112 264.957 692.057 265.185 692.057 265.446V269H689.973ZM695.024 269V262.455H697.108V269H695.024ZM696.068 261.692C695.775 261.692 695.524 261.595 695.314 261.402C695.103 261.206 694.998 260.97 694.998 260.695C694.998 260.422 695.103 260.189 695.314 259.996C695.524 259.8 695.775 259.702 696.068 259.702C696.363 259.702 696.615 259.8 696.822 259.996C697.032 260.189 697.137 260.422 697.137 260.695C697.137 260.97 697.032 261.206 696.822 261.402C696.615 261.595 696.363 261.692 696.068 261.692ZM701.485 271.591C700.863 271.591 700.33 271.504 699.887 271.331C699.444 271.158 699.096 270.92 698.843 270.619C698.59 270.318 698.438 269.977 698.387 269.597L700.36 269.486C700.397 269.619 700.465 269.736 700.565 269.835C700.667 269.935 700.799 270.011 700.961 270.065C701.126 270.119 701.319 270.146 701.54 270.146C701.89 270.146 702.178 270.061 702.406 269.891C702.636 269.723 702.751 269.429 702.751 269.009V267.858H702.678C702.596 268.06 702.471 268.24 702.303 268.399C702.136 268.558 701.927 268.683 701.677 268.774C701.43 268.865 701.146 268.911 700.825 268.911C700.347 268.911 699.91 268.8 699.512 268.578C699.117 268.354 698.8 268.007 698.562 267.538C698.326 267.067 698.208 266.46 698.208 265.719C698.208 264.955 698.33 264.325 698.575 263.831C698.819 263.334 699.138 262.966 699.533 262.727C699.931 262.489 700.359 262.369 700.816 262.369C701.16 262.369 701.454 262.429 701.698 262.548C701.945 262.665 702.148 262.815 702.308 263C702.467 263.185 702.587 263.376 702.67 263.575H702.729V262.455H704.805V269.026C704.805 269.58 704.665 270.047 704.387 270.428C704.109 270.808 703.719 271.097 703.219 271.293C702.719 271.491 702.141 271.591 701.485 271.591ZM701.549 267.393C701.802 267.393 702.018 267.327 702.197 267.193C702.376 267.06 702.513 266.868 702.61 266.618C702.707 266.368 702.755 266.068 702.755 265.719C702.755 265.364 702.707 265.058 702.61 264.803C702.516 264.544 702.379 264.345 702.197 264.206C702.018 264.067 701.802 263.997 701.549 263.997C701.29 263.997 701.072 264.068 700.893 264.21C700.714 264.352 700.577 264.553 700.484 264.811C700.393 265.067 700.347 265.369 700.347 265.719C700.347 266.068 700.394 266.368 700.488 266.618C700.582 266.868 700.717 267.06 700.893 267.193C701.072 267.327 701.29 267.393 701.549 267.393ZM708.217 265.267V269H706.133V260.273H708.149V263.656H708.221C708.369 263.253 708.61 262.937 708.946 262.71C709.284 262.483 709.697 262.369 710.186 262.369C710.646 262.369 711.047 262.472 711.387 262.676C711.728 262.878 711.993 263.163 712.18 263.533C712.37 263.902 712.464 264.334 712.461 264.828V269H710.377V265.237C710.38 264.874 710.289 264.589 710.105 264.385C709.92 264.18 709.66 264.078 709.325 264.078C709.106 264.078 708.913 264.126 708.745 264.223C708.581 264.317 708.451 264.452 708.358 264.628C708.267 264.804 708.22 265.017 708.217 265.267ZM717.457 262.455V263.989H713.327V262.455H717.457ZM714.192 260.886H716.276V266.942C716.276 267.07 716.296 267.173 716.336 267.253C716.379 267.33 716.44 267.385 716.519 267.419C716.599 267.45 716.694 267.466 716.805 267.466C716.884 267.466 716.968 267.459 717.056 267.445C717.147 267.428 717.215 267.413 717.261 267.402L717.576 268.906C717.477 268.935 717.336 268.97 717.154 269.013C716.975 269.055 716.761 269.082 716.511 269.094C716.022 269.116 715.603 269.06 715.254 268.923C714.907 268.784 714.641 268.568 714.457 268.276C714.275 267.983 714.187 267.615 714.192 267.172V260.886ZM724.153 269.124C723.463 269.124 722.871 268.982 722.376 268.697C721.885 268.413 721.507 268.018 721.243 267.513C720.979 267.004 720.847 266.416 720.847 265.749C720.847 265.078 720.979 264.49 721.243 263.984C721.51 263.476 721.889 263.08 722.381 262.795C722.875 262.511 723.464 262.369 724.149 262.369C724.754 262.369 725.281 262.479 725.73 262.697C726.182 262.916 726.534 263.226 726.787 263.626C727.043 264.024 727.178 264.491 727.192 265.028H725.244C725.205 264.693 725.091 264.43 724.903 264.24C724.719 264.05 724.477 263.955 724.179 263.955C723.938 263.955 723.726 264.023 723.544 264.159C723.362 264.293 723.22 264.491 723.118 264.756C723.018 265.017 722.969 265.341 722.969 265.727C722.969 266.114 723.018 266.44 723.118 266.707C723.22 266.972 723.362 267.172 723.544 267.308C723.726 267.442 723.938 267.509 724.179 267.509C724.372 267.509 724.543 267.467 724.69 267.385C724.841 267.303 724.964 267.182 725.061 267.023C725.158 266.861 725.219 266.665 725.244 266.435H727.192C727.172 266.974 727.037 267.446 726.787 267.849C726.54 268.253 726.192 268.567 725.743 268.791C725.297 269.013 724.767 269.124 724.153 269.124ZM731.314 269.124C730.626 269.124 730.035 268.983 729.541 268.702C729.049 268.418 728.67 268.023 728.403 267.517C728.139 267.009 728.007 266.419 728.007 265.749C728.007 265.075 728.139 264.486 728.403 263.98C728.67 263.472 729.049 263.077 729.541 262.795C730.035 262.511 730.626 262.369 731.314 262.369C732.001 262.369 732.591 262.511 733.082 262.795C733.576 263.077 733.956 263.472 734.22 263.98C734.487 264.486 734.62 265.075 734.62 265.749C734.62 266.419 734.487 267.009 734.22 267.517C733.956 268.023 733.576 268.418 733.082 268.702C732.591 268.983 732.001 269.124 731.314 269.124ZM731.326 267.551C731.576 267.551 731.788 267.474 731.961 267.321C732.135 267.168 732.267 266.955 732.358 266.682C732.451 266.409 732.498 266.094 732.498 265.736C732.498 265.372 732.451 265.054 732.358 264.781C732.267 264.509 732.135 264.295 731.961 264.142C731.788 263.989 731.576 263.912 731.326 263.912C731.068 263.912 730.849 263.989 730.67 264.142C730.494 264.295 730.359 264.509 730.265 264.781C730.174 265.054 730.129 265.372 730.129 265.736C730.129 266.094 730.174 266.409 730.265 266.682C730.359 266.955 730.494 267.168 730.67 267.321C730.849 267.474 731.068 267.551 731.326 267.551ZM735.688 269V262.455H737.712V263.648H737.78C737.9 263.216 738.094 262.895 738.364 262.685C738.634 262.472 738.948 262.365 739.306 262.365C739.402 262.365 739.502 262.372 739.604 262.386C739.706 262.398 739.801 262.416 739.89 262.442V264.253C739.79 264.219 739.659 264.192 739.498 264.172C739.338 264.152 739.196 264.142 739.071 264.142C738.824 264.142 738.601 264.197 738.402 264.308C738.206 264.416 738.051 264.568 737.938 264.764C737.827 264.957 737.772 265.185 737.772 265.446V269H735.688ZM742.822 265.267V269H740.739V262.455H742.72V263.656H742.793C742.938 263.256 743.185 262.942 743.534 262.714C743.884 262.484 744.3 262.369 744.783 262.369C745.243 262.369 745.642 262.473 745.98 262.68C746.321 262.885 746.585 263.172 746.773 263.541C746.963 263.908 747.057 264.337 747.054 264.828V269H744.97V265.237C744.973 264.874 744.881 264.589 744.693 264.385C744.509 264.18 744.251 264.078 743.922 264.078C743.703 264.078 743.51 264.126 743.342 264.223C743.178 264.317 743.05 264.452 742.959 264.628C742.871 264.804 742.825 265.017 742.822 265.267ZM751.404 269.124C750.719 269.124 750.128 268.989 749.631 268.719C749.137 268.446 748.756 268.058 748.489 267.555C748.225 267.05 748.093 266.449 748.093 265.753C748.093 265.077 748.226 264.486 748.493 263.98C748.76 263.472 749.137 263.077 749.623 262.795C750.108 262.511 750.681 262.369 751.34 262.369C751.806 262.369 752.232 262.442 752.618 262.587C753.005 262.732 753.338 262.946 753.62 263.23C753.901 263.514 754.12 263.865 754.276 264.283C754.432 264.697 754.51 265.173 754.51 265.71V266.23H748.821V265.02H752.571C752.569 264.798 752.516 264.601 752.414 264.428C752.311 264.254 752.171 264.119 751.992 264.023C751.816 263.923 751.613 263.874 751.382 263.874C751.15 263.874 750.941 263.926 750.756 264.031C750.571 264.134 750.425 264.274 750.317 264.453C750.209 264.629 750.152 264.83 750.147 265.054V266.286C750.147 266.553 750.199 266.787 750.304 266.989C750.409 267.187 750.559 267.342 750.752 267.453C750.945 267.564 751.175 267.619 751.442 267.619C751.627 267.619 751.794 267.594 751.945 267.543C752.096 267.491 752.225 267.416 752.333 267.317C752.441 267.217 752.522 267.095 752.576 266.95L754.489 267.006C754.409 267.435 754.235 267.808 753.965 268.126C753.698 268.442 753.347 268.687 752.912 268.864C752.478 269.037 751.975 269.124 751.404 269.124ZM755.575 269V262.455H757.599V263.648H757.667C757.786 263.216 757.981 262.895 758.251 262.685C758.521 262.472 758.835 262.365 759.192 262.365C759.289 262.365 759.388 262.372 759.491 262.386C759.593 262.398 759.688 262.416 759.776 262.442V264.253C759.677 264.219 759.546 264.192 759.384 264.172C759.225 264.152 759.083 264.142 758.958 264.142C758.711 264.142 758.488 264.197 758.289 264.308C758.093 264.416 757.938 264.568 757.825 264.764C757.714 264.957 757.658 265.185 757.658 265.446V269H755.575Z" fill="black"/>
<path d="M203.661 269V260.273H207.3C207.953 260.273 208.5 260.365 208.94 260.55C209.384 260.734 209.716 260.993 209.938 261.325C210.162 261.658 210.274 262.043 210.274 262.48C210.274 262.812 210.205 263.109 210.065 263.371C209.926 263.629 209.734 263.844 209.49 264.014C209.246 264.185 208.963 264.304 208.642 264.372V264.457C208.994 264.474 209.32 264.57 209.618 264.743C209.919 264.916 210.161 265.158 210.342 265.467C210.524 265.774 210.615 266.138 210.615 266.558C210.615 267.027 210.496 267.446 210.257 267.815C210.018 268.182 209.673 268.472 209.222 268.685C208.77 268.895 208.222 269 207.577 269H203.661ZM205.77 267.3H207.074C207.531 267.3 207.868 267.213 208.084 267.04C208.303 266.866 208.412 266.625 208.412 266.315C208.412 266.091 208.359 265.898 208.254 265.736C208.149 265.571 208 265.445 207.807 265.357C207.614 265.266 207.382 265.22 207.112 265.22H205.77V267.3ZM205.77 263.861H206.938C207.168 263.861 207.372 263.822 207.551 263.746C207.73 263.669 207.869 263.558 207.969 263.413C208.071 263.268 208.122 263.094 208.122 262.889C208.122 262.597 208.018 262.366 207.811 262.199C207.604 262.031 207.324 261.947 206.972 261.947H205.77V263.861ZM213.474 269.111C213.057 269.111 212.686 269.041 212.362 268.902C212.041 268.76 211.787 268.547 211.599 268.263C211.415 267.976 211.322 267.616 211.322 267.185C211.322 266.821 211.386 266.514 211.514 266.264C211.642 266.014 211.818 265.811 212.043 265.655C212.267 265.499 212.526 265.381 212.818 265.301C213.111 265.219 213.423 265.163 213.756 265.135C214.128 265.101 214.428 265.065 214.655 265.028C214.882 264.989 215.047 264.933 215.149 264.862C215.254 264.788 215.307 264.685 215.307 264.551V264.53C215.307 264.311 215.232 264.142 215.081 264.023C214.93 263.903 214.727 263.844 214.472 263.844C214.196 263.844 213.974 263.903 213.807 264.023C213.639 264.142 213.533 264.307 213.487 264.517L211.565 264.449C211.622 264.051 211.768 263.696 212.004 263.384C212.243 263.068 212.57 262.821 212.984 262.642C213.402 262.46 213.903 262.369 214.489 262.369C214.906 262.369 215.291 262.419 215.643 262.518C215.996 262.615 216.303 262.757 216.564 262.945C216.825 263.129 217.027 263.357 217.169 263.626C217.314 263.896 217.386 264.205 217.386 264.551V269H215.426V268.088H215.375C215.259 268.31 215.109 268.497 214.928 268.651C214.749 268.804 214.537 268.919 214.293 268.996C214.051 269.072 213.778 269.111 213.474 269.111ZM214.118 267.747C214.342 267.747 214.544 267.702 214.723 267.611C214.905 267.52 215.05 267.395 215.158 267.236C215.266 267.074 215.32 266.886 215.32 266.673V266.051C215.26 266.082 215.188 266.111 215.102 266.136C215.02 266.162 214.929 266.186 214.83 266.209C214.73 266.232 214.628 266.251 214.523 266.268C214.418 266.286 214.317 266.301 214.22 266.315C214.024 266.347 213.857 266.395 213.717 266.46C213.581 266.526 213.476 266.611 213.402 266.716C213.331 266.818 213.295 266.94 213.295 267.082C213.295 267.298 213.372 267.463 213.526 267.577C213.682 267.69 213.879 267.747 214.118 267.747ZM221.051 269.094C220.568 269.094 220.129 268.969 219.734 268.719C219.339 268.469 219.024 268.094 218.788 267.594C218.553 267.094 218.435 266.473 218.435 265.732C218.435 264.962 218.557 264.328 218.801 263.831C219.045 263.334 219.365 262.966 219.76 262.727C220.158 262.489 220.585 262.369 221.043 262.369C221.386 262.369 221.68 262.429 221.925 262.548C222.169 262.665 222.371 262.815 222.53 263C222.689 263.185 222.81 263.376 222.892 263.575H222.935V260.273H225.018V269H222.956V267.939H222.892C222.804 268.141 222.679 268.33 222.517 268.506C222.355 268.682 222.152 268.824 221.908 268.932C221.666 269.04 221.381 269.094 221.051 269.094ZM221.776 267.47C222.028 267.47 222.244 267.399 222.423 267.257C222.602 267.112 222.74 266.909 222.837 266.648C222.933 266.386 222.982 266.08 222.982 265.727C222.982 265.369 222.933 265.061 222.837 264.803C222.743 264.544 222.605 264.345 222.423 264.206C222.244 264.067 222.028 263.997 221.776 263.997C221.517 263.997 221.298 264.068 221.119 264.21C220.94 264.352 220.804 264.553 220.71 264.811C220.619 265.07 220.574 265.375 220.574 265.727C220.574 266.08 220.621 266.386 220.714 266.648C220.808 266.909 220.943 267.112 221.119 267.257C221.298 267.399 221.517 267.47 221.776 267.47ZM230.998 260.273V269H228.914V260.273H230.998ZM235.384 269.124C234.7 269.124 234.109 268.989 233.612 268.719C233.117 268.446 232.737 268.058 232.469 267.555C232.205 267.05 232.073 266.449 232.073 265.753C232.073 265.077 232.207 264.486 232.474 263.98C232.741 263.472 233.117 263.077 233.603 262.795C234.089 262.511 234.661 262.369 235.32 262.369C235.786 262.369 236.212 262.442 236.599 262.587C236.985 262.732 237.319 262.946 237.6 263.23C237.881 263.514 238.1 263.865 238.256 264.283C238.413 264.697 238.491 265.173 238.491 265.71V266.23H232.802V265.02H236.552C236.549 264.798 236.496 264.601 236.394 264.428C236.292 264.254 236.151 264.119 235.972 264.023C235.796 263.923 235.593 263.874 235.363 263.874C235.13 263.874 234.921 263.926 234.737 264.031C234.552 264.134 234.406 264.274 234.298 264.453C234.19 264.629 234.133 264.83 234.127 265.054V266.286C234.127 266.553 234.18 266.787 234.285 266.989C234.39 267.187 234.539 267.342 234.732 267.453C234.925 267.564 235.156 267.619 235.423 267.619C235.607 267.619 235.775 267.594 235.925 267.543C236.076 267.491 236.205 267.416 236.313 267.317C236.421 267.217 236.502 267.095 236.556 266.95L238.469 267.006C238.39 267.435 238.215 267.808 237.945 268.126C237.678 268.442 237.327 268.687 236.893 268.864C236.458 269.037 235.955 269.124 235.384 269.124ZM243.275 262.455V263.989H239.065V262.455H243.275ZM239.943 269V262.122C239.943 261.616 240.038 261.197 240.228 260.865C240.419 260.53 240.683 260.28 241.021 260.115C241.359 259.947 241.75 259.864 242.193 259.864C242.483 259.864 242.755 259.886 243.011 259.932C243.27 259.974 243.461 260.013 243.586 260.047L243.254 261.572C243.177 261.547 243.083 261.526 242.973 261.509C242.865 261.491 242.762 261.483 242.666 261.483C242.422 261.483 242.254 261.537 242.163 261.645C242.072 261.753 242.027 261.901 242.027 262.088V269H239.943ZM247.972 262.455V263.989H243.843V262.455H247.972ZM244.708 260.886H246.792V266.942C246.792 267.07 246.812 267.173 246.852 267.253C246.894 267.33 246.955 267.385 247.035 267.419C247.114 267.45 247.21 267.466 247.32 267.466C247.4 267.466 247.484 267.459 247.572 267.445C247.663 267.428 247.731 267.413 247.776 267.402L248.092 268.906C247.992 268.935 247.852 268.97 247.67 269.013C247.491 269.055 247.276 269.082 247.026 269.094C246.538 269.116 246.119 269.06 245.769 268.923C245.423 268.784 245.157 268.568 244.972 268.276C244.79 267.983 244.702 267.615 244.708 267.172V260.886ZM254.669 269.124C253.979 269.124 253.386 268.982 252.892 268.697C252.401 268.413 252.023 268.018 251.759 267.513C251.494 267.004 251.362 266.416 251.362 265.749C251.362 265.078 251.494 264.49 251.759 263.984C252.026 263.476 252.405 263.08 252.896 262.795C253.391 262.511 253.98 262.369 254.665 262.369C255.27 262.369 255.797 262.479 256.246 262.697C256.697 262.916 257.05 263.226 257.303 263.626C257.558 264.024 257.693 264.491 257.707 265.028H255.76C255.72 264.693 255.607 264.43 255.419 264.24C255.234 264.05 254.993 263.955 254.695 263.955C254.453 263.955 254.241 264.023 254.06 264.159C253.878 264.293 253.736 264.491 253.634 264.756C253.534 265.017 253.484 265.341 253.484 265.727C253.484 266.114 253.534 266.44 253.634 266.707C253.736 266.972 253.878 267.172 254.06 267.308C254.241 267.442 254.453 267.509 254.695 267.509C254.888 267.509 255.058 267.467 255.206 267.385C255.357 267.303 255.48 267.182 255.577 267.023C255.673 266.861 255.734 266.665 255.76 266.435H257.707C257.688 266.974 257.553 267.446 257.303 267.849C257.055 268.253 256.707 268.567 256.259 268.791C255.813 269.013 255.283 269.124 254.669 269.124ZM261.829 269.124C261.142 269.124 260.551 268.983 260.056 268.702C259.565 268.418 259.186 268.023 258.919 267.517C258.654 267.009 258.522 266.419 258.522 265.749C258.522 265.075 258.654 264.486 258.919 263.98C259.186 263.472 259.565 263.077 260.056 262.795C260.551 262.511 261.142 262.369 261.829 262.369C262.517 262.369 263.106 262.511 263.598 262.795C264.092 263.077 264.471 263.472 264.735 263.98C265.002 264.486 265.136 265.075 265.136 265.749C265.136 266.419 265.002 267.009 264.735 267.517C264.471 268.023 264.092 268.418 263.598 268.702C263.106 268.983 262.517 269.124 261.829 269.124ZM261.842 267.551C262.092 267.551 262.304 267.474 262.477 267.321C262.65 267.168 262.782 266.955 262.873 266.682C262.967 266.409 263.014 266.094 263.014 265.736C263.014 265.372 262.967 265.054 262.873 264.781C262.782 264.509 262.65 264.295 262.477 264.142C262.304 263.989 262.092 263.912 261.842 263.912C261.583 263.912 261.365 263.989 261.186 264.142C261.01 264.295 260.875 264.509 260.781 264.781C260.69 265.054 260.645 265.372 260.645 265.736C260.645 266.094 260.69 266.409 260.781 266.682C260.875 266.955 261.01 267.168 261.186 267.321C261.365 267.474 261.583 267.551 261.842 267.551ZM266.203 269V262.455H268.228V263.648H268.296C268.415 263.216 268.61 262.895 268.88 262.685C269.15 262.472 269.463 262.365 269.821 262.365C269.918 262.365 270.017 262.372 270.12 262.386C270.222 262.398 270.317 262.416 270.405 262.442V264.253C270.306 264.219 270.175 264.192 270.013 264.172C269.854 264.152 269.712 264.142 269.587 264.142C269.34 264.142 269.117 264.197 268.918 264.308C268.722 264.416 268.567 264.568 268.453 264.764C268.343 264.957 268.287 265.185 268.287 265.446V269H266.203ZM273.338 265.267V269H271.254V262.455H273.236V263.656H273.308C273.453 263.256 273.7 262.942 274.05 262.714C274.399 262.484 274.815 262.369 275.298 262.369C275.759 262.369 276.158 262.473 276.496 262.68C276.837 262.885 277.101 263.172 277.288 263.541C277.479 263.908 277.572 264.337 277.57 264.828V269H275.486V265.237C275.489 264.874 275.396 264.589 275.209 264.385C275.024 264.18 274.767 264.078 274.438 264.078C274.219 264.078 274.026 264.126 273.858 264.223C273.693 264.317 273.565 264.452 273.474 264.628C273.386 264.804 273.341 265.017 273.338 265.267ZM281.919 269.124C281.235 269.124 280.644 268.989 280.147 268.719C279.652 268.446 279.272 268.058 279.005 267.555C278.74 267.05 278.608 266.449 278.608 265.753C278.608 265.077 278.742 264.486 279.009 263.98C279.276 263.472 279.652 263.077 280.138 262.795C280.624 262.511 281.196 262.369 281.855 262.369C282.321 262.369 282.748 262.442 283.134 262.587C283.52 262.732 283.854 262.946 284.135 263.23C284.417 263.514 284.635 263.865 284.792 264.283C284.948 264.697 285.026 265.173 285.026 265.71V266.23H279.337V265.02H283.087C283.084 264.798 283.032 264.601 282.929 264.428C282.827 264.254 282.686 264.119 282.507 264.023C282.331 263.923 282.128 263.874 281.898 263.874C281.665 263.874 281.456 263.926 281.272 264.031C281.087 264.134 280.941 264.274 280.833 264.453C280.725 264.629 280.668 264.83 280.662 265.054V266.286C280.662 266.553 280.715 266.787 280.82 266.989C280.925 267.187 281.074 267.342 281.267 267.453C281.461 267.564 281.691 267.619 281.958 267.619C282.142 267.619 282.31 267.594 282.461 267.543C282.611 267.491 282.74 267.416 282.848 267.317C282.956 267.217 283.037 267.095 283.091 266.95L285.005 267.006C284.925 267.435 284.75 267.808 284.48 268.126C284.213 268.442 283.863 268.687 283.428 268.864C282.993 269.037 282.49 269.124 281.919 269.124ZM286.09 269V262.455H288.114V263.648H288.183C288.302 263.216 288.496 262.895 288.766 262.685C289.036 262.472 289.35 262.365 289.708 262.365C289.805 262.365 289.904 262.372 290.006 262.386C290.109 262.398 290.204 262.416 290.292 262.442V264.253C290.192 264.219 290.062 264.192 289.9 264.172C289.741 264.152 289.599 264.142 289.474 264.142C289.227 264.142 289.004 264.197 288.805 264.308C288.609 264.416 288.454 264.568 288.34 264.764C288.229 264.957 288.174 265.185 288.174 265.446V269H286.09Z" fill="black"/>
<rect x="119.5" y="114.5" width="175" height="119" fill="#D9D9D9" stroke="black" stroke-width="3"/>
<path d="M179.661 169.273H182.273L184.489 174.676H184.591L186.807 169.273H189.419V178H187.365V172.639H187.293L185.196 177.945H183.884L181.787 172.609H181.714V178H179.661V169.273ZM193.79 178.124C193.103 178.124 192.512 177.983 192.017 177.702C191.526 177.418 191.147 177.023 190.88 176.517C190.615 176.009 190.483 175.419 190.483 174.749C190.483 174.075 190.615 173.486 190.88 172.98C191.147 172.472 191.526 172.077 192.017 171.795C192.512 171.511 193.103 171.369 193.79 171.369C194.478 171.369 195.067 171.511 195.559 171.795C196.053 172.077 196.432 172.472 196.696 172.98C196.963 173.486 197.097 174.075 197.097 174.749C197.097 175.419 196.963 176.009 196.696 176.517C196.432 177.023 196.053 177.418 195.559 177.702C195.067 177.983 194.478 178.124 193.79 178.124ZM193.803 176.551C194.053 176.551 194.265 176.474 194.438 176.321C194.611 176.168 194.743 175.955 194.834 175.682C194.928 175.409 194.975 175.094 194.975 174.736C194.975 174.372 194.928 174.054 194.834 173.781C194.743 173.509 194.611 173.295 194.438 173.142C194.265 172.989 194.053 172.912 193.803 172.912C193.544 172.912 193.326 172.989 193.147 173.142C192.971 173.295 192.836 173.509 192.742 173.781C192.651 174.054 192.605 174.372 192.605 174.736C192.605 175.094 192.651 175.409 192.742 175.682C192.836 175.955 192.971 176.168 193.147 176.321C193.326 176.474 193.544 176.551 193.803 176.551ZM200.248 174.267V178H198.164V171.455H200.146V172.656H200.218C200.363 172.256 200.61 171.942 200.96 171.714C201.309 171.484 201.725 171.369 202.208 171.369C202.669 171.369 203.068 171.473 203.406 171.68C203.747 171.885 204.011 172.172 204.199 172.541C204.389 172.908 204.483 173.337 204.48 173.828V178H202.396V174.237C202.399 173.874 202.306 173.589 202.119 173.385C201.934 173.18 201.677 173.078 201.348 173.078C201.129 173.078 200.936 173.126 200.768 173.223C200.603 173.317 200.475 173.452 200.385 173.628C200.297 173.804 200.251 174.017 200.248 174.267ZM205.77 178V171.455H207.854V178H205.77ZM206.814 170.692C206.521 170.692 206.27 170.595 206.06 170.402C205.849 170.206 205.744 169.97 205.744 169.695C205.744 169.422 205.849 169.189 206.06 168.996C206.27 168.8 206.521 168.702 206.814 168.702C207.109 168.702 207.361 168.8 207.568 168.996C207.778 169.189 207.884 169.422 207.884 169.695C207.884 169.97 207.778 170.206 207.568 170.402C207.361 170.595 207.109 170.692 206.814 170.692ZM212.875 171.455V172.989H208.745V171.455H212.875ZM209.61 169.886H211.694V175.942C211.694 176.07 211.714 176.173 211.754 176.253C211.797 176.33 211.858 176.385 211.937 176.419C212.017 176.45 212.112 176.466 212.223 176.466C212.302 176.466 212.386 176.459 212.474 176.445C212.565 176.428 212.633 176.413 212.679 176.402L212.994 177.906C212.895 177.935 212.754 177.97 212.572 178.013C212.393 178.055 212.179 178.082 211.929 178.094C211.44 178.116 211.021 178.06 210.672 177.923C210.325 177.784 210.059 177.568 209.875 177.276C209.693 176.983 209.605 176.615 209.61 176.172V169.886ZM216.923 178.124C216.235 178.124 215.645 177.983 215.15 177.702C214.659 177.418 214.279 177.023 214.012 176.517C213.748 176.009 213.616 175.419 213.616 174.749C213.616 174.075 213.748 173.486 214.012 172.98C214.279 172.472 214.659 172.077 215.15 171.795C215.645 171.511 216.235 171.369 216.923 171.369C217.61 171.369 218.2 171.511 218.691 171.795C219.186 172.077 219.565 172.472 219.829 172.98C220.096 173.486 220.23 174.075 220.23 174.749C220.23 175.419 220.096 176.009 219.829 176.517C219.565 177.023 219.186 177.418 218.691 177.702C218.2 177.983 217.61 178.124 216.923 178.124ZM216.936 176.551C217.186 176.551 217.397 176.474 217.571 176.321C217.744 176.168 217.876 175.955 217.967 175.682C218.061 175.409 218.108 175.094 218.108 174.736C218.108 174.372 218.061 174.054 217.967 173.781C217.876 173.509 217.744 173.295 217.571 173.142C217.397 172.989 217.186 172.912 216.936 172.912C216.677 172.912 216.458 172.989 216.279 173.142C216.103 173.295 215.968 173.509 215.875 173.781C215.784 174.054 215.738 174.372 215.738 174.736C215.738 175.094 215.784 175.409 215.875 175.682C215.968 175.955 216.103 176.168 216.279 176.321C216.458 176.474 216.677 176.551 216.936 176.551ZM221.297 178V171.455H223.321V172.648H223.39C223.509 172.216 223.703 171.895 223.973 171.685C224.243 171.472 224.557 171.365 224.915 171.365C225.012 171.365 225.111 171.372 225.213 171.386C225.316 171.398 225.411 171.416 225.499 171.442V173.253C225.4 173.219 225.269 173.192 225.107 173.172C224.948 173.152 224.806 173.142 224.681 173.142C224.434 173.142 224.211 173.197 224.012 173.308C223.816 173.416 223.661 173.568 223.547 173.764C223.436 173.957 223.381 174.185 223.381 174.446V178H221.297ZM232.945 169.273V178H230.839V171.241H230.788L228.837 172.435V170.611L230.989 169.273H232.945Z" fill="black"/>
<rect x="1.5" y="218.5" width="133" height="92" fill="url(#paint4_linear_54_84)" stroke="#1AAC20" stroke-width="3"/>
<rect x="180.5" y="218.5" width="133" height="92" fill="url(#paint5_linear_54_84)" stroke="#FF0000" stroke-width="3"/>
<path d="M26.3878 263.124C26.3395 262.945 26.2685 262.787 26.1747 262.651C26.081 262.511 25.9659 262.393 25.8295 262.297C25.6932 262.2 25.5369 262.128 25.3608 262.08C25.1847 262.028 24.9915 262.003 24.7812 262.003C24.358 262.003 23.9915 262.105 23.6818 262.31C23.375 262.514 23.1378 262.812 22.9702 263.205C22.8026 263.594 22.7188 264.067 22.7188 264.624C22.7188 265.183 22.7997 265.661 22.9616 266.055C23.1236 266.45 23.358 266.751 23.6648 266.959C23.9716 267.166 24.3438 267.27 24.7812 267.27C25.1676 267.27 25.4943 267.207 25.7614 267.082C26.0313 266.955 26.2358 266.774 26.375 266.541C26.5142 266.308 26.5838 266.034 26.5838 265.719L26.9759 265.766H24.8537V264.227H28.6165V265.382C28.6165 266.163 28.4503 266.832 28.1179 267.389C27.7884 267.946 27.3338 268.374 26.7543 268.672C26.1776 268.97 25.5142 269.119 24.7642 269.119C23.9318 269.119 23.2003 268.939 22.5696 268.578C21.9389 268.217 21.4474 267.703 21.0952 267.036C20.7429 266.365 20.5668 265.57 20.5668 264.649C20.5668 263.933 20.6733 263.298 20.8864 262.744C21.0994 262.187 21.3963 261.716 21.777 261.33C22.1605 260.943 22.6037 260.651 23.1065 260.452C23.6122 260.253 24.1563 260.153 24.7386 260.153C25.2443 260.153 25.7145 260.226 26.1491 260.371C26.5866 260.516 26.973 260.72 27.3082 260.984C27.6463 261.249 27.9205 261.562 28.1307 261.926C28.3409 262.29 28.4716 262.689 28.5227 263.124H26.3878ZM32.9151 269.124C32.2276 269.124 31.6367 268.983 31.1424 268.702C30.6509 268.418 30.2717 268.023 30.0046 267.517C29.7404 267.009 29.6083 266.419 29.6083 265.749C29.6083 265.075 29.7404 264.486 30.0046 263.98C30.2717 263.472 30.6509 263.077 31.1424 262.795C31.6367 262.511 32.2276 262.369 32.9151 262.369C33.6026 262.369 34.1921 262.511 34.6836 262.795C35.1779 263.077 35.5572 263.472 35.8214 263.98C36.0884 264.486 36.2219 265.075 36.2219 265.749C36.2219 266.419 36.0884 267.009 35.8214 267.517C35.5572 268.023 35.1779 268.418 34.6836 268.702C34.1921 268.983 33.6026 269.124 32.9151 269.124ZM32.9279 267.551C33.1779 267.551 33.3896 267.474 33.5629 267.321C33.7362 267.168 33.8683 266.955 33.9592 266.682C34.0529 266.409 34.0998 266.094 34.0998 265.736C34.0998 265.372 34.0529 265.054 33.9592 264.781C33.8683 264.509 33.7362 264.295 33.5629 264.142C33.3896 263.989 33.1779 263.912 32.9279 263.912C32.6694 263.912 32.4506 263.989 32.2717 264.142C32.0955 264.295 31.9606 264.509 31.8668 264.781C31.7759 265.054 31.7305 265.372 31.7305 265.736C31.7305 266.094 31.7759 266.409 31.8668 266.682C31.9606 266.955 32.0955 267.168 32.2717 267.321C32.4506 267.474 32.6694 267.551 32.9279 267.551ZM40.3448 269.124C39.6573 269.124 39.0664 268.983 38.5721 268.702C38.0806 268.418 37.7013 268.023 37.4343 267.517C37.1701 267.009 37.038 266.419 37.038 265.749C37.038 265.075 37.1701 264.486 37.4343 263.98C37.7013 263.472 38.0806 263.077 38.5721 262.795C39.0664 262.511 39.6573 262.369 40.3448 262.369C41.0323 262.369 41.6218 262.511 42.1133 262.795C42.6076 263.077 42.9869 263.472 43.2511 263.98C43.5181 264.486 43.6516 265.075 43.6516 265.749C43.6516 266.419 43.5181 267.009 43.2511 267.517C42.9869 268.023 42.6076 268.418 42.1133 268.702C41.6218 268.983 41.0323 269.124 40.3448 269.124ZM40.3576 267.551C40.6076 267.551 40.8192 267.474 40.9925 267.321C41.1658 267.168 41.2979 266.955 41.3888 266.682C41.4826 266.409 41.5295 266.094 41.5295 265.736C41.5295 265.372 41.4826 265.054 41.3888 264.781C41.2979 264.509 41.1658 264.295 40.9925 264.142C40.8192 263.989 40.6076 263.912 40.3576 263.912C40.0991 263.912 39.8803 263.989 39.7013 264.142C39.5252 264.295 39.3903 264.509 39.2965 264.781C39.2056 265.054 39.1602 265.372 39.1602 265.736C39.1602 266.094 39.2056 266.409 39.2965 266.682C39.3903 266.955 39.5252 267.168 39.7013 267.321C39.8803 267.474 40.0991 267.551 40.3576 267.551ZM47.1097 269.094C46.6268 269.094 46.1879 268.969 45.793 268.719C45.3981 268.469 45.0827 268.094 44.8469 267.594C44.6112 267.094 44.4933 266.473 44.4933 265.732C44.4933 264.962 44.6154 264.328 44.8597 263.831C45.104 263.334 45.4237 262.966 45.8185 262.727C46.2163 262.489 46.6438 262.369 47.1012 262.369C47.445 262.369 47.739 262.429 47.9833 262.548C48.2276 262.665 48.4293 262.815 48.5884 263C48.7475 263.185 48.8683 263.376 48.9506 263.575H48.9933V260.273H51.0771V269H49.0146V267.939H48.9506C48.8626 268.141 48.7376 268.33 48.5756 268.506C48.4137 268.682 48.2106 268.824 47.9663 268.932C47.7248 269.04 47.4393 269.094 47.1097 269.094ZM47.8342 267.47C48.087 267.47 48.3029 267.399 48.4819 267.257C48.6609 267.112 48.7987 266.909 48.8952 266.648C48.9918 266.386 49.0401 266.08 49.0401 265.727C49.0401 265.369 48.9918 265.061 48.8952 264.803C48.8015 264.544 48.6637 264.345 48.4819 264.206C48.3029 264.067 48.087 263.997 47.8342 263.997C47.5756 263.997 47.3569 264.068 47.1779 264.21C46.9989 264.352 46.8626 264.553 46.7688 264.811C46.6779 265.07 46.6325 265.375 46.6325 265.727C46.6325 266.08 46.6793 266.386 46.7731 266.648C46.8668 266.909 47.0018 267.112 47.1779 267.257C47.3569 267.399 47.5756 267.47 47.8342 267.47ZM57.0568 260.273V269H54.973V260.273H57.0568ZM61.4428 269.124C60.7582 269.124 60.1673 268.989 59.6701 268.719C59.1758 268.446 58.7951 268.058 58.5281 267.555C58.2638 267.05 58.1317 266.449 58.1317 265.753C58.1317 265.077 58.2653 264.486 58.5323 263.98C58.7994 263.472 59.1758 263.077 59.6616 262.795C60.1474 262.511 60.7198 262.369 61.3789 262.369C61.8448 262.369 62.271 262.442 62.6573 262.587C63.0437 262.732 63.3775 262.946 63.6587 263.23C63.94 263.514 64.1587 263.865 64.315 264.283C64.4712 264.697 64.5494 265.173 64.5494 265.71V266.23H58.8604V265.02H62.6104C62.6076 264.798 62.555 264.601 62.4528 264.428C62.3505 264.254 62.2099 264.119 62.0309 264.023C61.8548 263.923 61.6516 263.874 61.4215 263.874C61.1886 263.874 60.9798 263.926 60.7951 264.031C60.6104 264.134 60.4641 264.274 60.3562 264.453C60.2482 264.629 60.1914 264.83 60.1857 265.054V266.286C60.1857 266.553 60.2383 266.787 60.3434 266.989C60.4485 267.187 60.5977 267.342 60.7908 267.453C60.984 267.564 61.2141 267.619 61.4812 267.619C61.6658 267.619 61.8335 267.594 61.984 267.543C62.1346 267.491 62.2638 267.416 62.3718 267.317C62.4798 267.217 62.5607 267.095 62.6147 266.95L64.5281 267.006C64.4485 267.435 64.2738 267.808 64.0039 268.126C63.7369 268.442 63.386 268.687 62.9513 268.864C62.5167 269.037 62.0138 269.124 61.4428 269.124ZM69.3338 262.455V263.989H65.1236V262.455H69.3338ZM66.0014 269V262.122C66.0014 261.616 66.0966 261.197 66.2869 260.865C66.4773 260.53 66.7415 260.28 67.0795 260.115C67.4176 259.947 67.8082 259.864 68.2514 259.864C68.5412 259.864 68.8139 259.886 69.0696 259.932C69.3281 259.974 69.5199 260.013 69.6449 260.047L69.3125 261.572C69.2358 261.547 69.142 261.526 69.0312 261.509C68.9233 261.491 68.821 261.483 68.7244 261.483C68.4801 261.483 68.3125 261.537 68.2216 261.645C68.1307 261.753 68.0852 261.901 68.0852 262.088V269H66.0014ZM74.0309 262.455V263.989H69.9016V262.455H74.0309ZM70.7667 260.886H72.8505V266.942C72.8505 267.07 72.8704 267.173 72.9102 267.253C72.9528 267.33 73.0138 267.385 73.0934 267.419C73.1729 267.45 73.2681 267.466 73.3789 267.466C73.4585 267.466 73.5423 267.459 73.6303 267.445C73.7212 267.428 73.7894 267.413 73.8349 267.402L74.1502 268.906C74.0508 268.935 73.9102 268.97 73.7283 269.013C73.5494 269.055 73.3349 269.082 73.0849 269.094C72.5962 269.116 72.1772 269.06 71.8278 268.923C71.4812 268.784 71.2156 268.568 71.0309 268.276C70.8491 267.983 70.761 267.615 70.7667 267.172V260.886ZM80.7276 269.124C80.0373 269.124 79.445 268.982 78.9506 268.697C78.4592 268.413 78.0813 268.018 77.8171 267.513C77.5529 267.004 77.4208 266.416 77.4208 265.749C77.4208 265.078 77.5529 264.49 77.8171 263.984C78.0842 263.476 78.4634 263.08 78.9549 262.795C79.4492 262.511 80.0387 262.369 80.7234 262.369C81.3285 262.369 81.8555 262.479 82.3043 262.697C82.756 262.916 83.1083 263.226 83.3612 263.626C83.6168 264.024 83.7518 264.491 83.766 265.028H81.8185C81.7788 264.693 81.6651 264.43 81.4776 264.24C81.293 264.05 81.0515 263.955 80.7532 263.955C80.5117 263.955 80.3001 264.023 80.1183 264.159C79.9364 264.293 79.7944 264.491 79.6921 264.756C79.5927 265.017 79.543 265.341 79.543 265.727C79.543 266.114 79.5927 266.44 79.6921 266.707C79.7944 266.972 79.9364 267.172 80.1183 267.308C80.3001 267.442 80.5117 267.509 80.7532 267.509C80.9464 267.509 81.1168 267.467 81.2646 267.385C81.4151 267.303 81.5387 267.182 81.6353 267.023C81.7319 266.861 81.793 266.665 81.8185 266.435H83.766C83.7461 266.974 83.6112 267.446 83.3612 267.849C83.114 268.253 82.766 268.567 82.3171 268.791C81.8711 269.013 81.3413 269.124 80.7276 269.124ZM87.8878 269.124C87.2003 269.124 86.6094 268.983 86.1151 268.702C85.6236 268.418 85.2443 268.023 84.9773 267.517C84.7131 267.009 84.581 266.419 84.581 265.749C84.581 265.075 84.7131 264.486 84.9773 263.98C85.2443 263.472 85.6236 263.077 86.1151 262.795C86.6094 262.511 87.2003 262.369 87.8878 262.369C88.5753 262.369 89.1648 262.511 89.6562 262.795C90.1506 263.077 90.5298 263.472 90.794 263.98C91.0611 264.486 91.1946 265.075 91.1946 265.749C91.1946 266.419 91.0611 267.009 90.794 267.517C90.5298 268.023 90.1506 268.418 89.6562 268.702C89.1648 268.983 88.5753 269.124 87.8878 269.124ZM87.9006 267.551C88.1506 267.551 88.3622 267.474 88.5355 267.321C88.7088 267.168 88.8409 266.955 88.9318 266.682C89.0256 266.409 89.0724 266.094 89.0724 265.736C89.0724 265.372 89.0256 265.054 88.9318 264.781C88.8409 264.509 88.7088 264.295 88.5355 264.142C88.3622 263.989 88.1506 263.912 87.9006 263.912C87.642 263.912 87.4233 263.989 87.2443 264.142C87.0682 264.295 86.9332 264.509 86.8395 264.781C86.7486 265.054 86.7031 265.372 86.7031 265.736C86.7031 266.094 86.7486 266.409 86.8395 266.682C86.9332 266.955 87.0682 267.168 87.2443 267.321C87.4233 267.474 87.642 267.551 87.9006 267.551ZM92.2621 269V262.455H94.2862V263.648H94.3544C94.4737 263.216 94.6683 262.895 94.9382 262.685C95.2081 262.472 95.522 262.365 95.88 262.365C95.9766 262.365 96.076 262.372 96.1783 262.386C96.2805 262.398 96.3757 262.416 96.4638 262.442V264.253C96.3643 264.219 96.2337 264.192 96.0717 264.172C95.9126 264.152 95.7706 264.142 95.6456 264.142C95.3984 264.142 95.1754 264.197 94.9766 264.308C94.7805 264.416 94.6257 264.568 94.5121 264.764C94.4013 264.957 94.3459 265.185 94.3459 265.446V269H92.2621ZM99.3967 265.267V269H97.3129V262.455H99.2944V263.656H99.3668C99.5117 263.256 99.7589 262.942 100.108 262.714C100.458 262.484 100.874 262.369 101.357 262.369C101.817 262.369 102.216 262.473 102.554 262.68C102.895 262.885 103.159 263.172 103.347 263.541C103.537 263.908 103.631 264.337 103.628 264.828V269H101.544V265.237C101.547 264.874 101.455 264.589 101.267 264.385C101.083 264.18 100.826 264.078 100.496 264.078C100.277 264.078 100.084 264.126 99.9165 264.223C99.7518 264.317 99.6239 264.452 99.533 264.628C99.445 264.804 99.3995 265.017 99.3967 265.267ZM107.978 269.124C107.293 269.124 106.702 268.989 106.205 268.719C105.711 268.446 105.33 268.058 105.063 267.555C104.799 267.05 104.667 266.449 104.667 265.753C104.667 265.077 104.8 264.486 105.067 263.98C105.335 263.472 105.711 263.077 106.197 262.795C106.683 262.511 107.255 262.369 107.914 262.369C108.38 262.369 108.806 262.442 109.192 262.587C109.579 262.732 109.913 262.946 110.194 263.23C110.475 263.514 110.694 263.865 110.85 264.283C111.006 264.697 111.085 265.173 111.085 265.71V266.23H105.396V265.02H109.146C109.143 264.798 109.09 264.601 108.988 264.428C108.886 264.254 108.745 264.119 108.566 264.023C108.39 263.923 108.187 263.874 107.957 263.874C107.724 263.874 107.515 263.926 107.33 264.031C107.146 264.134 106.999 264.274 106.891 264.453C106.783 264.629 106.727 264.83 106.721 265.054V266.286C106.721 266.553 106.773 266.787 106.879 266.989C106.984 267.187 107.133 267.342 107.326 267.453C107.519 267.564 107.749 267.619 108.016 267.619C108.201 267.619 108.369 267.594 108.519 267.543C108.67 267.491 108.799 267.416 108.907 267.317C109.015 267.217 109.096 267.095 109.15 266.95L111.063 267.006C110.984 267.435 110.809 267.808 110.539 268.126C110.272 268.442 109.921 268.687 109.487 268.864C109.052 269.037 108.549 269.124 107.978 269.124ZM112.149 269V262.455H114.173V263.648H114.241C114.36 263.216 114.555 262.895 114.825 262.685C115.095 262.472 115.409 262.365 115.767 262.365C115.863 262.365 115.963 262.372 116.065 262.386C116.167 262.398 116.262 262.416 116.35 262.442V264.253C116.251 264.219 116.12 264.192 115.958 264.172C115.799 264.152 115.657 264.142 115.532 264.142C115.285 264.142 115.062 264.197 114.863 264.308C114.667 264.416 114.512 264.568 114.399 264.764C114.288 264.957 114.233 265.185 114.233 265.446V269H112.149Z" fill="black"/>
<path d="M203.661 269V260.273H207.3C207.953 260.273 208.5 260.365 208.94 260.55C209.384 260.734 209.716 260.993 209.938 261.325C210.162 261.658 210.274 262.043 210.274 262.48C210.274 262.812 210.205 263.109 210.065 263.371C209.926 263.629 209.734 263.844 209.49 264.014C209.246 264.185 208.963 264.304 208.642 264.372V264.457C208.994 264.474 209.32 264.57 209.618 264.743C209.919 264.916 210.161 265.158 210.342 265.467C210.524 265.774 210.615 266.138 210.615 266.558C210.615 267.027 210.496 267.446 210.257 267.815C210.018 268.182 209.673 268.472 209.222 268.685C208.77 268.895 208.222 269 207.577 269H203.661ZM205.77 267.3H207.074C207.531 267.3 207.868 267.213 208.084 267.04C208.303 266.866 208.412 266.625 208.412 266.315C208.412 266.091 208.359 265.898 208.254 265.736C208.149 265.571 208 265.445 207.807 265.357C207.614 265.266 207.382 265.22 207.112 265.22H205.77V267.3ZM205.77 263.861H206.938C207.168 263.861 207.372 263.822 207.551 263.746C207.73 263.669 207.869 263.558 207.969 263.413C208.071 263.268 208.122 263.094 208.122 262.889C208.122 262.597 208.018 262.366 207.811 262.199C207.604 262.031 207.324 261.947 206.972 261.947H205.77V263.861ZM213.474 269.111C213.057 269.111 212.686 269.041 212.362 268.902C212.041 268.76 211.787 268.547 211.599 268.263C211.415 267.976 211.322 267.616 211.322 267.185C211.322 266.821 211.386 266.514 211.514 266.264C211.642 266.014 211.818 265.811 212.043 265.655C212.267 265.499 212.526 265.381 212.818 265.301C213.111 265.219 213.423 265.163 213.756 265.135C214.128 265.101 214.428 265.065 214.655 265.028C214.882 264.989 215.047 264.933 215.149 264.862C215.254 264.788 215.307 264.685 215.307 264.551V264.53C215.307 264.311 215.232 264.142 215.081 264.023C214.93 263.903 214.727 263.844 214.472 263.844C214.196 263.844 213.974 263.903 213.807 264.023C213.639 264.142 213.533 264.307 213.487 264.517L211.565 264.449C211.622 264.051 211.768 263.696 212.004 263.384C212.243 263.068 212.57 262.821 212.984 262.642C213.402 262.46 213.903 262.369 214.489 262.369C214.906 262.369 215.291 262.419 215.643 262.518C215.996 262.615 216.303 262.757 216.564 262.945C216.825 263.129 217.027 263.357 217.169 263.626C217.314 263.896 217.386 264.205 217.386 264.551V269H215.426V268.088H215.375C215.259 268.31 215.109 268.497 214.928 268.651C214.749 268.804 214.537 268.919 214.293 268.996C214.051 269.072 213.778 269.111 213.474 269.111ZM214.118 267.747C214.342 267.747 214.544 267.702 214.723 267.611C214.905 267.52 215.05 267.395 215.158 267.236C215.266 267.074 215.32 266.886 215.32 266.673V266.051C215.26 266.082 215.188 266.111 215.102 266.136C215.02 266.162 214.929 266.186 214.83 266.209C214.73 266.232 214.628 266.251 214.523 266.268C214.418 266.286 214.317 266.301 214.22 266.315C214.024 266.347 213.857 266.395 213.717 266.46C213.581 266.526 213.476 266.611 213.402 266.716C213.331 266.818 213.295 266.94 213.295 267.082C213.295 267.298 213.372 267.463 213.526 267.577C213.682 267.69 213.879 267.747 214.118 267.747ZM221.051 269.094C220.568 269.094 220.129 268.969 219.734 268.719C219.339 268.469 219.024 268.094 218.788 267.594C218.553 267.094 218.435 266.473 218.435 265.732C218.435 264.962 218.557 264.328 218.801 263.831C219.045 263.334 219.365 262.966 219.76 262.727C220.158 262.489 220.585 262.369 221.043 262.369C221.386 262.369 221.68 262.429 221.925 262.548C222.169 262.665 222.371 262.815 222.53 263C222.689 263.185 222.81 263.376 222.892 263.575H222.935V260.273H225.018V269H222.956V267.939H222.892C222.804 268.141 222.679 268.33 222.517 268.506C222.355 268.682 222.152 268.824 221.908 268.932C221.666 269.04 221.381 269.094 221.051 269.094ZM221.776 267.47C222.028 267.47 222.244 267.399 222.423 267.257C222.602 267.112 222.74 266.909 222.837 266.648C222.933 266.386 222.982 266.08 222.982 265.727C222.982 265.369 222.933 265.061 222.837 264.803C222.743 264.544 222.605 264.345 222.423 264.206C222.244 264.067 222.028 263.997 221.776 263.997C221.517 263.997 221.298 264.068 221.119 264.21C220.94 264.352 220.804 264.553 220.71 264.811C220.619 265.07 220.574 265.375 220.574 265.727C220.574 266.08 220.621 266.386 220.714 266.648C220.808 266.909 220.943 267.112 221.119 267.257C221.298 267.399 221.517 267.47 221.776 267.47ZM230.998 260.273V269H228.914V260.273H230.998ZM235.384 269.124C234.7 269.124 234.109 268.989 233.612 268.719C233.117 268.446 232.737 268.058 232.469 267.555C232.205 267.05 232.073 266.449 232.073 265.753C232.073 265.077 232.207 264.486 232.474 263.98C232.741 263.472 233.117 263.077 233.603 262.795C234.089 262.511 234.661 262.369 235.32 262.369C235.786 262.369 236.212 262.442 236.599 262.587C236.985 262.732 237.319 262.946 237.6 263.23C237.881 263.514 238.1 263.865 238.256 264.283C238.413 264.697 238.491 265.173 238.491 265.71V266.23H232.802V265.02H236.552C236.549 264.798 236.496 264.601 236.394 264.428C236.292 264.254 236.151 264.119 235.972 264.023C235.796 263.923 235.593 263.874 235.363 263.874C235.13 263.874 234.921 263.926 234.737 264.031C234.552 264.134 234.406 264.274 234.298 264.453C234.19 264.629 234.133 264.83 234.127 265.054V266.286C234.127 266.553 234.18 266.787 234.285 266.989C234.39 267.187 234.539 267.342 234.732 267.453C234.925 267.564 235.156 267.619 235.423 267.619C235.607 267.619 235.775 267.594 235.925 267.543C236.076 267.491 236.205 267.416 236.313 267.317C236.421 267.217 236.502 267.095 236.556 266.95L238.469 267.006C238.39 267.435 238.215 267.808 237.945 268.126C237.678 268.442 237.327 268.687 236.893 268.864C236.458 269.037 235.955 269.124 235.384 269.124ZM243.275 262.455V263.989H239.065V262.455H243.275ZM239.943 269V262.122C239.943 261.616 240.038 261.197 240.228 260.865C240.419 260.53 240.683 260.28 241.021 260.115C241.359 259.947 241.75 259.864 242.193 259.864C242.483 259.864 242.755 259.886 243.011 259.932C243.27 259.974 243.461 260.013 243.586 260.047L243.254 261.572C243.177 261.547 243.083 261.526 242.973 261.509C242.865 261.491 242.762 261.483 242.666 261.483C242.422 261.483 242.254 261.537 242.163 261.645C242.072 261.753 242.027 261.901 242.027 262.088V269H239.943ZM247.972 262.455V263.989H243.843V262.455H247.972ZM244.708 260.886H246.792V266.942C246.792 267.07 246.812 267.173 246.852 267.253C246.894 267.33 246.955 267.385 247.035 267.419C247.114 267.45 247.21 267.466 247.32 267.466C247.4 267.466 247.484 267.459 247.572 267.445C247.663 267.428 247.731 267.413 247.776 267.402L248.092 268.906C247.992 268.935 247.852 268.97 247.67 269.013C247.491 269.055 247.276 269.082 247.026 269.094C246.538 269.116 246.119 269.06 245.769 268.923C245.423 268.784 245.157 268.568 244.972 268.276C244.79 267.983 244.702 267.615 244.708 267.172V260.886ZM254.669 269.124C253.979 269.124 253.386 268.982 252.892 268.697C252.401 268.413 252.023 268.018 251.759 267.513C251.494 267.004 251.362 266.416 251.362 265.749C251.362 265.078 251.494 264.49 251.759 263.984C252.026 263.476 252.405 263.08 252.896 262.795C253.391 262.511 253.98 262.369 254.665 262.369C255.27 262.369 255.797 262.479 256.246 262.697C256.697 262.916 257.05 263.226 257.303 263.626C257.558 264.024 257.693 264.491 257.707 265.028H255.76C255.72 264.693 255.607 264.43 255.419 264.24C255.234 264.05 254.993 263.955 254.695 263.955C254.453 263.955 254.241 264.023 254.06 264.159C253.878 264.293 253.736 264.491 253.634 264.756C253.534 265.017 253.484 265.341 253.484 265.727C253.484 266.114 253.534 266.44 253.634 266.707C253.736 266.972 253.878 267.172 254.06 267.308C254.241 267.442 254.453 267.509 254.695 267.509C254.888 267.509 255.058 267.467 255.206 267.385C255.357 267.303 255.48 267.182 255.577 267.023C255.673 266.861 255.734 266.665 255.76 266.435H257.707C257.688 266.974 257.553 267.446 257.303 267.849C257.055 268.253 256.707 268.567 256.259 268.791C255.813 269.013 255.283 269.124 254.669 269.124ZM261.829 269.124C261.142 269.124 260.551 268.983 260.056 268.702C259.565 268.418 259.186 268.023 258.919 267.517C258.654 267.009 258.522 266.419 258.522 265.749C258.522 265.075 258.654 264.486 258.919 263.98C259.186 263.472 259.565 263.077 260.056 262.795C260.551 262.511 261.142 262.369 261.829 262.369C262.517 262.369 263.106 262.511 263.598 262.795C264.092 263.077 264.471 263.472 264.735 263.98C265.002 264.486 265.136 265.075 265.136 265.749C265.136 266.419 265.002 267.009 264.735 267.517C264.471 268.023 264.092 268.418 263.598 268.702C263.106 268.983 262.517 269.124 261.829 269.124ZM261.842 267.551C262.092 267.551 262.304 267.474 262.477 267.321C262.65 267.168 262.782 266.955 262.873 266.682C262.967 266.409 263.014 266.094 263.014 265.736C263.014 265.372 262.967 265.054 262.873 264.781C262.782 264.509 262.65 264.295 262.477 264.142C262.304 263.989 262.092 263.912 261.842 263.912C261.583 263.912 261.365 263.989 261.186 264.142C261.01 264.295 260.875 264.509 260.781 264.781C260.69 265.054 260.645 265.372 260.645 265.736C260.645 266.094 260.69 266.409 260.781 266.682C260.875 266.955 261.01 267.168 261.186 267.321C261.365 267.474 261.583 267.551 261.842 267.551ZM266.203 269V262.455H268.228V263.648H268.296C268.415 263.216 268.61 262.895 268.88 262.685C269.15 262.472 269.463 262.365 269.821 262.365C269.918 262.365 270.017 262.372 270.12 262.386C270.222 262.398 270.317 262.416 270.405 262.442V264.253C270.306 264.219 270.175 264.192 270.013 264.172C269.854 264.152 269.712 264.142 269.587 264.142C269.34 264.142 269.117 264.197 268.918 264.308C268.722 264.416 268.567 264.568 268.453 264.764C268.343 264.957 268.287 265.185 268.287 265.446V269H266.203ZM273.338 265.267V269H271.254V262.455H273.236V263.656H273.308C273.453 263.256 273.7 262.942 274.05 262.714C274.399 262.484 274.815 262.369 275.298 262.369C275.759 262.369 276.158 262.473 276.496 262.68C276.837 262.885 277.101 263.172 277.288 263.541C277.479 263.908 277.572 264.337 277.57 264.828V269H275.486V265.237C275.489 264.874 275.396 264.589 275.209 264.385C275.024 264.18 274.767 264.078 274.438 264.078C274.219 264.078 274.026 264.126 273.858 264.223C273.693 264.317 273.565 264.452 273.474 264.628C273.386 264.804 273.341 265.017 273.338 265.267ZM281.919 269.124C281.235 269.124 280.644 268.989 280.147 268.719C279.652 268.446 279.272 268.058 279.005 267.555C278.74 267.05 278.608 266.449 278.608 265.753C278.608 265.077 278.742 264.486 279.009 263.98C279.276 263.472 279.652 263.077 280.138 262.795C280.624 262.511 281.196 262.369 281.855 262.369C282.321 262.369 282.748 262.442 283.134 262.587C283.52 262.732 283.854 262.946 284.135 263.23C284.417 263.514 284.635 263.865 284.792 264.283C284.948 264.697 285.026 265.173 285.026 265.71V266.23H279.337V265.02H283.087C283.084 264.798 283.032 264.601 282.929 264.428C282.827 264.254 282.686 264.119 282.507 264.023C282.331 263.923 282.128 263.874 281.898 263.874C281.665 263.874 281.456 263.926 281.272 264.031C281.087 264.134 280.941 264.274 280.833 264.453C280.725 264.629 280.668 264.83 280.662 265.054V266.286C280.662 266.553 280.715 266.787 280.82 266.989C280.925 267.187 281.074 267.342 281.267 267.453C281.461 267.564 281.691 267.619 281.958 267.619C282.142 267.619 282.31 267.594 282.461 267.543C282.611 267.491 282.74 267.416 282.848 267.317C282.956 267.217 283.037 267.095 283.091 266.95L285.005 267.006C284.925 267.435 284.75 267.808 284.48 268.126C284.213 268.442 283.863 268.687 283.428 268.864C282.993 269.037 282.49 269.124 281.919 269.124ZM286.09 269V262.455H288.114V263.648H288.183C288.302 263.216 288.496 262.895 288.766 262.685C289.036 262.472 289.35 262.365 289.708 262.365C289.805 262.365 289.904 262.372 290.006 262.386C290.109 262.398 290.204 262.416 290.292 262.442V264.253C290.192 264.219 290.062 264.192 289.9 264.172C289.741 264.152 289.599 264.142 289.474 264.142C289.227 264.142 289.004 264.197 288.805 264.308C288.609 264.416 288.454 264.568 288.34 264.764C288.229 264.957 288.174 265.185 288.174 265.446V269H286.09Z" fill="black"/>
<path d="M512.661 269V260.273H516.3C516.953 260.273 517.5 260.365 517.94 260.55C518.384 260.734 518.716 260.993 518.938 261.325C519.162 261.658 519.274 262.043 519.274 262.48C519.274 262.812 519.205 263.109 519.065 263.371C518.926 263.629 518.734 263.844 518.49 264.014C518.246 264.185 517.963 264.304 517.642 264.372V264.457C517.994 264.474 518.32 264.57 518.618 264.743C518.919 264.916 519.161 265.158 519.342 265.467C519.524 265.774 519.615 266.138 519.615 266.558C519.615 267.027 519.496 267.446 519.257 267.815C519.018 268.182 518.673 268.472 518.222 268.685C517.77 268.895 517.222 269 516.577 269H512.661ZM514.77 267.3H516.074C516.531 267.3 516.868 267.213 517.084 267.04C517.303 266.866 517.412 266.625 517.412 266.315C517.412 266.091 517.359 265.898 517.254 265.736C517.149 265.571 517 265.445 516.807 265.357C516.614 265.266 516.382 265.22 516.112 265.22H514.77V267.3ZM514.77 263.861H515.938C516.168 263.861 516.372 263.822 516.551 263.746C516.73 263.669 516.869 263.558 516.969 263.413C517.071 263.268 517.122 263.094 517.122 262.889C517.122 262.597 517.018 262.366 516.811 262.199C516.604 262.031 516.324 261.947 515.972 261.947H514.77V263.861ZM522.474 269.111C522.057 269.111 521.686 269.041 521.362 268.902C521.041 268.76 520.787 268.547 520.599 268.263C520.415 267.976 520.322 267.616 520.322 267.185C520.322 266.821 520.386 266.514 520.514 266.264C520.642 266.014 520.818 265.811 521.043 265.655C521.267 265.499 521.526 265.381 521.818 265.301C522.111 265.219 522.423 265.163 522.756 265.135C523.128 265.101 523.428 265.065 523.655 265.028C523.882 264.989 524.047 264.933 524.149 264.862C524.254 264.788 524.307 264.685 524.307 264.551V264.53C524.307 264.311 524.232 264.142 524.081 264.023C523.93 263.903 523.727 263.844 523.472 263.844C523.196 263.844 522.974 263.903 522.807 264.023C522.639 264.142 522.533 264.307 522.487 264.517L520.565 264.449C520.622 264.051 520.768 263.696 521.004 263.384C521.243 263.068 521.57 262.821 521.984 262.642C522.402 262.46 522.903 262.369 523.489 262.369C523.906 262.369 524.291 262.419 524.643 262.518C524.996 262.615 525.303 262.757 525.564 262.945C525.825 263.129 526.027 263.357 526.169 263.626C526.314 263.896 526.386 264.205 526.386 264.551V269H524.426V268.088H524.375C524.259 268.31 524.109 268.497 523.928 268.651C523.749 268.804 523.537 268.919 523.293 268.996C523.051 269.072 522.778 269.111 522.474 269.111ZM523.118 267.747C523.342 267.747 523.544 267.702 523.723 267.611C523.905 267.52 524.05 267.395 524.158 267.236C524.266 267.074 524.32 266.886 524.32 266.673V266.051C524.26 266.082 524.188 266.111 524.102 266.136C524.02 266.162 523.929 266.186 523.83 266.209C523.73 266.232 523.628 266.251 523.523 266.268C523.418 266.286 523.317 266.301 523.22 266.315C523.024 266.347 522.857 266.395 522.717 266.46C522.581 266.526 522.476 266.611 522.402 266.716C522.331 266.818 522.295 266.94 522.295 267.082C522.295 267.298 522.372 267.463 522.526 267.577C522.682 267.69 522.879 267.747 523.118 267.747ZM530.051 269.094C529.568 269.094 529.129 268.969 528.734 268.719C528.339 268.469 528.024 268.094 527.788 267.594C527.553 267.094 527.435 266.473 527.435 265.732C527.435 264.962 527.557 264.328 527.801 263.831C528.045 263.334 528.365 262.966 528.76 262.727C529.158 262.489 529.585 262.369 530.043 262.369C530.386 262.369 530.68 262.429 530.925 262.548C531.169 262.665 531.371 262.815 531.53 263C531.689 263.185 531.81 263.376 531.892 263.575H531.935V260.273H534.018V269H531.956V267.939H531.892C531.804 268.141 531.679 268.33 531.517 268.506C531.355 268.682 531.152 268.824 530.908 268.932C530.666 269.04 530.381 269.094 530.051 269.094ZM530.776 267.47C531.028 267.47 531.244 267.399 531.423 267.257C531.602 267.112 531.74 266.909 531.837 266.648C531.933 266.386 531.982 266.08 531.982 265.727C531.982 265.369 531.933 265.061 531.837 264.803C531.743 264.544 531.605 264.345 531.423 264.206C531.244 264.067 531.028 263.997 530.776 263.997C530.517 263.997 530.298 264.068 530.119 264.21C529.94 264.352 529.804 264.553 529.71 264.811C529.619 265.07 529.574 265.375 529.574 265.727C529.574 266.08 529.621 266.386 529.714 266.648C529.808 266.909 529.943 267.112 530.119 267.257C530.298 267.399 530.517 267.47 530.776 267.47ZM537.914 269V262.455H539.939V263.648H540.007C540.126 263.216 540.321 262.895 540.591 262.685C540.86 262.472 541.174 262.365 541.532 262.365C541.629 262.365 541.728 262.372 541.831 262.386C541.933 262.398 542.028 262.416 542.116 262.442V264.253C542.017 264.219 541.886 264.192 541.724 264.172C541.565 264.152 541.423 264.142 541.298 264.142C541.051 264.142 540.828 264.197 540.629 264.308C540.433 264.416 540.278 264.568 540.164 264.764C540.054 264.957 539.998 265.185 539.998 265.446V269H537.914ZM542.965 269V262.455H545.049V269H542.965ZM544.009 261.692C543.717 261.692 543.465 261.595 543.255 261.402C543.045 261.206 542.94 260.97 542.94 260.695C542.94 260.422 543.045 260.189 543.255 259.996C543.465 259.8 543.717 259.702 544.009 259.702C544.305 259.702 544.556 259.8 544.763 259.996C544.974 260.189 545.079 260.422 545.079 260.695C545.079 260.97 544.974 261.206 544.763 261.402C544.556 261.595 544.305 261.692 544.009 261.692ZM549.426 271.591C548.804 271.591 548.272 271.504 547.828 271.331C547.385 271.158 547.037 270.92 546.784 270.619C546.532 270.318 546.38 269.977 546.328 269.597L548.301 269.486C548.338 269.619 548.407 269.736 548.506 269.835C548.608 269.935 548.74 270.011 548.902 270.065C549.067 270.119 549.26 270.146 549.482 270.146C549.831 270.146 550.12 270.061 550.347 269.891C550.577 269.723 550.692 269.429 550.692 269.009V267.858H550.62C550.537 268.06 550.412 268.24 550.245 268.399C550.077 268.558 549.868 268.683 549.618 268.774C549.371 268.865 549.087 268.911 548.766 268.911C548.289 268.911 547.851 268.8 547.453 268.578C547.059 268.354 546.742 268.007 546.503 267.538C546.267 267.067 546.15 266.46 546.15 265.719C546.15 264.955 546.272 264.325 546.516 263.831C546.76 263.334 547.08 262.966 547.475 262.727C547.873 262.489 548.3 262.369 548.757 262.369C549.101 262.369 549.395 262.429 549.64 262.548C549.887 262.665 550.09 262.815 550.249 263C550.408 263.185 550.529 263.376 550.611 263.575H550.671V262.455H552.746V269.026C552.746 269.58 552.607 270.047 552.328 270.428C552.05 270.808 551.661 271.097 551.161 271.293C550.661 271.491 550.083 271.591 549.426 271.591ZM549.49 267.393C549.743 267.393 549.959 267.327 550.138 267.193C550.317 267.06 550.455 266.868 550.551 266.618C550.648 266.368 550.696 266.068 550.696 265.719C550.696 265.364 550.648 265.058 550.551 264.803C550.458 264.544 550.32 264.345 550.138 264.206C549.959 264.067 549.743 263.997 549.49 263.997C549.232 263.997 549.013 264.068 548.834 264.21C548.655 264.352 548.519 264.553 548.425 264.811C548.334 265.067 548.289 265.369 548.289 265.719C548.289 266.068 548.336 266.368 548.429 266.618C548.523 266.868 548.658 267.06 548.834 267.193C549.013 267.327 549.232 267.393 549.49 267.393ZM556.158 265.267V269H554.075V260.273H556.09V263.656H556.163C556.31 263.253 556.552 262.937 556.887 262.71C557.225 262.483 557.638 262.369 558.127 262.369C558.587 262.369 558.988 262.472 559.329 262.676C559.67 262.878 559.934 263.163 560.121 263.533C560.312 263.902 560.406 264.334 560.403 264.828V269H558.319V265.237C558.322 264.874 558.231 264.589 558.046 264.385C557.862 264.18 557.602 264.078 557.266 264.078C557.048 264.078 556.854 264.126 556.687 264.223C556.522 264.317 556.393 264.452 556.299 264.628C556.208 264.804 556.161 265.017 556.158 265.267ZM565.398 262.455V263.989H561.269V262.455H565.398ZM562.134 260.886H564.218V266.942C564.218 267.07 564.238 267.173 564.277 267.253C564.32 267.33 564.381 267.385 564.461 267.419C564.54 267.45 564.635 267.466 564.746 267.466C564.826 267.466 564.909 267.459 564.998 267.445C565.088 267.428 565.157 267.413 565.202 267.402L565.517 268.906C565.418 268.935 565.277 268.97 565.096 269.013C564.917 269.055 564.702 269.082 564.452 269.094C563.963 269.116 563.544 269.06 563.195 268.923C562.848 268.784 562.583 268.568 562.398 268.276C562.216 267.983 562.128 267.615 562.134 267.172V260.886ZM572.095 269.124C571.404 269.124 570.812 268.982 570.318 268.697C569.826 268.413 569.449 268.018 569.184 267.513C568.92 267.004 568.788 266.416 568.788 265.749C568.788 265.078 568.92 264.49 569.184 263.984C569.451 263.476 569.831 263.08 570.322 262.795C570.816 262.511 571.406 262.369 572.091 262.369C572.696 262.369 573.223 262.479 573.672 262.697C574.123 262.916 574.475 263.226 574.728 263.626C574.984 264.024 575.119 264.491 575.133 265.028H573.186C573.146 264.693 573.032 264.43 572.845 264.24C572.66 264.05 572.419 263.955 572.12 263.955C571.879 263.955 571.667 264.023 571.485 264.159C571.304 264.293 571.162 264.491 571.059 264.756C570.96 265.017 570.91 265.341 570.91 265.727C570.91 266.114 570.96 266.44 571.059 266.707C571.162 266.972 571.304 267.172 571.485 267.308C571.667 267.442 571.879 267.509 572.12 267.509C572.314 267.509 572.484 267.467 572.632 267.385C572.782 267.303 572.906 267.182 573.002 267.023C573.099 266.861 573.16 266.665 573.186 266.435H575.133C575.113 266.974 574.978 267.446 574.728 267.849C574.481 268.253 574.133 268.567 573.684 268.791C573.238 269.013 572.708 269.124 572.095 269.124ZM579.255 269.124C578.567 269.124 577.977 268.983 577.482 268.702C576.991 268.418 576.612 268.023 576.344 267.517C576.08 267.009 575.948 266.419 575.948 265.749C575.948 265.075 576.08 264.486 576.344 263.98C576.612 263.472 576.991 263.077 577.482 262.795C577.977 262.511 578.567 262.369 579.255 262.369C579.942 262.369 580.532 262.511 581.023 262.795C581.518 263.077 581.897 263.472 582.161 263.98C582.428 264.486 582.562 265.075 582.562 265.749C582.562 266.419 582.428 267.009 582.161 267.517C581.897 268.023 581.518 268.418 581.023 268.702C580.532 268.983 579.942 269.124 579.255 269.124ZM579.268 267.551C579.518 267.551 579.729 267.474 579.903 267.321C580.076 267.168 580.208 266.955 580.299 266.682C580.393 266.409 580.44 266.094 580.44 265.736C580.44 265.372 580.393 265.054 580.299 264.781C580.208 264.509 580.076 264.295 579.903 264.142C579.729 263.989 579.518 263.912 579.268 263.912C579.009 263.912 578.79 263.989 578.612 264.142C578.435 264.295 578.3 264.509 578.207 264.781C578.116 265.054 578.07 265.372 578.07 265.736C578.07 266.094 578.116 266.409 578.207 266.682C578.3 266.955 578.435 267.168 578.612 267.321C578.79 267.474 579.009 267.551 579.268 267.551ZM583.629 269V262.455H585.653V263.648H585.722C585.841 263.216 586.036 262.895 586.305 262.685C586.575 262.472 586.889 262.365 587.247 262.365C587.344 262.365 587.443 262.372 587.545 262.386C587.648 262.398 587.743 262.416 587.831 262.442V264.253C587.732 264.219 587.601 264.192 587.439 264.172C587.28 264.152 587.138 264.142 587.013 264.142C586.766 264.142 586.543 264.197 586.344 264.308C586.148 264.416 585.993 264.568 585.879 264.764C585.768 264.957 585.713 265.185 585.713 265.446V269H583.629ZM590.764 265.267V269H588.68V262.455H590.662V263.656H590.734C590.879 263.256 591.126 262.942 591.475 262.714C591.825 262.484 592.241 262.369 592.724 262.369C593.184 262.369 593.583 262.473 593.922 262.68C594.262 262.885 594.527 263.172 594.714 263.541C594.904 263.908 594.998 264.337 594.995 264.828V269H592.912V265.237C592.914 264.874 592.822 264.589 592.635 264.385C592.45 264.18 592.193 264.078 591.863 264.078C591.645 264.078 591.451 264.126 591.284 264.223C591.119 264.317 590.991 264.452 590.9 264.628C590.812 264.804 590.767 265.017 590.764 265.267ZM599.345 269.124C598.661 269.124 598.07 268.989 597.572 268.719C597.078 268.446 596.697 268.058 596.43 267.555C596.166 267.05 596.034 266.449 596.034 265.753C596.034 265.077 596.168 264.486 596.435 263.98C596.702 263.472 597.078 263.077 597.564 262.795C598.05 262.511 598.622 262.369 599.281 262.369C599.747 262.369 600.173 262.442 600.56 262.587C600.946 262.732 601.28 262.946 601.561 263.23C601.842 263.514 602.061 263.865 602.217 264.283C602.374 264.697 602.452 265.173 602.452 265.71V266.23H596.763V265.02H600.513C600.51 264.798 600.457 264.601 600.355 264.428C600.253 264.254 600.112 264.119 599.933 264.023C599.757 263.923 599.554 263.874 599.324 263.874C599.091 263.874 598.882 263.926 598.697 264.031C598.513 264.134 598.366 264.274 598.259 264.453C598.151 264.629 598.094 264.83 598.088 265.054V266.286C598.088 266.553 598.141 266.787 598.246 266.989C598.351 267.187 598.5 267.342 598.693 267.453C598.886 267.564 599.116 267.619 599.384 267.619C599.568 267.619 599.736 267.594 599.886 267.543C600.037 267.491 600.166 267.416 600.274 267.317C600.382 267.217 600.463 267.095 600.517 266.95L602.43 267.006C602.351 267.435 602.176 267.808 601.906 268.126C601.639 268.442 601.288 268.687 600.854 268.864C600.419 269.037 599.916 269.124 599.345 269.124ZM603.516 269V262.455H605.54V263.648H605.608C605.728 263.216 605.922 262.895 606.192 262.685C606.462 262.472 606.776 262.365 607.134 262.365C607.23 262.365 607.33 262.372 607.432 262.386C607.534 262.398 607.63 262.416 607.718 262.442V264.253C607.618 264.219 607.488 264.192 607.326 264.172C607.167 264.152 607.025 264.142 606.9 264.142C606.652 264.142 606.429 264.197 606.23 264.308C606.034 264.416 605.88 264.568 605.766 264.764C605.655 264.957 605.6 265.185 605.6 265.446V269H603.516Z" fill="black"/>
<defs>
<linearGradient id="paint0_linear_54_84" x1="643.5" y1="217" x2="731.5" y2="275.5" gradientUnits="userSpaceOnUse">
<stop stop-color="#1AAC20"/>
<stop offset="1" stop-color="#737373" stop-opacity="0"/>
</linearGradient>
<linearGradient id="paint1_linear_54_84" x1="492.5" y1="217" x2="580.5" y2="275.5" gradientUnits="userSpaceOnUse">
<stop stop-color="#FF0000"/>
<stop offset="1" stop-color="#737373" stop-opacity="0"/>
</linearGradient>
<linearGradient id="paint2_linear_54_84" x1="136" y1="217" x2="41.5" y2="278" gradientUnits="userSpaceOnUse">
<stop stop-color="#1AAC20"/>
<stop offset="1" stop-color="#737373" stop-opacity="0"/>
</linearGradient>
<linearGradient id="paint3_linear_54_84" x1="315" y1="217" x2="220.5" y2="278" gradientUnits="userSpaceOnUse">
<stop stop-color="#FF0000"/>
<stop offset="1" stop-color="#737373" stop-opacity="0"/>
</linearGradient>
<linearGradient id="paint4_linear_54_84" x1="136" y1="217" x2="41.5" y2="278" gradientUnits="userSpaceOnUse">
<stop stop-color="#1AAC20"/>
<stop offset="1" stop-color="#737373" stop-opacity="0"/>
</linearGradient>
<linearGradient id="paint5_linear_54_84" x1="315" y1="217" x2="220.5" y2="278" gradientUnits="userSpaceOnUse">
<stop stop-color="#FF0000"/>
<stop offset="1" stop-color="#737373" stop-opacity="0"/>
</linearGradient>
</defs>
</svg>
