<svg width="443" height="370" viewBox="0 0 443 370" fill="none" xmlns="http://www.w3.org/2000/svg">
<rect x="114.5" y="1.5" width="215" height="146" fill="#D9D9D9" stroke="black" stroke-width="3"/>
<rect x="114.5" y="150.5" width="215" height="146" fill="#D9D9D9" stroke="black" stroke-width="3"/>
<path d="M194.661 66.2727H197.273L199.489 71.6761H199.591L201.807 66.2727H204.419V75H202.365V69.6392H202.293L200.196 74.9446H198.884L196.787 69.6094H196.714V75H194.661V66.2727ZM208.79 75.1236C208.103 75.1236 207.512 74.983 207.017 74.7017C206.526 74.4176 206.147 74.0227 205.88 73.517C205.615 73.0085 205.483 72.419 205.483 71.7486C205.483 71.0753 205.615 70.4858 205.88 69.9801C206.147 69.4716 206.526 69.0767 207.017 68.7955C207.512 68.5114 208.103 68.3693 208.79 68.3693C209.478 68.3693 210.067 68.5114 210.559 68.7955C211.053 69.0767 211.432 69.4716 211.696 69.9801C211.963 70.4858 212.097 71.0753 212.097 71.7486C212.097 72.419 211.963 73.0085 211.696 73.517C211.432 74.0227 211.053 74.4176 210.559 74.7017C210.067 74.983 209.478 75.1236 208.79 75.1236ZM208.803 73.5511C209.053 73.5511 209.265 73.4744 209.438 73.321C209.611 73.1676 209.743 72.9545 209.834 72.6818C209.928 72.4091 209.975 72.0937 209.975 71.7358C209.975 71.3722 209.928 71.054 209.834 70.7812C209.743 70.5085 209.611 70.2955 209.438 70.142C209.265 69.9886 209.053 69.9119 208.803 69.9119C208.544 69.9119 208.326 69.9886 208.147 70.142C207.971 70.2955 207.836 70.5085 207.742 70.7812C207.651 71.054 207.605 71.3722 207.605 71.7358C207.605 72.0937 207.651 72.4091 207.742 72.6818C207.836 72.9545 207.971 73.1676 208.147 73.321C208.326 73.4744 208.544 73.5511 208.803 73.5511ZM215.248 71.267V75H213.164V68.4545H215.146V69.6562H215.218C215.363 69.2557 215.61 68.9418 215.96 68.7145C216.309 68.4844 216.725 68.3693 217.208 68.3693C217.669 68.3693 218.068 68.473 218.406 68.6804C218.747 68.8849 219.011 69.1719 219.199 69.5412C219.389 69.9077 219.483 70.3366 219.48 70.8281V75H217.396V71.2372C217.399 70.8736 217.306 70.5895 217.119 70.3849C216.934 70.1804 216.677 70.0781 216.348 70.0781C216.129 70.0781 215.936 70.1264 215.768 70.223C215.603 70.3168 215.475 70.4517 215.385 70.6278C215.297 70.804 215.251 71.017 215.248 71.267ZM220.77 75V68.4545H222.854V75H220.77ZM221.814 67.6918C221.521 67.6918 221.27 67.5952 221.06 67.402C220.849 67.206 220.744 66.9702 220.744 66.6946C220.744 66.4219 220.849 66.1889 221.06 65.9957C221.27 65.7997 221.521 65.7017 221.814 65.7017C222.109 65.7017 222.361 65.7997 222.568 65.9957C222.778 66.1889 222.884 66.4219 222.884 66.6946C222.884 66.9702 222.778 67.206 222.568 67.402C222.361 67.5952 222.109 67.6918 221.814 67.6918ZM227.875 68.4545V69.9886H223.745V68.4545H227.875ZM224.61 66.8864H226.694V72.9418C226.694 73.0696 226.714 73.1733 226.754 73.2528C226.797 73.3295 226.858 73.3849 226.937 73.419C227.017 73.4503 227.112 73.4659 227.223 73.4659C227.302 73.4659 227.386 73.4588 227.474 73.4446C227.565 73.4276 227.633 73.4134 227.679 73.402L227.994 74.9062C227.895 74.9347 227.754 74.9702 227.572 75.0128C227.393 75.0554 227.179 75.0824 226.929 75.0938C226.44 75.1165 226.021 75.0597 225.672 74.9233C225.325 74.7841 225.059 74.5682 224.875 74.2756C224.693 73.983 224.605 73.6151 224.61 73.1719V66.8864ZM231.923 75.1236C231.235 75.1236 230.645 74.983 230.15 74.7017C229.659 74.4176 229.279 74.0227 229.012 73.517C228.748 73.0085 228.616 72.419 228.616 71.7486C228.616 71.0753 228.748 70.4858 229.012 69.9801C229.279 69.4716 229.659 69.0767 230.15 68.7955C230.645 68.5114 231.235 68.3693 231.923 68.3693C232.61 68.3693 233.2 68.5114 233.691 68.7955C234.186 69.0767 234.565 69.4716 234.829 69.9801C235.096 70.4858 235.23 71.0753 235.23 71.7486C235.23 72.419 235.096 73.0085 234.829 73.517C234.565 74.0227 234.186 74.4176 233.691 74.7017C233.2 74.983 232.61 75.1236 231.923 75.1236ZM231.936 73.5511C232.186 73.5511 232.397 73.4744 232.571 73.321C232.744 73.1676 232.876 72.9545 232.967 72.6818C233.061 72.4091 233.108 72.0937 233.108 71.7358C233.108 71.3722 233.061 71.054 232.967 70.7812C232.876 70.5085 232.744 70.2955 232.571 70.142C232.397 69.9886 232.186 69.9119 231.936 69.9119C231.677 69.9119 231.458 69.9886 231.279 70.142C231.103 70.2955 230.968 70.5085 230.875 70.7812C230.784 71.054 230.738 71.3722 230.738 71.7358C230.738 72.0937 230.784 72.4091 230.875 72.6818C230.968 72.9545 231.103 73.1676 231.279 73.321C231.458 73.4744 231.677 73.5511 231.936 73.5511ZM236.297 75V68.4545H238.321V69.6477H238.39C238.509 69.2159 238.703 68.8949 238.973 68.6847C239.243 68.4716 239.557 68.3651 239.915 68.3651C240.012 68.3651 240.111 68.3722 240.213 68.3864C240.316 68.3977 240.411 68.4162 240.499 68.4418V70.2528C240.4 70.2187 240.269 70.1918 240.107 70.1719C239.948 70.152 239.806 70.142 239.681 70.142C239.434 70.142 239.211 70.1974 239.012 70.3082C238.816 70.4162 238.661 70.5682 238.547 70.7642C238.436 70.9574 238.381 71.1847 238.381 71.446V75H236.297ZM247.945 66.2727V75H245.839V68.2415H245.788L243.837 69.4347V67.6108L245.989 66.2727H247.945Z" fill="black"/>
<path d="M194.661 219.273H197.273L199.489 224.676H199.591L201.807 219.273H204.419V228H202.365V222.639H202.293L200.196 227.945H198.884L196.787 222.609H196.714V228H194.661V219.273ZM208.79 228.124C208.103 228.124 207.512 227.983 207.017 227.702C206.526 227.418 206.147 227.023 205.88 226.517C205.615 226.009 205.483 225.419 205.483 224.749C205.483 224.075 205.615 223.486 205.88 222.98C206.147 222.472 206.526 222.077 207.017 221.795C207.512 221.511 208.103 221.369 208.79 221.369C209.478 221.369 210.067 221.511 210.559 221.795C211.053 222.077 211.432 222.472 211.696 222.98C211.963 223.486 212.097 224.075 212.097 224.749C212.097 225.419 211.963 226.009 211.696 226.517C211.432 227.023 211.053 227.418 210.559 227.702C210.067 227.983 209.478 228.124 208.79 228.124ZM208.803 226.551C209.053 226.551 209.265 226.474 209.438 226.321C209.611 226.168 209.743 225.955 209.834 225.682C209.928 225.409 209.975 225.094 209.975 224.736C209.975 224.372 209.928 224.054 209.834 223.781C209.743 223.509 209.611 223.295 209.438 223.142C209.265 222.989 209.053 222.912 208.803 222.912C208.544 222.912 208.326 222.989 208.147 223.142C207.971 223.295 207.836 223.509 207.742 223.781C207.651 224.054 207.605 224.372 207.605 224.736C207.605 225.094 207.651 225.409 207.742 225.682C207.836 225.955 207.971 226.168 208.147 226.321C208.326 226.474 208.544 226.551 208.803 226.551ZM215.248 224.267V228H213.164V221.455H215.146V222.656H215.218C215.363 222.256 215.61 221.942 215.96 221.714C216.309 221.484 216.725 221.369 217.208 221.369C217.669 221.369 218.068 221.473 218.406 221.68C218.747 221.885 219.011 222.172 219.199 222.541C219.389 222.908 219.483 223.337 219.48 223.828V228H217.396V224.237C217.399 223.874 217.306 223.589 217.119 223.385C216.934 223.18 216.677 223.078 216.348 223.078C216.129 223.078 215.936 223.126 215.768 223.223C215.603 223.317 215.475 223.452 215.385 223.628C215.297 223.804 215.251 224.017 215.248 224.267ZM220.77 228V221.455H222.854V228H220.77ZM221.814 220.692C221.521 220.692 221.27 220.595 221.06 220.402C220.849 220.206 220.744 219.97 220.744 219.695C220.744 219.422 220.849 219.189 221.06 218.996C221.27 218.8 221.521 218.702 221.814 218.702C222.109 218.702 222.361 218.8 222.568 218.996C222.778 219.189 222.884 219.422 222.884 219.695C222.884 219.97 222.778 220.206 222.568 220.402C222.361 220.595 222.109 220.692 221.814 220.692ZM227.875 221.455V222.989H223.745V221.455H227.875ZM224.61 219.886H226.694V225.942C226.694 226.07 226.714 226.173 226.754 226.253C226.797 226.33 226.858 226.385 226.937 226.419C227.017 226.45 227.112 226.466 227.223 226.466C227.302 226.466 227.386 226.459 227.474 226.445C227.565 226.428 227.633 226.413 227.679 226.402L227.994 227.906C227.895 227.935 227.754 227.97 227.572 228.013C227.393 228.055 227.179 228.082 226.929 228.094C226.44 228.116 226.021 228.06 225.672 227.923C225.325 227.784 225.059 227.568 224.875 227.276C224.693 226.983 224.605 226.615 224.61 226.172V219.886ZM231.923 228.124C231.235 228.124 230.645 227.983 230.15 227.702C229.659 227.418 229.279 227.023 229.012 226.517C228.748 226.009 228.616 225.419 228.616 224.749C228.616 224.075 228.748 223.486 229.012 222.98C229.279 222.472 229.659 222.077 230.15 221.795C230.645 221.511 231.235 221.369 231.923 221.369C232.61 221.369 233.2 221.511 233.691 221.795C234.186 222.077 234.565 222.472 234.829 222.98C235.096 223.486 235.23 224.075 235.23 224.749C235.23 225.419 235.096 226.009 234.829 226.517C234.565 227.023 234.186 227.418 233.691 227.702C233.2 227.983 232.61 228.124 231.923 228.124ZM231.936 226.551C232.186 226.551 232.397 226.474 232.571 226.321C232.744 226.168 232.876 225.955 232.967 225.682C233.061 225.409 233.108 225.094 233.108 224.736C233.108 224.372 233.061 224.054 232.967 223.781C232.876 223.509 232.744 223.295 232.571 223.142C232.397 222.989 232.186 222.912 231.936 222.912C231.677 222.912 231.458 222.989 231.279 223.142C231.103 223.295 230.968 223.509 230.875 223.781C230.784 224.054 230.738 224.372 230.738 224.736C230.738 225.094 230.784 225.409 230.875 225.682C230.968 225.955 231.103 226.168 231.279 226.321C231.458 226.474 231.677 226.551 231.936 226.551ZM236.297 228V221.455H238.321V222.648H238.39C238.509 222.216 238.703 221.895 238.973 221.685C239.243 221.472 239.557 221.365 239.915 221.365C240.012 221.365 240.111 221.372 240.213 221.386C240.316 221.398 240.411 221.416 240.499 221.442V223.253C240.4 223.219 240.269 223.192 240.107 223.172C239.948 223.152 239.806 223.142 239.681 223.142C239.434 223.142 239.211 223.197 239.012 223.308C238.816 223.416 238.661 223.568 238.547 223.764C238.436 223.957 238.381 224.185 238.381 224.446V228H236.297ZM243.909 228V226.483L247.092 223.696C247.331 223.48 247.534 223.283 247.702 223.104C247.869 222.922 247.997 222.74 248.085 222.558C248.173 222.374 248.217 222.173 248.217 221.957C248.217 221.716 248.165 221.51 248.06 221.339C247.955 221.166 247.81 221.033 247.625 220.939C247.44 220.845 247.229 220.798 246.99 220.798C246.749 220.798 246.537 220.848 246.355 220.947C246.173 221.044 246.031 221.185 245.929 221.369C245.83 221.554 245.78 221.778 245.78 222.043H243.781C243.781 221.449 243.915 220.936 244.182 220.504C244.449 220.072 244.824 219.74 245.307 219.507C245.793 219.271 246.357 219.153 246.999 219.153C247.661 219.153 248.236 219.264 248.724 219.486C249.213 219.707 249.591 220.017 249.858 220.415C250.128 220.81 250.263 221.268 250.263 221.791C250.263 222.124 250.196 222.453 250.062 222.78C249.929 223.107 249.689 223.467 249.342 223.862C248.999 224.257 248.51 224.73 247.876 225.281L246.832 226.244V226.3H250.369V228H243.909Z" fill="black"/>
<rect x="308.5" y="276.5" width="133" height="92" fill="url(#paint0_linear_54_87)" stroke="#1AAC20" stroke-width="3"/>
<path d="M329.388 321.124C329.339 320.945 329.268 320.787 329.175 320.651C329.081 320.511 328.966 320.393 328.83 320.297C328.693 320.2 328.537 320.128 328.361 320.08C328.185 320.028 327.991 320.003 327.781 320.003C327.358 320.003 326.991 320.105 326.682 320.31C326.375 320.514 326.138 320.812 325.97 321.205C325.803 321.594 325.719 322.067 325.719 322.624C325.719 323.183 325.8 323.661 325.962 324.055C326.124 324.45 326.358 324.751 326.665 324.959C326.972 325.166 327.344 325.27 327.781 325.27C328.168 325.27 328.494 325.207 328.761 325.082C329.031 324.955 329.236 324.774 329.375 324.541C329.514 324.308 329.584 324.034 329.584 323.719L329.976 323.766H327.854V322.227H331.616V323.382C331.616 324.163 331.45 324.832 331.118 325.389C330.788 325.946 330.334 326.374 329.754 326.672C329.178 326.97 328.514 327.119 327.764 327.119C326.932 327.119 326.2 326.939 325.57 326.578C324.939 326.217 324.447 325.703 324.095 325.036C323.743 324.365 323.567 323.57 323.567 322.649C323.567 321.933 323.673 321.298 323.886 320.744C324.099 320.187 324.396 319.716 324.777 319.33C325.161 318.943 325.604 318.651 326.107 318.452C326.612 318.253 327.156 318.153 327.739 318.153C328.244 318.153 328.714 318.226 329.149 318.371C329.587 318.516 329.973 318.72 330.308 318.984C330.646 319.249 330.92 319.562 331.131 319.926C331.341 320.29 331.472 320.689 331.523 321.124H329.388ZM335.915 327.124C335.228 327.124 334.637 326.983 334.142 326.702C333.651 326.418 333.272 326.023 333.005 325.517C332.74 325.009 332.608 324.419 332.608 323.749C332.608 323.075 332.74 322.486 333.005 321.98C333.272 321.472 333.651 321.077 334.142 320.795C334.637 320.511 335.228 320.369 335.915 320.369C336.603 320.369 337.192 320.511 337.684 320.795C338.178 321.077 338.557 321.472 338.821 321.98C339.088 322.486 339.222 323.075 339.222 323.749C339.222 324.419 339.088 325.009 338.821 325.517C338.557 326.023 338.178 326.418 337.684 326.702C337.192 326.983 336.603 327.124 335.915 327.124ZM335.928 325.551C336.178 325.551 336.39 325.474 336.563 325.321C336.736 325.168 336.868 324.955 336.959 324.682C337.053 324.409 337.1 324.094 337.1 323.736C337.1 323.372 337.053 323.054 336.959 322.781C336.868 322.509 336.736 322.295 336.563 322.142C336.39 321.989 336.178 321.912 335.928 321.912C335.669 321.912 335.451 321.989 335.272 322.142C335.096 322.295 334.961 322.509 334.867 322.781C334.776 323.054 334.73 323.372 334.73 323.736C334.73 324.094 334.776 324.409 334.867 324.682C334.961 324.955 335.096 325.168 335.272 325.321C335.451 325.474 335.669 325.551 335.928 325.551ZM343.345 327.124C342.657 327.124 342.066 326.983 341.572 326.702C341.081 326.418 340.701 326.023 340.434 325.517C340.17 325.009 340.038 324.419 340.038 323.749C340.038 323.075 340.17 322.486 340.434 321.98C340.701 321.472 341.081 321.077 341.572 320.795C342.066 320.511 342.657 320.369 343.345 320.369C344.032 320.369 344.622 320.511 345.113 320.795C345.608 321.077 345.987 321.472 346.251 321.98C346.518 322.486 346.652 323.075 346.652 323.749C346.652 324.419 346.518 325.009 346.251 325.517C345.987 326.023 345.608 326.418 345.113 326.702C344.622 326.983 344.032 327.124 343.345 327.124ZM343.358 325.551C343.608 325.551 343.819 325.474 343.993 325.321C344.166 325.168 344.298 324.955 344.389 324.682C344.483 324.409 344.529 324.094 344.529 323.736C344.529 323.372 344.483 323.054 344.389 322.781C344.298 322.509 344.166 322.295 343.993 322.142C343.819 321.989 343.608 321.912 343.358 321.912C343.099 321.912 342.88 321.989 342.701 322.142C342.525 322.295 342.39 322.509 342.297 322.781C342.206 323.054 342.16 323.372 342.16 323.736C342.16 324.094 342.206 324.409 342.297 324.682C342.39 324.955 342.525 325.168 342.701 325.321C342.88 325.474 343.099 325.551 343.358 325.551ZM350.11 327.094C349.627 327.094 349.188 326.969 348.793 326.719C348.398 326.469 348.083 326.094 347.847 325.594C347.611 325.094 347.493 324.473 347.493 323.732C347.493 322.962 347.615 322.328 347.86 321.831C348.104 321.334 348.424 320.966 348.819 320.727C349.216 320.489 349.644 320.369 350.101 320.369C350.445 320.369 350.739 320.429 350.983 320.548C351.228 320.665 351.429 320.815 351.588 321C351.748 321.185 351.868 321.376 351.951 321.575H351.993V318.273H354.077V327H352.015V325.939H351.951C351.863 326.141 351.738 326.33 351.576 326.506C351.414 326.682 351.211 326.824 350.966 326.932C350.725 327.04 350.439 327.094 350.11 327.094ZM350.834 325.47C351.087 325.47 351.303 325.399 351.482 325.257C351.661 325.112 351.799 324.909 351.895 324.648C351.992 324.386 352.04 324.08 352.04 323.727C352.04 323.369 351.992 323.061 351.895 322.803C351.801 322.544 351.664 322.345 351.482 322.206C351.303 322.067 351.087 321.997 350.834 321.997C350.576 321.997 350.357 322.068 350.178 322.21C349.999 322.352 349.863 322.553 349.769 322.811C349.678 323.07 349.632 323.375 349.632 323.727C349.632 324.08 349.679 324.386 349.773 324.648C349.867 324.909 350.002 325.112 350.178 325.257C350.357 325.399 350.576 325.47 350.834 325.47ZM357.973 327V320.455H359.997V321.648H360.065C360.185 321.216 360.379 320.895 360.649 320.685C360.919 320.472 361.233 320.365 361.591 320.365C361.688 320.365 361.787 320.372 361.889 320.386C361.991 320.398 362.087 320.416 362.175 320.442V322.253C362.075 322.219 361.945 322.192 361.783 322.172C361.624 322.152 361.482 322.142 361.357 322.142C361.109 322.142 360.886 322.197 360.688 322.308C360.491 322.416 360.337 322.568 360.223 322.764C360.112 322.957 360.057 323.185 360.057 323.446V327H357.973ZM363.024 327V320.455H365.108V327H363.024ZM364.068 319.692C363.775 319.692 363.524 319.595 363.314 319.402C363.103 319.206 362.998 318.97 362.998 318.695C362.998 318.422 363.103 318.189 363.314 317.996C363.524 317.8 363.775 317.702 364.068 317.702C364.363 317.702 364.615 317.8 364.822 317.996C365.032 318.189 365.137 318.422 365.137 318.695C365.137 318.97 365.032 319.206 364.822 319.402C364.615 319.595 364.363 319.692 364.068 319.692ZM369.485 329.591C368.863 329.591 368.33 329.504 367.887 329.331C367.444 329.158 367.096 328.92 366.843 328.619C366.59 328.318 366.438 327.977 366.387 327.597L368.36 327.486C368.397 327.619 368.465 327.736 368.565 327.835C368.667 327.935 368.799 328.011 368.961 328.065C369.126 328.119 369.319 328.146 369.54 328.146C369.89 328.146 370.178 328.061 370.406 327.891C370.636 327.723 370.751 327.429 370.751 327.009V325.858H370.678C370.596 326.06 370.471 326.24 370.303 326.399C370.136 326.558 369.927 326.683 369.677 326.774C369.43 326.865 369.146 326.911 368.825 326.911C368.347 326.911 367.91 326.8 367.512 326.578C367.117 326.354 366.8 326.007 366.562 325.538C366.326 325.067 366.208 324.46 366.208 323.719C366.208 322.955 366.33 322.325 366.575 321.831C366.819 321.334 367.138 320.966 367.533 320.727C367.931 320.489 368.359 320.369 368.816 320.369C369.16 320.369 369.454 320.429 369.698 320.548C369.945 320.665 370.148 320.815 370.308 321C370.467 321.185 370.587 321.376 370.67 321.575H370.729V320.455H372.805V327.026C372.805 327.58 372.665 328.047 372.387 328.428C372.109 328.808 371.719 329.097 371.219 329.293C370.719 329.491 370.141 329.591 369.485 329.591ZM369.549 325.393C369.802 325.393 370.018 325.327 370.197 325.193C370.376 325.06 370.513 324.868 370.61 324.618C370.707 324.368 370.755 324.068 370.755 323.719C370.755 323.364 370.707 323.058 370.61 322.803C370.516 322.544 370.379 322.345 370.197 322.206C370.018 322.067 369.802 321.997 369.549 321.997C369.29 321.997 369.072 322.068 368.893 322.21C368.714 322.352 368.577 322.553 368.484 322.811C368.393 323.067 368.347 323.369 368.347 323.719C368.347 324.068 368.394 324.368 368.488 324.618C368.582 324.868 368.717 325.06 368.893 325.193C369.072 325.327 369.29 325.393 369.549 325.393ZM376.217 323.267V327H374.133V318.273H376.149V321.656H376.221C376.369 321.253 376.61 320.937 376.946 320.71C377.284 320.483 377.697 320.369 378.186 320.369C378.646 320.369 379.047 320.472 379.387 320.676C379.728 320.878 379.993 321.163 380.18 321.533C380.37 321.902 380.464 322.334 380.461 322.828V327H378.377V323.237C378.38 322.874 378.289 322.589 378.105 322.385C377.92 322.18 377.66 322.078 377.325 322.078C377.106 322.078 376.913 322.126 376.745 322.223C376.581 322.317 376.451 322.452 376.358 322.628C376.267 322.804 376.22 323.017 376.217 323.267ZM385.457 320.455V321.989H381.327V320.455H385.457ZM382.192 318.886H384.276V324.942C384.276 325.07 384.296 325.173 384.336 325.253C384.379 325.33 384.44 325.385 384.519 325.419C384.599 325.45 384.694 325.466 384.805 325.466C384.884 325.466 384.968 325.459 385.056 325.445C385.147 325.428 385.215 325.413 385.261 325.402L385.576 326.906C385.477 326.935 385.336 326.97 385.154 327.013C384.975 327.055 384.761 327.082 384.511 327.094C384.022 327.116 383.603 327.06 383.254 326.923C382.907 326.784 382.641 326.568 382.457 326.276C382.275 325.983 382.187 325.615 382.192 325.172V318.886ZM392.153 327.124C391.463 327.124 390.871 326.982 390.376 326.697C389.885 326.413 389.507 326.018 389.243 325.513C388.979 325.004 388.847 324.416 388.847 323.749C388.847 323.078 388.979 322.49 389.243 321.984C389.51 321.476 389.889 321.08 390.381 320.795C390.875 320.511 391.464 320.369 392.149 320.369C392.754 320.369 393.281 320.479 393.73 320.697C394.182 320.916 394.534 321.226 394.787 321.626C395.043 322.024 395.178 322.491 395.192 323.028H393.244C393.205 322.693 393.091 322.43 392.903 322.24C392.719 322.05 392.477 321.955 392.179 321.955C391.938 321.955 391.726 322.023 391.544 322.159C391.362 322.293 391.22 322.491 391.118 322.756C391.018 323.017 390.969 323.341 390.969 323.727C390.969 324.114 391.018 324.44 391.118 324.707C391.22 324.972 391.362 325.172 391.544 325.308C391.726 325.442 391.938 325.509 392.179 325.509C392.372 325.509 392.543 325.467 392.69 325.385C392.841 325.303 392.964 325.182 393.061 325.023C393.158 324.861 393.219 324.665 393.244 324.435H395.192C395.172 324.974 395.037 325.446 394.787 325.849C394.54 326.253 394.192 326.567 393.743 326.791C393.297 327.013 392.767 327.124 392.153 327.124ZM399.314 327.124C398.626 327.124 398.035 326.983 397.541 326.702C397.049 326.418 396.67 326.023 396.403 325.517C396.139 325.009 396.007 324.419 396.007 323.749C396.007 323.075 396.139 322.486 396.403 321.98C396.67 321.472 397.049 321.077 397.541 320.795C398.035 320.511 398.626 320.369 399.314 320.369C400.001 320.369 400.591 320.511 401.082 320.795C401.576 321.077 401.956 321.472 402.22 321.98C402.487 322.486 402.62 323.075 402.62 323.749C402.62 324.419 402.487 325.009 402.22 325.517C401.956 326.023 401.576 326.418 401.082 326.702C400.591 326.983 400.001 327.124 399.314 327.124ZM399.326 325.551C399.576 325.551 399.788 325.474 399.961 325.321C400.135 325.168 400.267 324.955 400.358 324.682C400.451 324.409 400.498 324.094 400.498 323.736C400.498 323.372 400.451 323.054 400.358 322.781C400.267 322.509 400.135 322.295 399.961 322.142C399.788 321.989 399.576 321.912 399.326 321.912C399.068 321.912 398.849 321.989 398.67 322.142C398.494 322.295 398.359 322.509 398.265 322.781C398.174 323.054 398.129 323.372 398.129 323.736C398.129 324.094 398.174 324.409 398.265 324.682C398.359 324.955 398.494 325.168 398.67 325.321C398.849 325.474 399.068 325.551 399.326 325.551ZM403.688 327V320.455H405.712V321.648H405.78C405.9 321.216 406.094 320.895 406.364 320.685C406.634 320.472 406.948 320.365 407.306 320.365C407.402 320.365 407.502 320.372 407.604 320.386C407.706 320.398 407.801 320.416 407.89 320.442V322.253C407.79 322.219 407.659 322.192 407.498 322.172C407.338 322.152 407.196 322.142 407.071 322.142C406.824 322.142 406.601 322.197 406.402 322.308C406.206 322.416 406.051 322.568 405.938 322.764C405.827 322.957 405.772 323.185 405.772 323.446V327H403.688ZM410.822 323.267V327H408.739V320.455H410.72V321.656H410.793C410.938 321.256 411.185 320.942 411.534 320.714C411.884 320.484 412.3 320.369 412.783 320.369C413.243 320.369 413.642 320.473 413.98 320.68C414.321 320.885 414.585 321.172 414.773 321.541C414.963 321.908 415.057 322.337 415.054 322.828V327H412.97V323.237C412.973 322.874 412.881 322.589 412.693 322.385C412.509 322.18 412.251 322.078 411.922 322.078C411.703 322.078 411.51 322.126 411.342 322.223C411.178 322.317 411.05 322.452 410.959 322.628C410.871 322.804 410.825 323.017 410.822 323.267ZM419.404 327.124C418.719 327.124 418.128 326.989 417.631 326.719C417.137 326.446 416.756 326.058 416.489 325.555C416.225 325.05 416.093 324.449 416.093 323.753C416.093 323.077 416.226 322.486 416.493 321.98C416.76 321.472 417.137 321.077 417.623 320.795C418.108 320.511 418.681 320.369 419.34 320.369C419.806 320.369 420.232 320.442 420.618 320.587C421.005 320.732 421.338 320.946 421.62 321.23C421.901 321.514 422.12 321.865 422.276 322.283C422.432 322.697 422.51 323.173 422.51 323.71V324.23H416.821V323.02H420.571C420.569 322.798 420.516 322.601 420.414 322.428C420.311 322.254 420.171 322.119 419.992 322.023C419.816 321.923 419.613 321.874 419.382 321.874C419.15 321.874 418.941 321.926 418.756 322.031C418.571 322.134 418.425 322.274 418.317 322.453C418.209 322.629 418.152 322.83 418.147 323.054V324.286C418.147 324.553 418.199 324.787 418.304 324.989C418.409 325.187 418.559 325.342 418.752 325.453C418.945 325.564 419.175 325.619 419.442 325.619C419.627 325.619 419.794 325.594 419.945 325.543C420.096 325.491 420.225 325.416 420.333 325.317C420.441 325.217 420.522 325.095 420.576 324.95L422.489 325.006C422.409 325.435 422.235 325.808 421.965 326.126C421.698 326.442 421.347 326.687 420.912 326.864C420.478 327.037 419.975 327.124 419.404 327.124ZM423.575 327V320.455H425.599V321.648H425.667C425.786 321.216 425.981 320.895 426.251 320.685C426.521 320.472 426.835 320.365 427.192 320.365C427.289 320.365 427.388 320.372 427.491 320.386C427.593 320.398 427.688 320.416 427.776 320.442V322.253C427.677 322.219 427.546 322.192 427.384 322.172C427.225 322.152 427.083 322.142 426.958 322.142C426.711 322.142 426.488 322.197 426.289 322.308C426.093 322.416 425.938 322.568 425.825 322.764C425.714 322.957 425.658 323.185 425.658 323.446V327H423.575Z" fill="black"/>
<rect x="308.5" y="122.5" width="133" height="92" fill="url(#paint1_linear_54_87)" stroke="#FF0000" stroke-width="3"/>
<path d="M331.661 173V164.273H335.3C335.953 164.273 336.5 164.365 336.94 164.55C337.384 164.734 337.716 164.993 337.938 165.325C338.162 165.658 338.274 166.043 338.274 166.48C338.274 166.812 338.205 167.109 338.065 167.371C337.926 167.629 337.734 167.844 337.49 168.014C337.246 168.185 336.963 168.304 336.642 168.372V168.457C336.994 168.474 337.32 168.57 337.618 168.743C337.919 168.916 338.161 169.158 338.342 169.467C338.524 169.774 338.615 170.138 338.615 170.558C338.615 171.027 338.496 171.446 338.257 171.815C338.018 172.182 337.673 172.472 337.222 172.685C336.77 172.895 336.222 173 335.577 173H331.661ZM333.77 171.3H335.074C335.531 171.3 335.868 171.213 336.084 171.04C336.303 170.866 336.412 170.625 336.412 170.315C336.412 170.091 336.359 169.898 336.254 169.736C336.149 169.571 336 169.445 335.807 169.357C335.614 169.266 335.382 169.22 335.112 169.22H333.77V171.3ZM333.77 167.861H334.938C335.168 167.861 335.372 167.822 335.551 167.746C335.73 167.669 335.869 167.558 335.969 167.413C336.071 167.268 336.122 167.094 336.122 166.889C336.122 166.597 336.018 166.366 335.811 166.199C335.604 166.031 335.324 165.947 334.972 165.947H333.77V167.861ZM341.474 173.111C341.057 173.111 340.686 173.041 340.362 172.902C340.041 172.76 339.787 172.547 339.599 172.263C339.415 171.976 339.322 171.616 339.322 171.185C339.322 170.821 339.386 170.514 339.514 170.264C339.642 170.014 339.818 169.811 340.043 169.655C340.267 169.499 340.526 169.381 340.818 169.301C341.111 169.219 341.423 169.163 341.756 169.135C342.128 169.101 342.428 169.065 342.655 169.028C342.882 168.989 343.047 168.933 343.149 168.862C343.254 168.788 343.307 168.685 343.307 168.551V168.53C343.307 168.311 343.232 168.142 343.081 168.023C342.93 167.903 342.727 167.844 342.472 167.844C342.196 167.844 341.974 167.903 341.807 168.023C341.639 168.142 341.533 168.307 341.487 168.517L339.565 168.449C339.622 168.051 339.768 167.696 340.004 167.384C340.243 167.068 340.57 166.821 340.984 166.642C341.402 166.46 341.903 166.369 342.489 166.369C342.906 166.369 343.291 166.419 343.643 166.518C343.996 166.615 344.303 166.757 344.564 166.945C344.825 167.129 345.027 167.357 345.169 167.626C345.314 167.896 345.386 168.205 345.386 168.551V173H343.426V172.088H343.375C343.259 172.31 343.109 172.497 342.928 172.651C342.749 172.804 342.537 172.919 342.293 172.996C342.051 173.072 341.778 173.111 341.474 173.111ZM342.118 171.747C342.342 171.747 342.544 171.702 342.723 171.611C342.905 171.52 343.05 171.395 343.158 171.236C343.266 171.074 343.32 170.886 343.32 170.673V170.051C343.26 170.082 343.188 170.111 343.102 170.136C343.02 170.162 342.929 170.186 342.83 170.209C342.73 170.232 342.628 170.251 342.523 170.268C342.418 170.286 342.317 170.301 342.22 170.315C342.024 170.347 341.857 170.395 341.717 170.46C341.581 170.526 341.476 170.611 341.402 170.716C341.331 170.818 341.295 170.94 341.295 171.082C341.295 171.298 341.372 171.463 341.526 171.577C341.682 171.69 341.879 171.747 342.118 171.747ZM349.051 173.094C348.568 173.094 348.129 172.969 347.734 172.719C347.339 172.469 347.024 172.094 346.788 171.594C346.553 171.094 346.435 170.473 346.435 169.732C346.435 168.962 346.557 168.328 346.801 167.831C347.045 167.334 347.365 166.966 347.76 166.727C348.158 166.489 348.585 166.369 349.043 166.369C349.386 166.369 349.68 166.429 349.925 166.548C350.169 166.665 350.371 166.815 350.53 167C350.689 167.185 350.81 167.376 350.892 167.575H350.935V164.273H353.018V173H350.956V171.939H350.892C350.804 172.141 350.679 172.33 350.517 172.506C350.355 172.682 350.152 172.824 349.908 172.932C349.666 173.04 349.381 173.094 349.051 173.094ZM349.776 171.47C350.028 171.47 350.244 171.399 350.423 171.257C350.602 171.112 350.74 170.909 350.837 170.648C350.933 170.386 350.982 170.08 350.982 169.727C350.982 169.369 350.933 169.061 350.837 168.803C350.743 168.544 350.605 168.345 350.423 168.206C350.244 168.067 350.028 167.997 349.776 167.997C349.517 167.997 349.298 168.068 349.119 168.21C348.94 168.352 348.804 168.553 348.71 168.811C348.619 169.07 348.574 169.375 348.574 169.727C348.574 170.08 348.621 170.386 348.714 170.648C348.808 170.909 348.943 171.112 349.119 171.257C349.298 171.399 349.517 171.47 349.776 171.47ZM356.914 173V166.455H358.939V167.648H359.007C359.126 167.216 359.321 166.895 359.591 166.685C359.86 166.472 360.174 166.365 360.532 166.365C360.629 166.365 360.728 166.372 360.831 166.386C360.933 166.398 361.028 166.416 361.116 166.442V168.253C361.017 168.219 360.886 168.192 360.724 168.172C360.565 168.152 360.423 168.142 360.298 168.142C360.051 168.142 359.828 168.197 359.629 168.308C359.433 168.416 359.278 168.568 359.164 168.764C359.054 168.957 358.998 169.185 358.998 169.446V173H356.914ZM361.965 173V166.455H364.049V173H361.965ZM363.009 165.692C362.717 165.692 362.465 165.595 362.255 165.402C362.045 165.206 361.94 164.97 361.94 164.695C361.94 164.422 362.045 164.189 362.255 163.996C362.465 163.8 362.717 163.702 363.009 163.702C363.305 163.702 363.556 163.8 363.763 163.996C363.974 164.189 364.079 164.422 364.079 164.695C364.079 164.97 363.974 165.206 363.763 165.402C363.556 165.595 363.305 165.692 363.009 165.692ZM368.426 175.591C367.804 175.591 367.272 175.504 366.828 175.331C366.385 175.158 366.037 174.92 365.784 174.619C365.532 174.318 365.38 173.977 365.328 173.597L367.301 173.486C367.338 173.619 367.407 173.736 367.506 173.835C367.608 173.935 367.74 174.011 367.902 174.065C368.067 174.119 368.26 174.146 368.482 174.146C368.831 174.146 369.12 174.061 369.347 173.891C369.577 173.723 369.692 173.429 369.692 173.009V171.858H369.62C369.537 172.06 369.412 172.24 369.245 172.399C369.077 172.558 368.868 172.683 368.618 172.774C368.371 172.865 368.087 172.911 367.766 172.911C367.289 172.911 366.851 172.8 366.453 172.578C366.059 172.354 365.742 172.007 365.503 171.538C365.267 171.067 365.15 170.46 365.15 169.719C365.15 168.955 365.272 168.325 365.516 167.831C365.76 167.334 366.08 166.966 366.475 166.727C366.873 166.489 367.3 166.369 367.757 166.369C368.101 166.369 368.395 166.429 368.64 166.548C368.887 166.665 369.09 166.815 369.249 167C369.408 167.185 369.529 167.376 369.611 167.575H369.671V166.455H371.746V173.026C371.746 173.58 371.607 174.047 371.328 174.428C371.05 174.808 370.661 175.097 370.161 175.293C369.661 175.491 369.083 175.591 368.426 175.591ZM368.49 171.393C368.743 171.393 368.959 171.327 369.138 171.193C369.317 171.06 369.455 170.868 369.551 170.618C369.648 170.368 369.696 170.068 369.696 169.719C369.696 169.364 369.648 169.058 369.551 168.803C369.458 168.544 369.32 168.345 369.138 168.206C368.959 168.067 368.743 167.997 368.49 167.997C368.232 167.997 368.013 168.068 367.834 168.21C367.655 168.352 367.519 168.553 367.425 168.811C367.334 169.067 367.289 169.369 367.289 169.719C367.289 170.068 367.336 170.368 367.429 170.618C367.523 170.868 367.658 171.06 367.834 171.193C368.013 171.327 368.232 171.393 368.49 171.393ZM375.158 169.267V173H373.075V164.273H375.09V167.656H375.163C375.31 167.253 375.552 166.937 375.887 166.71C376.225 166.483 376.638 166.369 377.127 166.369C377.587 166.369 377.988 166.472 378.329 166.676C378.67 166.878 378.934 167.163 379.121 167.533C379.312 167.902 379.406 168.334 379.403 168.828V173H377.319V169.237C377.322 168.874 377.231 168.589 377.046 168.385C376.862 168.18 376.602 168.078 376.266 168.078C376.048 168.078 375.854 168.126 375.687 168.223C375.522 168.317 375.393 168.452 375.299 168.628C375.208 168.804 375.161 169.017 375.158 169.267ZM384.398 166.455V167.989H380.269V166.455H384.398ZM381.134 164.886H383.218V170.942C383.218 171.07 383.238 171.173 383.277 171.253C383.32 171.33 383.381 171.385 383.461 171.419C383.54 171.45 383.635 171.466 383.746 171.466C383.826 171.466 383.909 171.459 383.998 171.445C384.088 171.428 384.157 171.413 384.202 171.402L384.517 172.906C384.418 172.935 384.277 172.97 384.096 173.013C383.917 173.055 383.702 173.082 383.452 173.094C382.963 173.116 382.544 173.06 382.195 172.923C381.848 172.784 381.583 172.568 381.398 172.276C381.216 171.983 381.128 171.615 381.134 171.172V164.886ZM391.095 173.124C390.404 173.124 389.812 172.982 389.318 172.697C388.826 172.413 388.449 172.018 388.184 171.513C387.92 171.004 387.788 170.416 387.788 169.749C387.788 169.078 387.92 168.49 388.184 167.984C388.451 167.476 388.831 167.08 389.322 166.795C389.816 166.511 390.406 166.369 391.091 166.369C391.696 166.369 392.223 166.479 392.672 166.697C393.123 166.916 393.475 167.226 393.728 167.626C393.984 168.024 394.119 168.491 394.133 169.028H392.186C392.146 168.693 392.032 168.43 391.845 168.24C391.66 168.05 391.419 167.955 391.12 167.955C390.879 167.955 390.667 168.023 390.485 168.159C390.304 168.293 390.162 168.491 390.059 168.756C389.96 169.017 389.91 169.341 389.91 169.727C389.91 170.114 389.96 170.44 390.059 170.707C390.162 170.972 390.304 171.172 390.485 171.308C390.667 171.442 390.879 171.509 391.12 171.509C391.314 171.509 391.484 171.467 391.632 171.385C391.782 171.303 391.906 171.182 392.002 171.023C392.099 170.861 392.16 170.665 392.186 170.435H394.133C394.113 170.974 393.978 171.446 393.728 171.849C393.481 172.253 393.133 172.567 392.684 172.791C392.238 173.013 391.708 173.124 391.095 173.124ZM398.255 173.124C397.567 173.124 396.977 172.983 396.482 172.702C395.991 172.418 395.612 172.023 395.344 171.517C395.08 171.009 394.948 170.419 394.948 169.749C394.948 169.075 395.08 168.486 395.344 167.98C395.612 167.472 395.991 167.077 396.482 166.795C396.977 166.511 397.567 166.369 398.255 166.369C398.942 166.369 399.532 166.511 400.023 166.795C400.518 167.077 400.897 167.472 401.161 167.98C401.428 168.486 401.562 169.075 401.562 169.749C401.562 170.419 401.428 171.009 401.161 171.517C400.897 172.023 400.518 172.418 400.023 172.702C399.532 172.983 398.942 173.124 398.255 173.124ZM398.268 171.551C398.518 171.551 398.729 171.474 398.903 171.321C399.076 171.168 399.208 170.955 399.299 170.682C399.393 170.409 399.44 170.094 399.44 169.736C399.44 169.372 399.393 169.054 399.299 168.781C399.208 168.509 399.076 168.295 398.903 168.142C398.729 167.989 398.518 167.912 398.268 167.912C398.009 167.912 397.79 167.989 397.612 168.142C397.435 168.295 397.3 168.509 397.207 168.781C397.116 169.054 397.07 169.372 397.07 169.736C397.07 170.094 397.116 170.409 397.207 170.682C397.3 170.955 397.435 171.168 397.612 171.321C397.79 171.474 398.009 171.551 398.268 171.551ZM402.629 173V166.455H404.653V167.648H404.722C404.841 167.216 405.036 166.895 405.305 166.685C405.575 166.472 405.889 166.365 406.247 166.365C406.344 166.365 406.443 166.372 406.545 166.386C406.648 166.398 406.743 166.416 406.831 166.442V168.253C406.732 168.219 406.601 168.192 406.439 168.172C406.28 168.152 406.138 168.142 406.013 168.142C405.766 168.142 405.543 168.197 405.344 168.308C405.148 168.416 404.993 168.568 404.879 168.764C404.768 168.957 404.713 169.185 404.713 169.446V173H402.629ZM409.764 169.267V173H407.68V166.455H409.662V167.656H409.734C409.879 167.256 410.126 166.942 410.475 166.714C410.825 166.484 411.241 166.369 411.724 166.369C412.184 166.369 412.583 166.473 412.922 166.68C413.262 166.885 413.527 167.172 413.714 167.541C413.904 167.908 413.998 168.337 413.995 168.828V173H411.912V169.237C411.914 168.874 411.822 168.589 411.635 168.385C411.45 168.18 411.193 168.078 410.863 168.078C410.645 168.078 410.451 168.126 410.284 168.223C410.119 168.317 409.991 168.452 409.9 168.628C409.812 168.804 409.767 169.017 409.764 169.267ZM418.345 173.124C417.661 173.124 417.07 172.989 416.572 172.719C416.078 172.446 415.697 172.058 415.43 171.555C415.166 171.05 415.034 170.449 415.034 169.753C415.034 169.077 415.168 168.486 415.435 167.98C415.702 167.472 416.078 167.077 416.564 166.795C417.05 166.511 417.622 166.369 418.281 166.369C418.747 166.369 419.173 166.442 419.56 166.587C419.946 166.732 420.28 166.946 420.561 167.23C420.842 167.514 421.061 167.865 421.217 168.283C421.374 168.697 421.452 169.173 421.452 169.71V170.23H415.763V169.02H419.513C419.51 168.798 419.457 168.601 419.355 168.428C419.253 168.254 419.112 168.119 418.933 168.023C418.757 167.923 418.554 167.874 418.324 167.874C418.091 167.874 417.882 167.926 417.697 168.031C417.513 168.134 417.366 168.274 417.259 168.453C417.151 168.629 417.094 168.83 417.088 169.054V170.286C417.088 170.553 417.141 170.787 417.246 170.989C417.351 171.187 417.5 171.342 417.693 171.453C417.886 171.564 418.116 171.619 418.384 171.619C418.568 171.619 418.736 171.594 418.886 171.543C419.037 171.491 419.166 171.416 419.274 171.317C419.382 171.217 419.463 171.095 419.517 170.95L421.43 171.006C421.351 171.435 421.176 171.808 420.906 172.126C420.639 172.442 420.288 172.687 419.854 172.864C419.419 173.037 418.916 173.124 418.345 173.124ZM422.516 173V166.455H424.54V167.648H424.608C424.728 167.216 424.922 166.895 425.192 166.685C425.462 166.472 425.776 166.365 426.134 166.365C426.23 166.365 426.33 166.372 426.432 166.386C426.534 166.398 426.63 166.416 426.718 166.442V168.253C426.618 168.219 426.488 168.192 426.326 168.172C426.167 168.152 426.025 168.142 425.9 168.142C425.652 168.142 425.429 168.197 425.23 168.308C425.034 168.416 424.88 168.568 424.766 168.764C424.655 168.957 424.6 169.185 424.6 169.446V173H422.516Z" fill="black"/>
<rect x="1.5" y="122.5" width="133" height="92" fill="url(#paint2_linear_54_87)" stroke="#FF0000" stroke-width="3"/>
<path d="M24.6605 173V164.273H28.2997C28.9531 164.273 29.5 164.365 29.9403 164.55C30.3835 164.734 30.7159 164.993 30.9375 165.325C31.1619 165.658 31.2741 166.043 31.2741 166.48C31.2741 166.812 31.2045 167.109 31.0653 167.371C30.9261 167.629 30.7344 167.844 30.4901 168.014C30.2457 168.185 29.9631 168.304 29.642 168.372V168.457C29.9943 168.474 30.3196 168.57 30.6179 168.743C30.919 168.916 31.1605 169.158 31.3423 169.467C31.5241 169.774 31.6151 170.138 31.6151 170.558C31.6151 171.027 31.4957 171.446 31.2571 171.815C31.0185 172.182 30.6733 172.472 30.2216 172.685C29.7699 172.895 29.2216 173 28.5767 173H24.6605ZM26.7699 171.3H28.0739C28.5313 171.3 28.8679 171.213 29.0838 171.04C29.3026 170.866 29.4119 170.625 29.4119 170.315C29.4119 170.091 29.3594 169.898 29.2543 169.736C29.1491 169.571 29 169.445 28.8068 169.357C28.6136 169.266 28.3821 169.22 28.1122 169.22H26.7699V171.3ZM26.7699 167.861H27.9375C28.1676 167.861 28.3722 167.822 28.5511 167.746C28.7301 167.669 28.8693 167.558 28.9688 167.413C29.071 167.268 29.1222 167.094 29.1222 166.889C29.1222 166.597 29.0185 166.366 28.8111 166.199C28.6037 166.031 28.3239 165.947 27.9716 165.947H26.7699V167.861ZM34.4744 173.111C34.0568 173.111 33.6861 173.041 33.3622 172.902C33.0412 172.76 32.7869 172.547 32.5994 172.263C32.4148 171.976 32.3224 171.616 32.3224 171.185C32.3224 170.821 32.3864 170.514 32.5142 170.264C32.642 170.014 32.8182 169.811 33.0426 169.655C33.267 169.499 33.5256 169.381 33.8182 169.301C34.1108 169.219 34.4233 169.163 34.7557 169.135C35.1278 169.101 35.4276 169.065 35.6548 169.028C35.8821 168.989 36.0469 168.933 36.1491 168.862C36.2543 168.788 36.3068 168.685 36.3068 168.551V168.53C36.3068 168.311 36.2315 168.142 36.081 168.023C35.9304 167.903 35.7273 167.844 35.4716 167.844C35.196 167.844 34.9744 167.903 34.8068 168.023C34.6392 168.142 34.5327 168.307 34.4872 168.517L32.5653 168.449C32.6222 168.051 32.7685 167.696 33.0043 167.384C33.2429 167.068 33.5696 166.821 33.9844 166.642C34.402 166.46 34.9034 166.369 35.4886 166.369C35.9063 166.369 36.2912 166.419 36.6435 166.518C36.9957 166.615 37.3026 166.757 37.5639 166.945C37.8253 167.129 38.027 167.357 38.169 167.626C38.3139 167.896 38.3864 168.205 38.3864 168.551V173H36.4261V172.088H36.375C36.2585 172.31 36.1094 172.497 35.9276 172.651C35.7486 172.804 35.5369 172.919 35.2926 172.996C35.0511 173.072 34.7784 173.111 34.4744 173.111ZM35.1179 171.747C35.3423 171.747 35.544 171.702 35.723 171.611C35.9048 171.52 36.0497 171.395 36.1577 171.236C36.2656 171.074 36.3196 170.886 36.3196 170.673V170.051C36.2599 170.082 36.1875 170.111 36.1023 170.136C36.0199 170.162 35.929 170.186 35.8295 170.209C35.7301 170.232 35.6278 170.251 35.5227 170.268C35.4176 170.286 35.3168 170.301 35.2202 170.315C35.0241 170.347 34.8565 170.395 34.7173 170.46C34.581 170.526 34.4759 170.611 34.402 170.716C34.331 170.818 34.2955 170.94 34.2955 171.082C34.2955 171.298 34.3722 171.463 34.5256 171.577C34.6818 171.69 34.8793 171.747 35.1179 171.747ZM42.0511 173.094C41.5682 173.094 41.1293 172.969 40.7344 172.719C40.3395 172.469 40.0241 172.094 39.7884 171.594C39.5526 171.094 39.4347 170.473 39.4347 169.732C39.4347 168.962 39.5568 168.328 39.8011 167.831C40.0455 167.334 40.3651 166.966 40.7599 166.727C41.1577 166.489 41.5852 166.369 42.0426 166.369C42.3864 166.369 42.6804 166.429 42.9247 166.548C43.169 166.665 43.3707 166.815 43.5298 167C43.6889 167.185 43.8097 167.376 43.892 167.575H43.9347V164.273H46.0185V173H43.956V171.939H43.892C43.804 172.141 43.679 172.33 43.517 172.506C43.3551 172.682 43.152 172.824 42.9077 172.932C42.6662 173.04 42.3807 173.094 42.0511 173.094ZM42.7756 171.47C43.0284 171.47 43.2443 171.399 43.4233 171.257C43.6023 171.112 43.7401 170.909 43.8366 170.648C43.9332 170.386 43.9815 170.08 43.9815 169.727C43.9815 169.369 43.9332 169.061 43.8366 168.803C43.7429 168.544 43.6051 168.345 43.4233 168.206C43.2443 168.067 43.0284 167.997 42.7756 167.997C42.517 167.997 42.2983 168.068 42.1193 168.21C41.9403 168.352 41.804 168.553 41.7102 168.811C41.6193 169.07 41.5739 169.375 41.5739 169.727C41.5739 170.08 41.6207 170.386 41.7145 170.648C41.8082 170.909 41.9432 171.112 42.1193 171.257C42.2983 171.399 42.517 171.47 42.7756 171.47ZM51.9982 164.273V173H49.9144V164.273H51.9982ZM56.3842 173.124C55.6996 173.124 55.1087 172.989 54.6115 172.719C54.1172 172.446 53.7365 172.058 53.4695 171.555C53.2053 171.05 53.0732 170.449 53.0732 169.753C53.0732 169.077 53.2067 168.486 53.4737 167.98C53.7408 167.472 54.1172 167.077 54.603 166.795C55.0888 166.511 55.6612 166.369 56.3203 166.369C56.7862 166.369 57.2124 166.442 57.5987 166.587C57.9851 166.732 58.3189 166.946 58.6001 167.23C58.8814 167.514 59.1001 167.865 59.2564 168.283C59.4126 168.697 59.4908 169.173 59.4908 169.71V170.23H53.8018V169.02H57.5518C57.549 168.798 57.4964 168.601 57.3942 168.428C57.2919 168.254 57.1513 168.119 56.9723 168.023C56.7962 167.923 56.593 167.874 56.3629 167.874C56.13 167.874 55.9212 167.926 55.7365 168.031C55.5518 168.134 55.4055 168.274 55.2976 168.453C55.1896 168.629 55.1328 168.83 55.1271 169.054V170.286C55.1271 170.553 55.1797 170.787 55.2848 170.989C55.3899 171.187 55.5391 171.342 55.7322 171.453C55.9254 171.564 56.1555 171.619 56.4226 171.619C56.6072 171.619 56.7749 171.594 56.9254 171.543C57.076 171.491 57.2053 171.416 57.3132 171.317C57.4212 171.217 57.5021 171.095 57.5561 170.95L59.4695 171.006C59.3899 171.435 59.2152 171.808 58.9453 172.126C58.6783 172.442 58.3274 172.687 57.8928 172.864C57.4581 173.037 56.9553 173.124 56.3842 173.124ZM64.2752 166.455V167.989H60.065V166.455H64.2752ZM60.9428 173V166.122C60.9428 165.616 61.038 165.197 61.2283 164.865C61.4187 164.53 61.6829 164.28 62.021 164.115C62.359 163.947 62.7496 163.864 63.1928 163.864C63.4826 163.864 63.7553 163.886 64.011 163.932C64.2695 163.974 64.4613 164.013 64.5863 164.047L64.2539 165.572C64.1772 165.547 64.0835 165.526 63.9727 165.509C63.8647 165.491 63.7624 165.483 63.6658 165.483C63.4215 165.483 63.2539 165.537 63.163 165.645C63.0721 165.753 63.0266 165.901 63.0266 166.088V173H60.9428ZM68.9723 166.455V167.989H64.843V166.455H68.9723ZM65.7081 164.886H67.7919V170.942C67.7919 171.07 67.8118 171.173 67.8516 171.253C67.8942 171.33 67.9553 171.385 68.0348 171.419C68.1143 171.45 68.2095 171.466 68.3203 171.466C68.3999 171.466 68.4837 171.459 68.5717 171.445C68.6626 171.428 68.7308 171.413 68.7763 171.402L69.0916 172.906C68.9922 172.935 68.8516 172.97 68.6697 173.013C68.4908 173.055 68.2763 173.082 68.0263 173.094C67.5376 173.116 67.1186 173.06 66.7692 172.923C66.4226 172.784 66.157 172.568 65.9723 172.276C65.7905 171.983 65.7024 171.615 65.7081 171.172V164.886ZM75.669 173.124C74.9787 173.124 74.3864 172.982 73.892 172.697C73.4006 172.413 73.0227 172.018 72.7585 171.513C72.4943 171.004 72.3622 170.416 72.3622 169.749C72.3622 169.078 72.4943 168.49 72.7585 167.984C73.0256 167.476 73.4048 167.08 73.8963 166.795C74.3906 166.511 74.9801 166.369 75.6648 166.369C76.2699 166.369 76.7969 166.479 77.2457 166.697C77.6974 166.916 78.0497 167.226 78.3026 167.626C78.5582 168.024 78.6932 168.491 78.7074 169.028H76.7599C76.7202 168.693 76.6065 168.43 76.419 168.24C76.2344 168.05 75.9929 167.955 75.6946 167.955C75.4531 167.955 75.2415 168.023 75.0597 168.159C74.8778 168.293 74.7358 168.491 74.6335 168.756C74.5341 169.017 74.4844 169.341 74.4844 169.727C74.4844 170.114 74.5341 170.44 74.6335 170.707C74.7358 170.972 74.8778 171.172 75.0597 171.308C75.2415 171.442 75.4531 171.509 75.6946 171.509C75.8878 171.509 76.0582 171.467 76.206 171.385C76.3565 171.303 76.4801 171.182 76.5767 171.023C76.6733 170.861 76.7344 170.665 76.7599 170.435H78.7074C78.6875 170.974 78.5526 171.446 78.3026 171.849C78.0554 172.253 77.7074 172.567 77.2585 172.791C76.8125 173.013 76.2827 173.124 75.669 173.124ZM82.8292 173.124C82.1417 173.124 81.5508 172.983 81.0565 172.702C80.565 172.418 80.1857 172.023 79.9187 171.517C79.6545 171.009 79.5224 170.419 79.5224 169.749C79.5224 169.075 79.6545 168.486 79.9187 167.98C80.1857 167.472 80.565 167.077 81.0565 166.795C81.5508 166.511 82.1417 166.369 82.8292 166.369C83.5167 166.369 84.1062 166.511 84.5977 166.795C85.092 167.077 85.4712 167.472 85.7354 167.98C86.0025 168.486 86.136 169.075 86.136 169.749C86.136 170.419 86.0025 171.009 85.7354 171.517C85.4712 172.023 85.092 172.418 84.5977 172.702C84.1062 172.983 83.5167 173.124 82.8292 173.124ZM82.842 171.551C83.092 171.551 83.3036 171.474 83.4769 171.321C83.6502 171.168 83.7823 170.955 83.8732 170.682C83.967 170.409 84.0138 170.094 84.0138 169.736C84.0138 169.372 83.967 169.054 83.8732 168.781C83.7823 168.509 83.6502 168.295 83.4769 168.142C83.3036 167.989 83.092 167.912 82.842 167.912C82.5835 167.912 82.3647 167.989 82.1857 168.142C82.0096 168.295 81.8746 168.509 81.7809 168.781C81.69 169.054 81.6445 169.372 81.6445 169.736C81.6445 170.094 81.69 170.409 81.7809 170.682C81.8746 170.955 82.0096 171.168 82.1857 171.321C82.3647 171.474 82.5835 171.551 82.842 171.551ZM87.2035 173V166.455H89.2276V167.648H89.2958C89.4151 167.216 89.6097 166.895 89.8796 166.685C90.1495 166.472 90.4634 166.365 90.8214 166.365C90.918 166.365 91.0174 166.372 91.1197 166.386C91.2219 166.398 91.3171 166.416 91.4052 166.442V168.253C91.3058 168.219 91.1751 168.192 91.0131 168.172C90.854 168.152 90.712 168.142 90.587 168.142C90.3398 168.142 90.1168 168.197 89.918 168.308C89.7219 168.416 89.5671 168.568 89.4535 168.764C89.3427 168.957 89.2873 169.185 89.2873 169.446V173H87.2035ZM94.3381 169.267V173H92.2543V166.455H94.2358V167.656H94.3082C94.4531 167.256 94.7003 166.942 95.0497 166.714C95.3991 166.484 95.8153 166.369 96.2983 166.369C96.7585 166.369 97.1577 166.473 97.4957 166.68C97.8366 166.885 98.1009 167.172 98.2884 167.541C98.4787 167.908 98.5724 168.337 98.5696 168.828V173H96.4858V169.237C96.4886 168.874 96.3963 168.589 96.2088 168.385C96.0241 168.18 95.767 168.078 95.4375 168.078C95.2188 168.078 95.0256 168.126 94.858 168.223C94.6932 168.317 94.5653 168.452 94.4744 168.628C94.3864 168.804 94.3409 169.017 94.3381 169.267ZM102.919 173.124C102.235 173.124 101.644 172.989 101.147 172.719C100.652 172.446 100.272 172.058 100.005 171.555C99.7404 171.05 99.6083 170.449 99.6083 169.753C99.6083 169.077 99.7418 168.486 100.009 167.98C100.276 167.472 100.652 167.077 101.138 166.795C101.624 166.511 102.196 166.369 102.855 166.369C103.321 166.369 103.748 166.442 104.134 166.587C104.52 166.732 104.854 166.946 105.135 167.23C105.417 167.514 105.635 167.865 105.792 168.283C105.948 168.697 106.026 169.173 106.026 169.71V170.23H100.337V169.02H104.087C104.084 168.798 104.032 168.601 103.929 168.428C103.827 168.254 103.686 168.119 103.507 168.023C103.331 167.923 103.128 167.874 102.898 167.874C102.665 167.874 102.456 167.926 102.272 168.031C102.087 168.134 101.941 168.274 101.833 168.453C101.725 168.629 101.668 168.83 101.662 169.054V170.286C101.662 170.553 101.715 170.787 101.82 170.989C101.925 171.187 102.074 171.342 102.267 171.453C102.461 171.564 102.691 171.619 102.958 171.619C103.142 171.619 103.31 171.594 103.461 171.543C103.611 171.491 103.74 171.416 103.848 171.317C103.956 171.217 104.037 171.095 104.091 170.95L106.005 171.006C105.925 171.435 105.75 171.808 105.48 172.126C105.213 172.442 104.863 172.687 104.428 172.864C103.993 173.037 103.49 173.124 102.919 173.124ZM107.09 173V166.455H109.114V167.648H109.183C109.302 167.216 109.496 166.895 109.766 166.685C110.036 166.472 110.35 166.365 110.708 166.365C110.805 166.365 110.904 166.372 111.006 166.386C111.109 166.398 111.204 166.416 111.292 166.442V168.253C111.192 168.219 111.062 168.192 110.9 168.172C110.741 168.152 110.599 168.142 110.474 168.142C110.227 168.142 110.004 168.197 109.805 168.308C109.609 168.416 109.454 168.568 109.34 168.764C109.229 168.957 109.174 169.185 109.174 169.446V173H107.09Z" fill="black"/>
<rect x="1.5" y="122.5" width="133" height="92" fill="url(#paint3_linear_54_87)" stroke="#FF0000" stroke-width="3"/>
<path d="M24.6605 173V164.273H28.2997C28.9531 164.273 29.5 164.365 29.9403 164.55C30.3835 164.734 30.7159 164.993 30.9375 165.325C31.1619 165.658 31.2741 166.043 31.2741 166.48C31.2741 166.812 31.2045 167.109 31.0653 167.371C30.9261 167.629 30.7344 167.844 30.4901 168.014C30.2457 168.185 29.9631 168.304 29.642 168.372V168.457C29.9943 168.474 30.3196 168.57 30.6179 168.743C30.919 168.916 31.1605 169.158 31.3423 169.467C31.5241 169.774 31.6151 170.138 31.6151 170.558C31.6151 171.027 31.4957 171.446 31.2571 171.815C31.0185 172.182 30.6733 172.472 30.2216 172.685C29.7699 172.895 29.2216 173 28.5767 173H24.6605ZM26.7699 171.3H28.0739C28.5313 171.3 28.8679 171.213 29.0838 171.04C29.3026 170.866 29.4119 170.625 29.4119 170.315C29.4119 170.091 29.3594 169.898 29.2543 169.736C29.1491 169.571 29 169.445 28.8068 169.357C28.6136 169.266 28.3821 169.22 28.1122 169.22H26.7699V171.3ZM26.7699 167.861H27.9375C28.1676 167.861 28.3722 167.822 28.5511 167.746C28.7301 167.669 28.8693 167.558 28.9688 167.413C29.071 167.268 29.1222 167.094 29.1222 166.889C29.1222 166.597 29.0185 166.366 28.8111 166.199C28.6037 166.031 28.3239 165.947 27.9716 165.947H26.7699V167.861ZM34.4744 173.111C34.0568 173.111 33.6861 173.041 33.3622 172.902C33.0412 172.76 32.7869 172.547 32.5994 172.263C32.4148 171.976 32.3224 171.616 32.3224 171.185C32.3224 170.821 32.3864 170.514 32.5142 170.264C32.642 170.014 32.8182 169.811 33.0426 169.655C33.267 169.499 33.5256 169.381 33.8182 169.301C34.1108 169.219 34.4233 169.163 34.7557 169.135C35.1278 169.101 35.4276 169.065 35.6548 169.028C35.8821 168.989 36.0469 168.933 36.1491 168.862C36.2543 168.788 36.3068 168.685 36.3068 168.551V168.53C36.3068 168.311 36.2315 168.142 36.081 168.023C35.9304 167.903 35.7273 167.844 35.4716 167.844C35.196 167.844 34.9744 167.903 34.8068 168.023C34.6392 168.142 34.5327 168.307 34.4872 168.517L32.5653 168.449C32.6222 168.051 32.7685 167.696 33.0043 167.384C33.2429 167.068 33.5696 166.821 33.9844 166.642C34.402 166.46 34.9034 166.369 35.4886 166.369C35.9063 166.369 36.2912 166.419 36.6435 166.518C36.9957 166.615 37.3026 166.757 37.5639 166.945C37.8253 167.129 38.027 167.357 38.169 167.626C38.3139 167.896 38.3864 168.205 38.3864 168.551V173H36.4261V172.088H36.375C36.2585 172.31 36.1094 172.497 35.9276 172.651C35.7486 172.804 35.5369 172.919 35.2926 172.996C35.0511 173.072 34.7784 173.111 34.4744 173.111ZM35.1179 171.747C35.3423 171.747 35.544 171.702 35.723 171.611C35.9048 171.52 36.0497 171.395 36.1577 171.236C36.2656 171.074 36.3196 170.886 36.3196 170.673V170.051C36.2599 170.082 36.1875 170.111 36.1023 170.136C36.0199 170.162 35.929 170.186 35.8295 170.209C35.7301 170.232 35.6278 170.251 35.5227 170.268C35.4176 170.286 35.3168 170.301 35.2202 170.315C35.0241 170.347 34.8565 170.395 34.7173 170.46C34.581 170.526 34.4759 170.611 34.402 170.716C34.331 170.818 34.2955 170.94 34.2955 171.082C34.2955 171.298 34.3722 171.463 34.5256 171.577C34.6818 171.69 34.8793 171.747 35.1179 171.747ZM42.0511 173.094C41.5682 173.094 41.1293 172.969 40.7344 172.719C40.3395 172.469 40.0241 172.094 39.7884 171.594C39.5526 171.094 39.4347 170.473 39.4347 169.732C39.4347 168.962 39.5568 168.328 39.8011 167.831C40.0455 167.334 40.3651 166.966 40.7599 166.727C41.1577 166.489 41.5852 166.369 42.0426 166.369C42.3864 166.369 42.6804 166.429 42.9247 166.548C43.169 166.665 43.3707 166.815 43.5298 167C43.6889 167.185 43.8097 167.376 43.892 167.575H43.9347V164.273H46.0185V173H43.956V171.939H43.892C43.804 172.141 43.679 172.33 43.517 172.506C43.3551 172.682 43.152 172.824 42.9077 172.932C42.6662 173.04 42.3807 173.094 42.0511 173.094ZM42.7756 171.47C43.0284 171.47 43.2443 171.399 43.4233 171.257C43.6023 171.112 43.7401 170.909 43.8366 170.648C43.9332 170.386 43.9815 170.08 43.9815 169.727C43.9815 169.369 43.9332 169.061 43.8366 168.803C43.7429 168.544 43.6051 168.345 43.4233 168.206C43.2443 168.067 43.0284 167.997 42.7756 167.997C42.517 167.997 42.2983 168.068 42.1193 168.21C41.9403 168.352 41.804 168.553 41.7102 168.811C41.6193 169.07 41.5739 169.375 41.5739 169.727C41.5739 170.08 41.6207 170.386 41.7145 170.648C41.8082 170.909 41.9432 171.112 42.1193 171.257C42.2983 171.399 42.517 171.47 42.7756 171.47ZM51.9982 164.273V173H49.9144V164.273H51.9982ZM56.3842 173.124C55.6996 173.124 55.1087 172.989 54.6115 172.719C54.1172 172.446 53.7365 172.058 53.4695 171.555C53.2053 171.05 53.0732 170.449 53.0732 169.753C53.0732 169.077 53.2067 168.486 53.4737 167.98C53.7408 167.472 54.1172 167.077 54.603 166.795C55.0888 166.511 55.6612 166.369 56.3203 166.369C56.7862 166.369 57.2124 166.442 57.5987 166.587C57.9851 166.732 58.3189 166.946 58.6001 167.23C58.8814 167.514 59.1001 167.865 59.2564 168.283C59.4126 168.697 59.4908 169.173 59.4908 169.71V170.23H53.8018V169.02H57.5518C57.549 168.798 57.4964 168.601 57.3942 168.428C57.2919 168.254 57.1513 168.119 56.9723 168.023C56.7962 167.923 56.593 167.874 56.3629 167.874C56.13 167.874 55.9212 167.926 55.7365 168.031C55.5518 168.134 55.4055 168.274 55.2976 168.453C55.1896 168.629 55.1328 168.83 55.1271 169.054V170.286C55.1271 170.553 55.1797 170.787 55.2848 170.989C55.3899 171.187 55.5391 171.342 55.7322 171.453C55.9254 171.564 56.1555 171.619 56.4226 171.619C56.6072 171.619 56.7749 171.594 56.9254 171.543C57.076 171.491 57.2053 171.416 57.3132 171.317C57.4212 171.217 57.5021 171.095 57.5561 170.95L59.4695 171.006C59.3899 171.435 59.2152 171.808 58.9453 172.126C58.6783 172.442 58.3274 172.687 57.8928 172.864C57.4581 173.037 56.9553 173.124 56.3842 173.124ZM64.2752 166.455V167.989H60.065V166.455H64.2752ZM60.9428 173V166.122C60.9428 165.616 61.038 165.197 61.2283 164.865C61.4187 164.53 61.6829 164.28 62.021 164.115C62.359 163.947 62.7496 163.864 63.1928 163.864C63.4826 163.864 63.7553 163.886 64.011 163.932C64.2695 163.974 64.4613 164.013 64.5863 164.047L64.2539 165.572C64.1772 165.547 64.0835 165.526 63.9727 165.509C63.8647 165.491 63.7624 165.483 63.6658 165.483C63.4215 165.483 63.2539 165.537 63.163 165.645C63.0721 165.753 63.0266 165.901 63.0266 166.088V173H60.9428ZM68.9723 166.455V167.989H64.843V166.455H68.9723ZM65.7081 164.886H67.7919V170.942C67.7919 171.07 67.8118 171.173 67.8516 171.253C67.8942 171.33 67.9553 171.385 68.0348 171.419C68.1143 171.45 68.2095 171.466 68.3203 171.466C68.3999 171.466 68.4837 171.459 68.5717 171.445C68.6626 171.428 68.7308 171.413 68.7763 171.402L69.0916 172.906C68.9922 172.935 68.8516 172.97 68.6697 173.013C68.4908 173.055 68.2763 173.082 68.0263 173.094C67.5376 173.116 67.1186 173.06 66.7692 172.923C66.4226 172.784 66.157 172.568 65.9723 172.276C65.7905 171.983 65.7024 171.615 65.7081 171.172V164.886ZM75.669 173.124C74.9787 173.124 74.3864 172.982 73.892 172.697C73.4006 172.413 73.0227 172.018 72.7585 171.513C72.4943 171.004 72.3622 170.416 72.3622 169.749C72.3622 169.078 72.4943 168.49 72.7585 167.984C73.0256 167.476 73.4048 167.08 73.8963 166.795C74.3906 166.511 74.9801 166.369 75.6648 166.369C76.2699 166.369 76.7969 166.479 77.2457 166.697C77.6974 166.916 78.0497 167.226 78.3026 167.626C78.5582 168.024 78.6932 168.491 78.7074 169.028H76.7599C76.7202 168.693 76.6065 168.43 76.419 168.24C76.2344 168.05 75.9929 167.955 75.6946 167.955C75.4531 167.955 75.2415 168.023 75.0597 168.159C74.8778 168.293 74.7358 168.491 74.6335 168.756C74.5341 169.017 74.4844 169.341 74.4844 169.727C74.4844 170.114 74.5341 170.44 74.6335 170.707C74.7358 170.972 74.8778 171.172 75.0597 171.308C75.2415 171.442 75.4531 171.509 75.6946 171.509C75.8878 171.509 76.0582 171.467 76.206 171.385C76.3565 171.303 76.4801 171.182 76.5767 171.023C76.6733 170.861 76.7344 170.665 76.7599 170.435H78.7074C78.6875 170.974 78.5526 171.446 78.3026 171.849C78.0554 172.253 77.7074 172.567 77.2585 172.791C76.8125 173.013 76.2827 173.124 75.669 173.124ZM82.8292 173.124C82.1417 173.124 81.5508 172.983 81.0565 172.702C80.565 172.418 80.1857 172.023 79.9187 171.517C79.6545 171.009 79.5224 170.419 79.5224 169.749C79.5224 169.075 79.6545 168.486 79.9187 167.98C80.1857 167.472 80.565 167.077 81.0565 166.795C81.5508 166.511 82.1417 166.369 82.8292 166.369C83.5167 166.369 84.1062 166.511 84.5977 166.795C85.092 167.077 85.4712 167.472 85.7354 167.98C86.0025 168.486 86.136 169.075 86.136 169.749C86.136 170.419 86.0025 171.009 85.7354 171.517C85.4712 172.023 85.092 172.418 84.5977 172.702C84.1062 172.983 83.5167 173.124 82.8292 173.124ZM82.842 171.551C83.092 171.551 83.3036 171.474 83.4769 171.321C83.6502 171.168 83.7823 170.955 83.8732 170.682C83.967 170.409 84.0138 170.094 84.0138 169.736C84.0138 169.372 83.967 169.054 83.8732 168.781C83.7823 168.509 83.6502 168.295 83.4769 168.142C83.3036 167.989 83.092 167.912 82.842 167.912C82.5835 167.912 82.3647 167.989 82.1857 168.142C82.0096 168.295 81.8746 168.509 81.7809 168.781C81.69 169.054 81.6445 169.372 81.6445 169.736C81.6445 170.094 81.69 170.409 81.7809 170.682C81.8746 170.955 82.0096 171.168 82.1857 171.321C82.3647 171.474 82.5835 171.551 82.842 171.551ZM87.2035 173V166.455H89.2276V167.648H89.2958C89.4151 167.216 89.6097 166.895 89.8796 166.685C90.1495 166.472 90.4634 166.365 90.8214 166.365C90.918 166.365 91.0174 166.372 91.1197 166.386C91.2219 166.398 91.3171 166.416 91.4052 166.442V168.253C91.3058 168.219 91.1751 168.192 91.0131 168.172C90.854 168.152 90.712 168.142 90.587 168.142C90.3398 168.142 90.1168 168.197 89.918 168.308C89.7219 168.416 89.5671 168.568 89.4535 168.764C89.3427 168.957 89.2873 169.185 89.2873 169.446V173H87.2035ZM94.3381 169.267V173H92.2543V166.455H94.2358V167.656H94.3082C94.4531 167.256 94.7003 166.942 95.0497 166.714C95.3991 166.484 95.8153 166.369 96.2983 166.369C96.7585 166.369 97.1577 166.473 97.4957 166.68C97.8366 166.885 98.1009 167.172 98.2884 167.541C98.4787 167.908 98.5724 168.337 98.5696 168.828V173H96.4858V169.237C96.4886 168.874 96.3963 168.589 96.2088 168.385C96.0241 168.18 95.767 168.078 95.4375 168.078C95.2188 168.078 95.0256 168.126 94.858 168.223C94.6932 168.317 94.5653 168.452 94.4744 168.628C94.3864 168.804 94.3409 169.017 94.3381 169.267ZM102.919 173.124C102.235 173.124 101.644 172.989 101.147 172.719C100.652 172.446 100.272 172.058 100.005 171.555C99.7404 171.05 99.6083 170.449 99.6083 169.753C99.6083 169.077 99.7418 168.486 100.009 167.98C100.276 167.472 100.652 167.077 101.138 166.795C101.624 166.511 102.196 166.369 102.855 166.369C103.321 166.369 103.748 166.442 104.134 166.587C104.52 166.732 104.854 166.946 105.135 167.23C105.417 167.514 105.635 167.865 105.792 168.283C105.948 168.697 106.026 169.173 106.026 169.71V170.23H100.337V169.02H104.087C104.084 168.798 104.032 168.601 103.929 168.428C103.827 168.254 103.686 168.119 103.507 168.023C103.331 167.923 103.128 167.874 102.898 167.874C102.665 167.874 102.456 167.926 102.272 168.031C102.087 168.134 101.941 168.274 101.833 168.453C101.725 168.629 101.668 168.83 101.662 169.054V170.286C101.662 170.553 101.715 170.787 101.82 170.989C101.925 171.187 102.074 171.342 102.267 171.453C102.461 171.564 102.691 171.619 102.958 171.619C103.142 171.619 103.31 171.594 103.461 171.543C103.611 171.491 103.74 171.416 103.848 171.317C103.956 171.217 104.037 171.095 104.091 170.95L106.005 171.006C105.925 171.435 105.75 171.808 105.48 172.126C105.213 172.442 104.863 172.687 104.428 172.864C103.993 173.037 103.49 173.124 102.919 173.124ZM107.09 173V166.455H109.114V167.648H109.183C109.302 167.216 109.496 166.895 109.766 166.685C110.036 166.472 110.35 166.365 110.708 166.365C110.805 166.365 110.904 166.372 111.006 166.386C111.109 166.398 111.204 166.416 111.292 166.442V168.253C111.192 168.219 111.062 168.192 110.9 168.172C110.741 168.152 110.599 168.142 110.474 168.142C110.227 168.142 110.004 168.197 109.805 168.308C109.609 168.416 109.454 168.568 109.34 168.764C109.229 168.957 109.174 169.185 109.174 169.446V173H107.09Z" fill="black"/>
<defs>
<linearGradient id="paint0_linear_54_87" x1="311.5" y1="275" x2="399.5" y2="333.5" gradientUnits="userSpaceOnUse">
<stop stop-color="#1AAC20"/>
<stop offset="1" stop-color="#737373" stop-opacity="0"/>
</linearGradient>
<linearGradient id="paint1_linear_54_87" x1="311.5" y1="121" x2="399.5" y2="179.5" gradientUnits="userSpaceOnUse">
<stop stop-color="#FF0000"/>
<stop offset="1" stop-color="#737373" stop-opacity="0"/>
</linearGradient>
<linearGradient id="paint2_linear_54_87" x1="136" y1="121" x2="41.5" y2="182" gradientUnits="userSpaceOnUse">
<stop stop-color="#FF0000"/>
<stop offset="1" stop-color="#737373" stop-opacity="0"/>
</linearGradient>
<linearGradient id="paint3_linear_54_87" x1="136" y1="121" x2="41.5" y2="182" gradientUnits="userSpaceOnUse">
<stop stop-color="#FF0000"/>
<stop offset="1" stop-color="#737373" stop-opacity="0"/>
</linearGradient>
</defs>
</svg>
