<svg width="491" height="368" viewBox="0 0 491 368" fill="none" xmlns="http://www.w3.org/2000/svg">
<rect x="114.5" y="1.5" width="215" height="146" fill="#D9D9D9" stroke="black" stroke-width="3"/>
<rect x="1.5" y="127.5" width="133" height="92" fill="url(#paint0_linear_54_91)" stroke="#1AAC20" stroke-width="3"/>
<path d="M26.3878 172.124C26.3395 171.945 26.2685 171.787 26.1747 171.651C26.081 171.511 25.9659 171.393 25.8295 171.297C25.6932 171.2 25.5369 171.128 25.3608 171.08C25.1847 171.028 24.9915 171.003 24.7812 171.003C24.358 171.003 23.9915 171.105 23.6818 171.31C23.375 171.514 23.1378 171.812 22.9702 172.205C22.8026 172.594 22.7188 173.067 22.7188 173.624C22.7188 174.183 22.7997 174.661 22.9616 175.055C23.1236 175.45 23.358 175.751 23.6648 175.959C23.9716 176.166 24.3438 176.27 24.7812 176.27C25.1676 176.27 25.4943 176.207 25.7614 176.082C26.0313 175.955 26.2358 175.774 26.375 175.541C26.5142 175.308 26.5838 175.034 26.5838 174.719L26.9759 174.766H24.8537V173.227H28.6165V174.382C28.6165 175.163 28.4503 175.832 28.1179 176.389C27.7884 176.946 27.3338 177.374 26.7543 177.672C26.1776 177.97 25.5142 178.119 24.7642 178.119C23.9318 178.119 23.2003 177.939 22.5696 177.578C21.9389 177.217 21.4474 176.703 21.0952 176.036C20.7429 175.365 20.5668 174.57 20.5668 173.649C20.5668 172.933 20.6733 172.298 20.8864 171.744C21.0994 171.187 21.3963 170.716 21.777 170.33C22.1605 169.943 22.6037 169.651 23.1065 169.452C23.6122 169.253 24.1563 169.153 24.7386 169.153C25.2443 169.153 25.7145 169.226 26.1491 169.371C26.5866 169.516 26.973 169.72 27.3082 169.984C27.6463 170.249 27.9205 170.562 28.1307 170.926C28.3409 171.29 28.4716 171.689 28.5227 172.124H26.3878ZM32.9151 178.124C32.2276 178.124 31.6367 177.983 31.1424 177.702C30.6509 177.418 30.2717 177.023 30.0046 176.517C29.7404 176.009 29.6083 175.419 29.6083 174.749C29.6083 174.075 29.7404 173.486 30.0046 172.98C30.2717 172.472 30.6509 172.077 31.1424 171.795C31.6367 171.511 32.2276 171.369 32.9151 171.369C33.6026 171.369 34.1921 171.511 34.6836 171.795C35.1779 172.077 35.5572 172.472 35.8214 172.98C36.0884 173.486 36.2219 174.075 36.2219 174.749C36.2219 175.419 36.0884 176.009 35.8214 176.517C35.5572 177.023 35.1779 177.418 34.6836 177.702C34.1921 177.983 33.6026 178.124 32.9151 178.124ZM32.9279 176.551C33.1779 176.551 33.3896 176.474 33.5629 176.321C33.7362 176.168 33.8683 175.955 33.9592 175.682C34.0529 175.409 34.0998 175.094 34.0998 174.736C34.0998 174.372 34.0529 174.054 33.9592 173.781C33.8683 173.509 33.7362 173.295 33.5629 173.142C33.3896 172.989 33.1779 172.912 32.9279 172.912C32.6694 172.912 32.4506 172.989 32.2717 173.142C32.0955 173.295 31.9606 173.509 31.8668 173.781C31.7759 174.054 31.7305 174.372 31.7305 174.736C31.7305 175.094 31.7759 175.409 31.8668 175.682C31.9606 175.955 32.0955 176.168 32.2717 176.321C32.4506 176.474 32.6694 176.551 32.9279 176.551ZM40.3448 178.124C39.6573 178.124 39.0664 177.983 38.5721 177.702C38.0806 177.418 37.7013 177.023 37.4343 176.517C37.1701 176.009 37.038 175.419 37.038 174.749C37.038 174.075 37.1701 173.486 37.4343 172.98C37.7013 172.472 38.0806 172.077 38.5721 171.795C39.0664 171.511 39.6573 171.369 40.3448 171.369C41.0323 171.369 41.6218 171.511 42.1133 171.795C42.6076 172.077 42.9869 172.472 43.2511 172.98C43.5181 173.486 43.6516 174.075 43.6516 174.749C43.6516 175.419 43.5181 176.009 43.2511 176.517C42.9869 177.023 42.6076 177.418 42.1133 177.702C41.6218 177.983 41.0323 178.124 40.3448 178.124ZM40.3576 176.551C40.6076 176.551 40.8192 176.474 40.9925 176.321C41.1658 176.168 41.2979 175.955 41.3888 175.682C41.4826 175.409 41.5295 175.094 41.5295 174.736C41.5295 174.372 41.4826 174.054 41.3888 173.781C41.2979 173.509 41.1658 173.295 40.9925 173.142C40.8192 172.989 40.6076 172.912 40.3576 172.912C40.0991 172.912 39.8803 172.989 39.7013 173.142C39.5252 173.295 39.3903 173.509 39.2965 173.781C39.2056 174.054 39.1602 174.372 39.1602 174.736C39.1602 175.094 39.2056 175.409 39.2965 175.682C39.3903 175.955 39.5252 176.168 39.7013 176.321C39.8803 176.474 40.0991 176.551 40.3576 176.551ZM47.1097 178.094C46.6268 178.094 46.1879 177.969 45.793 177.719C45.3981 177.469 45.0827 177.094 44.8469 176.594C44.6112 176.094 44.4933 175.473 44.4933 174.732C44.4933 173.962 44.6154 173.328 44.8597 172.831C45.104 172.334 45.4237 171.966 45.8185 171.727C46.2163 171.489 46.6438 171.369 47.1012 171.369C47.445 171.369 47.739 171.429 47.9833 171.548C48.2276 171.665 48.4293 171.815 48.5884 172C48.7475 172.185 48.8683 172.376 48.9506 172.575H48.9933V169.273H51.0771V178H49.0146V176.939H48.9506C48.8626 177.141 48.7376 177.33 48.5756 177.506C48.4137 177.682 48.2106 177.824 47.9663 177.932C47.7248 178.04 47.4393 178.094 47.1097 178.094ZM47.8342 176.47C48.087 176.47 48.3029 176.399 48.4819 176.257C48.6609 176.112 48.7987 175.909 48.8952 175.648C48.9918 175.386 49.0401 175.08 49.0401 174.727C49.0401 174.369 48.9918 174.061 48.8952 173.803C48.8015 173.544 48.6637 173.345 48.4819 173.206C48.3029 173.067 48.087 172.997 47.8342 172.997C47.5756 172.997 47.3569 173.068 47.1779 173.21C46.9989 173.352 46.8626 173.553 46.7688 173.811C46.6779 174.07 46.6325 174.375 46.6325 174.727C46.6325 175.08 46.6793 175.386 46.7731 175.648C46.8668 175.909 47.0018 176.112 47.1779 176.257C47.3569 176.399 47.5756 176.47 47.8342 176.47ZM57.0568 169.273V178H54.973V169.273H57.0568ZM61.4428 178.124C60.7582 178.124 60.1673 177.989 59.6701 177.719C59.1758 177.446 58.7951 177.058 58.5281 176.555C58.2638 176.05 58.1317 175.449 58.1317 174.753C58.1317 174.077 58.2653 173.486 58.5323 172.98C58.7994 172.472 59.1758 172.077 59.6616 171.795C60.1474 171.511 60.7198 171.369 61.3789 171.369C61.8448 171.369 62.271 171.442 62.6573 171.587C63.0437 171.732 63.3775 171.946 63.6587 172.23C63.94 172.514 64.1587 172.865 64.315 173.283C64.4712 173.697 64.5494 174.173 64.5494 174.71V175.23H58.8604V174.02H62.6104C62.6076 173.798 62.555 173.601 62.4528 173.428C62.3505 173.254 62.2099 173.119 62.0309 173.023C61.8548 172.923 61.6516 172.874 61.4215 172.874C61.1886 172.874 60.9798 172.926 60.7951 173.031C60.6104 173.134 60.4641 173.274 60.3562 173.453C60.2482 173.629 60.1914 173.83 60.1857 174.054V175.286C60.1857 175.553 60.2383 175.787 60.3434 175.989C60.4485 176.187 60.5977 176.342 60.7908 176.453C60.984 176.564 61.2141 176.619 61.4812 176.619C61.6658 176.619 61.8335 176.594 61.984 176.543C62.1346 176.491 62.2638 176.416 62.3718 176.317C62.4798 176.217 62.5607 176.095 62.6147 175.95L64.5281 176.006C64.4485 176.435 64.2738 176.808 64.0039 177.126C63.7369 177.442 63.386 177.687 62.9513 177.864C62.5167 178.037 62.0138 178.124 61.4428 178.124ZM69.3338 171.455V172.989H65.1236V171.455H69.3338ZM66.0014 178V171.122C66.0014 170.616 66.0966 170.197 66.2869 169.865C66.4773 169.53 66.7415 169.28 67.0795 169.115C67.4176 168.947 67.8082 168.864 68.2514 168.864C68.5412 168.864 68.8139 168.886 69.0696 168.932C69.3281 168.974 69.5199 169.013 69.6449 169.047L69.3125 170.572C69.2358 170.547 69.142 170.526 69.0312 170.509C68.9233 170.491 68.821 170.483 68.7244 170.483C68.4801 170.483 68.3125 170.537 68.2216 170.645C68.1307 170.753 68.0852 170.901 68.0852 171.088V178H66.0014ZM74.0309 171.455V172.989H69.9016V171.455H74.0309ZM70.7667 169.886H72.8505V175.942C72.8505 176.07 72.8704 176.173 72.9102 176.253C72.9528 176.33 73.0138 176.385 73.0934 176.419C73.1729 176.45 73.2681 176.466 73.3789 176.466C73.4585 176.466 73.5423 176.459 73.6303 176.445C73.7212 176.428 73.7894 176.413 73.8349 176.402L74.1502 177.906C74.0508 177.935 73.9102 177.97 73.7283 178.013C73.5494 178.055 73.3349 178.082 73.0849 178.094C72.5962 178.116 72.1772 178.06 71.8278 177.923C71.4812 177.784 71.2156 177.568 71.0309 177.276C70.8491 176.983 70.761 176.615 70.7667 176.172V169.886ZM80.7276 178.124C80.0373 178.124 79.445 177.982 78.9506 177.697C78.4592 177.413 78.0813 177.018 77.8171 176.513C77.5529 176.004 77.4208 175.416 77.4208 174.749C77.4208 174.078 77.5529 173.49 77.8171 172.984C78.0842 172.476 78.4634 172.08 78.9549 171.795C79.4492 171.511 80.0387 171.369 80.7234 171.369C81.3285 171.369 81.8555 171.479 82.3043 171.697C82.756 171.916 83.1083 172.226 83.3612 172.626C83.6168 173.024 83.7518 173.491 83.766 174.028H81.8185C81.7788 173.693 81.6651 173.43 81.4776 173.24C81.293 173.05 81.0515 172.955 80.7532 172.955C80.5117 172.955 80.3001 173.023 80.1183 173.159C79.9364 173.293 79.7944 173.491 79.6921 173.756C79.5927 174.017 79.543 174.341 79.543 174.727C79.543 175.114 79.5927 175.44 79.6921 175.707C79.7944 175.972 79.9364 176.172 80.1183 176.308C80.3001 176.442 80.5117 176.509 80.7532 176.509C80.9464 176.509 81.1168 176.467 81.2646 176.385C81.4151 176.303 81.5387 176.182 81.6353 176.023C81.7319 175.861 81.793 175.665 81.8185 175.435H83.766C83.7461 175.974 83.6112 176.446 83.3612 176.849C83.114 177.253 82.766 177.567 82.3171 177.791C81.8711 178.013 81.3413 178.124 80.7276 178.124ZM87.8878 178.124C87.2003 178.124 86.6094 177.983 86.1151 177.702C85.6236 177.418 85.2443 177.023 84.9773 176.517C84.7131 176.009 84.581 175.419 84.581 174.749C84.581 174.075 84.7131 173.486 84.9773 172.98C85.2443 172.472 85.6236 172.077 86.1151 171.795C86.6094 171.511 87.2003 171.369 87.8878 171.369C88.5753 171.369 89.1648 171.511 89.6562 171.795C90.1506 172.077 90.5298 172.472 90.794 172.98C91.0611 173.486 91.1946 174.075 91.1946 174.749C91.1946 175.419 91.0611 176.009 90.794 176.517C90.5298 177.023 90.1506 177.418 89.6562 177.702C89.1648 177.983 88.5753 178.124 87.8878 178.124ZM87.9006 176.551C88.1506 176.551 88.3622 176.474 88.5355 176.321C88.7088 176.168 88.8409 175.955 88.9318 175.682C89.0256 175.409 89.0724 175.094 89.0724 174.736C89.0724 174.372 89.0256 174.054 88.9318 173.781C88.8409 173.509 88.7088 173.295 88.5355 173.142C88.3622 172.989 88.1506 172.912 87.9006 172.912C87.642 172.912 87.4233 172.989 87.2443 173.142C87.0682 173.295 86.9332 173.509 86.8395 173.781C86.7486 174.054 86.7031 174.372 86.7031 174.736C86.7031 175.094 86.7486 175.409 86.8395 175.682C86.9332 175.955 87.0682 176.168 87.2443 176.321C87.4233 176.474 87.642 176.551 87.9006 176.551ZM92.2621 178V171.455H94.2862V172.648H94.3544C94.4737 172.216 94.6683 171.895 94.9382 171.685C95.2081 171.472 95.522 171.365 95.88 171.365C95.9766 171.365 96.076 171.372 96.1783 171.386C96.2805 171.398 96.3757 171.416 96.4638 171.442V173.253C96.3643 173.219 96.2337 173.192 96.0717 173.172C95.9126 173.152 95.7706 173.142 95.6456 173.142C95.3984 173.142 95.1754 173.197 94.9766 173.308C94.7805 173.416 94.6257 173.568 94.5121 173.764C94.4013 173.957 94.3459 174.185 94.3459 174.446V178H92.2621ZM99.3967 174.267V178H97.3129V171.455H99.2944V172.656H99.3668C99.5117 172.256 99.7589 171.942 100.108 171.714C100.458 171.484 100.874 171.369 101.357 171.369C101.817 171.369 102.216 171.473 102.554 171.68C102.895 171.885 103.159 172.172 103.347 172.541C103.537 172.908 103.631 173.337 103.628 173.828V178H101.544V174.237C101.547 173.874 101.455 173.589 101.267 173.385C101.083 173.18 100.826 173.078 100.496 173.078C100.277 173.078 100.084 173.126 99.9165 173.223C99.7518 173.317 99.6239 173.452 99.533 173.628C99.445 173.804 99.3995 174.017 99.3967 174.267ZM107.978 178.124C107.293 178.124 106.702 177.989 106.205 177.719C105.711 177.446 105.33 177.058 105.063 176.555C104.799 176.05 104.667 175.449 104.667 174.753C104.667 174.077 104.8 173.486 105.067 172.98C105.335 172.472 105.711 172.077 106.197 171.795C106.683 171.511 107.255 171.369 107.914 171.369C108.38 171.369 108.806 171.442 109.192 171.587C109.579 171.732 109.913 171.946 110.194 172.23C110.475 172.514 110.694 172.865 110.85 173.283C111.006 173.697 111.085 174.173 111.085 174.71V175.23H105.396V174.02H109.146C109.143 173.798 109.09 173.601 108.988 173.428C108.886 173.254 108.745 173.119 108.566 173.023C108.39 172.923 108.187 172.874 107.957 172.874C107.724 172.874 107.515 172.926 107.33 173.031C107.146 173.134 106.999 173.274 106.891 173.453C106.783 173.629 106.727 173.83 106.721 174.054V175.286C106.721 175.553 106.773 175.787 106.879 175.989C106.984 176.187 107.133 176.342 107.326 176.453C107.519 176.564 107.749 176.619 108.016 176.619C108.201 176.619 108.369 176.594 108.519 176.543C108.67 176.491 108.799 176.416 108.907 176.317C109.015 176.217 109.096 176.095 109.15 175.95L111.063 176.006C110.984 176.435 110.809 176.808 110.539 177.126C110.272 177.442 109.921 177.687 109.487 177.864C109.052 178.037 108.549 178.124 107.978 178.124ZM112.149 178V171.455H114.173V172.648H114.241C114.36 172.216 114.555 171.895 114.825 171.685C115.095 171.472 115.409 171.365 115.767 171.365C115.863 171.365 115.963 171.372 116.065 171.386C116.167 171.398 116.262 171.416 116.35 171.442V173.253C116.251 173.219 116.12 173.192 115.958 173.172C115.799 173.152 115.657 173.142 115.532 173.142C115.285 173.142 115.062 173.197 114.863 173.308C114.667 173.416 114.512 173.568 114.399 173.764C114.288 173.957 114.233 174.185 114.233 174.446V178H112.149Z" fill="black"/>
<rect x="160.5" y="147.5" width="215" height="146" fill="#D9D9D9" stroke="black" stroke-width="3"/>
<path d="M194.661 70.2727H197.273L199.489 75.6761H199.591L201.807 70.2727H204.419V79H202.365V73.6392H202.293L200.196 78.9446H198.884L196.787 73.6094H196.714V79H194.661V70.2727ZM208.79 79.1236C208.103 79.1236 207.512 78.983 207.017 78.7017C206.526 78.4176 206.147 78.0227 205.88 77.517C205.615 77.0085 205.483 76.419 205.483 75.7486C205.483 75.0753 205.615 74.4858 205.88 73.9801C206.147 73.4716 206.526 73.0767 207.017 72.7955C207.512 72.5114 208.103 72.3693 208.79 72.3693C209.478 72.3693 210.067 72.5114 210.559 72.7955C211.053 73.0767 211.432 73.4716 211.696 73.9801C211.963 74.4858 212.097 75.0753 212.097 75.7486C212.097 76.419 211.963 77.0085 211.696 77.517C211.432 78.0227 211.053 78.4176 210.559 78.7017C210.067 78.983 209.478 79.1236 208.79 79.1236ZM208.803 77.5511C209.053 77.5511 209.265 77.4744 209.438 77.321C209.611 77.1676 209.743 76.9545 209.834 76.6818C209.928 76.4091 209.975 76.0937 209.975 75.7358C209.975 75.3722 209.928 75.054 209.834 74.7812C209.743 74.5085 209.611 74.2955 209.438 74.142C209.265 73.9886 209.053 73.9119 208.803 73.9119C208.544 73.9119 208.326 73.9886 208.147 74.142C207.971 74.2955 207.836 74.5085 207.742 74.7812C207.651 75.054 207.605 75.3722 207.605 75.7358C207.605 76.0937 207.651 76.4091 207.742 76.6818C207.836 76.9545 207.971 77.1676 208.147 77.321C208.326 77.4744 208.544 77.5511 208.803 77.5511ZM215.248 75.267V79H213.164V72.4545H215.146V73.6562H215.218C215.363 73.2557 215.61 72.9418 215.96 72.7145C216.309 72.4844 216.725 72.3693 217.208 72.3693C217.669 72.3693 218.068 72.473 218.406 72.6804C218.747 72.8849 219.011 73.1719 219.199 73.5412C219.389 73.9077 219.483 74.3366 219.48 74.8281V79H217.396V75.2372C217.399 74.8736 217.306 74.5895 217.119 74.3849C216.934 74.1804 216.677 74.0781 216.348 74.0781C216.129 74.0781 215.936 74.1264 215.768 74.223C215.603 74.3168 215.475 74.4517 215.385 74.6278C215.297 74.804 215.251 75.017 215.248 75.267ZM220.77 79V72.4545H222.854V79H220.77ZM221.814 71.6918C221.521 71.6918 221.27 71.5952 221.06 71.402C220.849 71.206 220.744 70.9702 220.744 70.6946C220.744 70.4219 220.849 70.1889 221.06 69.9957C221.27 69.7997 221.521 69.7017 221.814 69.7017C222.109 69.7017 222.361 69.7997 222.568 69.9957C222.778 70.1889 222.884 70.4219 222.884 70.6946C222.884 70.9702 222.778 71.206 222.568 71.402C222.361 71.5952 222.109 71.6918 221.814 71.6918ZM227.875 72.4545V73.9886H223.745V72.4545H227.875ZM224.61 70.8864H226.694V76.9418C226.694 77.0696 226.714 77.1733 226.754 77.2528C226.797 77.3295 226.858 77.3849 226.937 77.419C227.017 77.4503 227.112 77.4659 227.223 77.4659C227.302 77.4659 227.386 77.4588 227.474 77.4446C227.565 77.4276 227.633 77.4134 227.679 77.402L227.994 78.9062C227.895 78.9347 227.754 78.9702 227.572 79.0128C227.393 79.0554 227.179 79.0824 226.929 79.0938C226.44 79.1165 226.021 79.0597 225.672 78.9233C225.325 78.7841 225.059 78.5682 224.875 78.2756C224.693 77.983 224.605 77.6151 224.61 77.1719V70.8864ZM231.923 79.1236C231.235 79.1236 230.645 78.983 230.15 78.7017C229.659 78.4176 229.279 78.0227 229.012 77.517C228.748 77.0085 228.616 76.419 228.616 75.7486C228.616 75.0753 228.748 74.4858 229.012 73.9801C229.279 73.4716 229.659 73.0767 230.15 72.7955C230.645 72.5114 231.235 72.3693 231.923 72.3693C232.61 72.3693 233.2 72.5114 233.691 72.7955C234.186 73.0767 234.565 73.4716 234.829 73.9801C235.096 74.4858 235.23 75.0753 235.23 75.7486C235.23 76.419 235.096 77.0085 234.829 77.517C234.565 78.0227 234.186 78.4176 233.691 78.7017C233.2 78.983 232.61 79.1236 231.923 79.1236ZM231.936 77.5511C232.186 77.5511 232.397 77.4744 232.571 77.321C232.744 77.1676 232.876 76.9545 232.967 76.6818C233.061 76.4091 233.108 76.0937 233.108 75.7358C233.108 75.3722 233.061 75.054 232.967 74.7812C232.876 74.5085 232.744 74.2955 232.571 74.142C232.397 73.9886 232.186 73.9119 231.936 73.9119C231.677 73.9119 231.458 73.9886 231.279 74.142C231.103 74.2955 230.968 74.5085 230.875 74.7812C230.784 75.054 230.738 75.3722 230.738 75.7358C230.738 76.0937 230.784 76.4091 230.875 76.6818C230.968 76.9545 231.103 77.1676 231.279 77.321C231.458 77.4744 231.677 77.5511 231.936 77.5511ZM236.297 79V72.4545H238.321V73.6477H238.39C238.509 73.2159 238.703 72.8949 238.973 72.6847C239.243 72.4716 239.557 72.3651 239.915 72.3651C240.012 72.3651 240.111 72.3722 240.213 72.3864C240.316 72.3977 240.411 72.4162 240.499 72.4418V74.2528C240.4 74.2187 240.269 74.1918 240.107 74.1719C239.948 74.152 239.806 74.142 239.681 74.142C239.434 74.142 239.211 74.1974 239.012 74.3082C238.816 74.4162 238.661 74.5682 238.547 74.7642C238.436 74.9574 238.381 75.1847 238.381 75.446V79H236.297ZM247.945 70.2727V79H245.839V72.2415H245.788L243.837 73.4347V71.6108L245.989 70.2727H247.945Z" fill="black"/>
<path d="M240.661 224.273H243.273L245.489 229.676H245.591L247.807 224.273H250.419V233H248.365V227.639H248.293L246.196 232.945H244.884L242.787 227.609H242.714V233H240.661V224.273ZM254.79 233.124C254.103 233.124 253.512 232.983 253.017 232.702C252.526 232.418 252.147 232.023 251.88 231.517C251.615 231.009 251.483 230.419 251.483 229.749C251.483 229.075 251.615 228.486 251.88 227.98C252.147 227.472 252.526 227.077 253.017 226.795C253.512 226.511 254.103 226.369 254.79 226.369C255.478 226.369 256.067 226.511 256.559 226.795C257.053 227.077 257.432 227.472 257.696 227.98C257.963 228.486 258.097 229.075 258.097 229.749C258.097 230.419 257.963 231.009 257.696 231.517C257.432 232.023 257.053 232.418 256.559 232.702C256.067 232.983 255.478 233.124 254.79 233.124ZM254.803 231.551C255.053 231.551 255.265 231.474 255.438 231.321C255.611 231.168 255.743 230.955 255.834 230.682C255.928 230.409 255.975 230.094 255.975 229.736C255.975 229.372 255.928 229.054 255.834 228.781C255.743 228.509 255.611 228.295 255.438 228.142C255.265 227.989 255.053 227.912 254.803 227.912C254.544 227.912 254.326 227.989 254.147 228.142C253.971 228.295 253.836 228.509 253.742 228.781C253.651 229.054 253.605 229.372 253.605 229.736C253.605 230.094 253.651 230.409 253.742 230.682C253.836 230.955 253.971 231.168 254.147 231.321C254.326 231.474 254.544 231.551 254.803 231.551ZM261.248 229.267V233H259.164V226.455H261.146V227.656H261.218C261.363 227.256 261.61 226.942 261.96 226.714C262.309 226.484 262.725 226.369 263.208 226.369C263.669 226.369 264.068 226.473 264.406 226.68C264.747 226.885 265.011 227.172 265.199 227.541C265.389 227.908 265.483 228.337 265.48 228.828V233H263.396V229.237C263.399 228.874 263.306 228.589 263.119 228.385C262.934 228.18 262.677 228.078 262.348 228.078C262.129 228.078 261.936 228.126 261.768 228.223C261.603 228.317 261.475 228.452 261.385 228.628C261.297 228.804 261.251 229.017 261.248 229.267ZM266.77 233V226.455H268.854V233H266.77ZM267.814 225.692C267.521 225.692 267.27 225.595 267.06 225.402C266.849 225.206 266.744 224.97 266.744 224.695C266.744 224.422 266.849 224.189 267.06 223.996C267.27 223.8 267.521 223.702 267.814 223.702C268.109 223.702 268.361 223.8 268.568 223.996C268.778 224.189 268.884 224.422 268.884 224.695C268.884 224.97 268.778 225.206 268.568 225.402C268.361 225.595 268.109 225.692 267.814 225.692ZM273.875 226.455V227.989H269.745V226.455H273.875ZM270.61 224.886H272.694V230.942C272.694 231.07 272.714 231.173 272.754 231.253C272.797 231.33 272.858 231.385 272.937 231.419C273.017 231.45 273.112 231.466 273.223 231.466C273.302 231.466 273.386 231.459 273.474 231.445C273.565 231.428 273.633 231.413 273.679 231.402L273.994 232.906C273.895 232.935 273.754 232.97 273.572 233.013C273.393 233.055 273.179 233.082 272.929 233.094C272.44 233.116 272.021 233.06 271.672 232.923C271.325 232.784 271.059 232.568 270.875 232.276C270.693 231.983 270.605 231.615 270.61 231.172V224.886ZM277.923 233.124C277.235 233.124 276.645 232.983 276.15 232.702C275.659 232.418 275.279 232.023 275.012 231.517C274.748 231.009 274.616 230.419 274.616 229.749C274.616 229.075 274.748 228.486 275.012 227.98C275.279 227.472 275.659 227.077 276.15 226.795C276.645 226.511 277.235 226.369 277.923 226.369C278.61 226.369 279.2 226.511 279.691 226.795C280.186 227.077 280.565 227.472 280.829 227.98C281.096 228.486 281.23 229.075 281.23 229.749C281.23 230.419 281.096 231.009 280.829 231.517C280.565 232.023 280.186 232.418 279.691 232.702C279.2 232.983 278.61 233.124 277.923 233.124ZM277.936 231.551C278.186 231.551 278.397 231.474 278.571 231.321C278.744 231.168 278.876 230.955 278.967 230.682C279.061 230.409 279.108 230.094 279.108 229.736C279.108 229.372 279.061 229.054 278.967 228.781C278.876 228.509 278.744 228.295 278.571 228.142C278.397 227.989 278.186 227.912 277.936 227.912C277.677 227.912 277.458 227.989 277.279 228.142C277.103 228.295 276.968 228.509 276.875 228.781C276.784 229.054 276.738 229.372 276.738 229.736C276.738 230.094 276.784 230.409 276.875 230.682C276.968 230.955 277.103 231.168 277.279 231.321C277.458 231.474 277.677 231.551 277.936 231.551ZM282.297 233V226.455H284.321V227.648H284.39C284.509 227.216 284.703 226.895 284.973 226.685C285.243 226.472 285.557 226.365 285.915 226.365C286.012 226.365 286.111 226.372 286.213 226.386C286.316 226.398 286.411 226.416 286.499 226.442V228.253C286.4 228.219 286.269 228.192 286.107 228.172C285.948 228.152 285.806 228.142 285.681 228.142C285.434 228.142 285.211 228.197 285.012 228.308C284.816 228.416 284.661 228.568 284.547 228.764C284.436 228.957 284.381 229.185 284.381 229.446V233H282.297ZM289.909 233V231.483L293.092 228.696C293.331 228.48 293.534 228.283 293.702 228.104C293.869 227.922 293.997 227.74 294.085 227.558C294.173 227.374 294.217 227.173 294.217 226.957C294.217 226.716 294.165 226.51 294.06 226.339C293.955 226.166 293.81 226.033 293.625 225.939C293.44 225.845 293.229 225.798 292.99 225.798C292.749 225.798 292.537 225.848 292.355 225.947C292.173 226.044 292.031 226.185 291.929 226.369C291.83 226.554 291.78 226.778 291.78 227.043H289.781C289.781 226.449 289.915 225.936 290.182 225.504C290.449 225.072 290.824 224.74 291.307 224.507C291.793 224.271 292.357 224.153 292.999 224.153C293.661 224.153 294.236 224.264 294.724 224.486C295.213 224.707 295.591 225.017 295.858 225.415C296.128 225.81 296.263 226.268 296.263 226.791C296.263 227.124 296.196 227.453 296.062 227.78C295.929 228.107 295.689 228.467 295.342 228.862C294.999 229.257 294.51 229.73 293.876 230.281L292.832 231.244V231.3H296.369V233H289.909Z" fill="black"/>
<rect x="356.5" y="274.5" width="133" height="92" fill="url(#paint1_linear_54_91)" stroke="#1AAC20" stroke-width="3"/>
<path d="M377.388 319.124C377.339 318.945 377.268 318.787 377.175 318.651C377.081 318.511 376.966 318.393 376.83 318.297C376.693 318.2 376.537 318.128 376.361 318.08C376.185 318.028 375.991 318.003 375.781 318.003C375.358 318.003 374.991 318.105 374.682 318.31C374.375 318.514 374.138 318.812 373.97 319.205C373.803 319.594 373.719 320.067 373.719 320.624C373.719 321.183 373.8 321.661 373.962 322.055C374.124 322.45 374.358 322.751 374.665 322.959C374.972 323.166 375.344 323.27 375.781 323.27C376.168 323.27 376.494 323.207 376.761 323.082C377.031 322.955 377.236 322.774 377.375 322.541C377.514 322.308 377.584 322.034 377.584 321.719L377.976 321.766H375.854V320.227H379.616V321.382C379.616 322.163 379.45 322.832 379.118 323.389C378.788 323.946 378.334 324.374 377.754 324.672C377.178 324.97 376.514 325.119 375.764 325.119C374.932 325.119 374.2 324.939 373.57 324.578C372.939 324.217 372.447 323.703 372.095 323.036C371.743 322.365 371.567 321.57 371.567 320.649C371.567 319.933 371.673 319.298 371.886 318.744C372.099 318.187 372.396 317.716 372.777 317.33C373.161 316.943 373.604 316.651 374.107 316.452C374.612 316.253 375.156 316.153 375.739 316.153C376.244 316.153 376.714 316.226 377.149 316.371C377.587 316.516 377.973 316.72 378.308 316.984C378.646 317.249 378.92 317.562 379.131 317.926C379.341 318.29 379.472 318.689 379.523 319.124H377.388ZM383.915 325.124C383.228 325.124 382.637 324.983 382.142 324.702C381.651 324.418 381.272 324.023 381.005 323.517C380.74 323.009 380.608 322.419 380.608 321.749C380.608 321.075 380.74 320.486 381.005 319.98C381.272 319.472 381.651 319.077 382.142 318.795C382.637 318.511 383.228 318.369 383.915 318.369C384.603 318.369 385.192 318.511 385.684 318.795C386.178 319.077 386.557 319.472 386.821 319.98C387.088 320.486 387.222 321.075 387.222 321.749C387.222 322.419 387.088 323.009 386.821 323.517C386.557 324.023 386.178 324.418 385.684 324.702C385.192 324.983 384.603 325.124 383.915 325.124ZM383.928 323.551C384.178 323.551 384.39 323.474 384.563 323.321C384.736 323.168 384.868 322.955 384.959 322.682C385.053 322.409 385.1 322.094 385.1 321.736C385.1 321.372 385.053 321.054 384.959 320.781C384.868 320.509 384.736 320.295 384.563 320.142C384.39 319.989 384.178 319.912 383.928 319.912C383.669 319.912 383.451 319.989 383.272 320.142C383.096 320.295 382.961 320.509 382.867 320.781C382.776 321.054 382.73 321.372 382.73 321.736C382.73 322.094 382.776 322.409 382.867 322.682C382.961 322.955 383.096 323.168 383.272 323.321C383.451 323.474 383.669 323.551 383.928 323.551ZM391.345 325.124C390.657 325.124 390.066 324.983 389.572 324.702C389.081 324.418 388.701 324.023 388.434 323.517C388.17 323.009 388.038 322.419 388.038 321.749C388.038 321.075 388.17 320.486 388.434 319.98C388.701 319.472 389.081 319.077 389.572 318.795C390.066 318.511 390.657 318.369 391.345 318.369C392.032 318.369 392.622 318.511 393.113 318.795C393.608 319.077 393.987 319.472 394.251 319.98C394.518 320.486 394.652 321.075 394.652 321.749C394.652 322.419 394.518 323.009 394.251 323.517C393.987 324.023 393.608 324.418 393.113 324.702C392.622 324.983 392.032 325.124 391.345 325.124ZM391.358 323.551C391.608 323.551 391.819 323.474 391.993 323.321C392.166 323.168 392.298 322.955 392.389 322.682C392.483 322.409 392.529 322.094 392.529 321.736C392.529 321.372 392.483 321.054 392.389 320.781C392.298 320.509 392.166 320.295 391.993 320.142C391.819 319.989 391.608 319.912 391.358 319.912C391.099 319.912 390.88 319.989 390.701 320.142C390.525 320.295 390.39 320.509 390.297 320.781C390.206 321.054 390.16 321.372 390.16 321.736C390.16 322.094 390.206 322.409 390.297 322.682C390.39 322.955 390.525 323.168 390.701 323.321C390.88 323.474 391.099 323.551 391.358 323.551ZM398.11 325.094C397.627 325.094 397.188 324.969 396.793 324.719C396.398 324.469 396.083 324.094 395.847 323.594C395.611 323.094 395.493 322.473 395.493 321.732C395.493 320.962 395.615 320.328 395.86 319.831C396.104 319.334 396.424 318.966 396.819 318.727C397.216 318.489 397.644 318.369 398.101 318.369C398.445 318.369 398.739 318.429 398.983 318.548C399.228 318.665 399.429 318.815 399.588 319C399.748 319.185 399.868 319.376 399.951 319.575H399.993V316.273H402.077V325H400.015V323.939H399.951C399.863 324.141 399.738 324.33 399.576 324.506C399.414 324.682 399.211 324.824 398.966 324.932C398.725 325.04 398.439 325.094 398.11 325.094ZM398.834 323.47C399.087 323.47 399.303 323.399 399.482 323.257C399.661 323.112 399.799 322.909 399.895 322.648C399.992 322.386 400.04 322.08 400.04 321.727C400.04 321.369 399.992 321.061 399.895 320.803C399.801 320.544 399.664 320.345 399.482 320.206C399.303 320.067 399.087 319.997 398.834 319.997C398.576 319.997 398.357 320.068 398.178 320.21C397.999 320.352 397.863 320.553 397.769 320.811C397.678 321.07 397.632 321.375 397.632 321.727C397.632 322.08 397.679 322.386 397.773 322.648C397.867 322.909 398.002 323.112 398.178 323.257C398.357 323.399 398.576 323.47 398.834 323.47ZM405.973 325V318.455H407.997V319.648H408.065C408.185 319.216 408.379 318.895 408.649 318.685C408.919 318.472 409.233 318.365 409.591 318.365C409.688 318.365 409.787 318.372 409.889 318.386C409.991 318.398 410.087 318.416 410.175 318.442V320.253C410.075 320.219 409.945 320.192 409.783 320.172C409.624 320.152 409.482 320.142 409.357 320.142C409.109 320.142 408.886 320.197 408.688 320.308C408.491 320.416 408.337 320.568 408.223 320.764C408.112 320.957 408.057 321.185 408.057 321.446V325H405.973ZM411.024 325V318.455H413.108V325H411.024ZM412.068 317.692C411.775 317.692 411.524 317.595 411.314 317.402C411.103 317.206 410.998 316.97 410.998 316.695C410.998 316.422 411.103 316.189 411.314 315.996C411.524 315.8 411.775 315.702 412.068 315.702C412.363 315.702 412.615 315.8 412.822 315.996C413.032 316.189 413.137 316.422 413.137 316.695C413.137 316.97 413.032 317.206 412.822 317.402C412.615 317.595 412.363 317.692 412.068 317.692ZM417.485 327.591C416.863 327.591 416.33 327.504 415.887 327.331C415.444 327.158 415.096 326.92 414.843 326.619C414.59 326.318 414.438 325.977 414.387 325.597L416.36 325.486C416.397 325.619 416.465 325.736 416.565 325.835C416.667 325.935 416.799 326.011 416.961 326.065C417.126 326.119 417.319 326.146 417.54 326.146C417.89 326.146 418.178 326.061 418.406 325.891C418.636 325.723 418.751 325.429 418.751 325.009V323.858H418.678C418.596 324.06 418.471 324.24 418.303 324.399C418.136 324.558 417.927 324.683 417.677 324.774C417.43 324.865 417.146 324.911 416.825 324.911C416.347 324.911 415.91 324.8 415.512 324.578C415.117 324.354 414.8 324.007 414.562 323.538C414.326 323.067 414.208 322.46 414.208 321.719C414.208 320.955 414.33 320.325 414.575 319.831C414.819 319.334 415.138 318.966 415.533 318.727C415.931 318.489 416.359 318.369 416.816 318.369C417.16 318.369 417.454 318.429 417.698 318.548C417.945 318.665 418.148 318.815 418.308 319C418.467 319.185 418.587 319.376 418.67 319.575H418.729V318.455H420.805V325.026C420.805 325.58 420.665 326.047 420.387 326.428C420.109 326.808 419.719 327.097 419.219 327.293C418.719 327.491 418.141 327.591 417.485 327.591ZM417.549 323.393C417.802 323.393 418.018 323.327 418.197 323.193C418.376 323.06 418.513 322.868 418.61 322.618C418.707 322.368 418.755 322.068 418.755 321.719C418.755 321.364 418.707 321.058 418.61 320.803C418.516 320.544 418.379 320.345 418.197 320.206C418.018 320.067 417.802 319.997 417.549 319.997C417.29 319.997 417.072 320.068 416.893 320.21C416.714 320.352 416.577 320.553 416.484 320.811C416.393 321.067 416.347 321.369 416.347 321.719C416.347 322.068 416.394 322.368 416.488 322.618C416.582 322.868 416.717 323.06 416.893 323.193C417.072 323.327 417.29 323.393 417.549 323.393ZM424.217 321.267V325H422.133V316.273H424.149V319.656H424.221C424.369 319.253 424.61 318.937 424.946 318.71C425.284 318.483 425.697 318.369 426.186 318.369C426.646 318.369 427.047 318.472 427.387 318.676C427.728 318.878 427.993 319.163 428.18 319.533C428.37 319.902 428.464 320.334 428.461 320.828V325H426.377V321.237C426.38 320.874 426.289 320.589 426.105 320.385C425.92 320.18 425.66 320.078 425.325 320.078C425.106 320.078 424.913 320.126 424.745 320.223C424.581 320.317 424.451 320.452 424.358 320.628C424.267 320.804 424.22 321.017 424.217 321.267ZM433.457 318.455V319.989H429.327V318.455H433.457ZM430.192 316.886H432.276V322.942C432.276 323.07 432.296 323.173 432.336 323.253C432.379 323.33 432.44 323.385 432.519 323.419C432.599 323.45 432.694 323.466 432.805 323.466C432.884 323.466 432.968 323.459 433.056 323.445C433.147 323.428 433.215 323.413 433.261 323.402L433.576 324.906C433.477 324.935 433.336 324.97 433.154 325.013C432.975 325.055 432.761 325.082 432.511 325.094C432.022 325.116 431.603 325.06 431.254 324.923C430.907 324.784 430.641 324.568 430.457 324.276C430.275 323.983 430.187 323.615 430.192 323.172V316.886ZM440.153 325.124C439.463 325.124 438.871 324.982 438.376 324.697C437.885 324.413 437.507 324.018 437.243 323.513C436.979 323.004 436.847 322.416 436.847 321.749C436.847 321.078 436.979 320.49 437.243 319.984C437.51 319.476 437.889 319.08 438.381 318.795C438.875 318.511 439.464 318.369 440.149 318.369C440.754 318.369 441.281 318.479 441.73 318.697C442.182 318.916 442.534 319.226 442.787 319.626C443.043 320.024 443.178 320.491 443.192 321.028H441.244C441.205 320.693 441.091 320.43 440.903 320.24C440.719 320.05 440.477 319.955 440.179 319.955C439.938 319.955 439.726 320.023 439.544 320.159C439.362 320.293 439.22 320.491 439.118 320.756C439.018 321.017 438.969 321.341 438.969 321.727C438.969 322.114 439.018 322.44 439.118 322.707C439.22 322.972 439.362 323.172 439.544 323.308C439.726 323.442 439.938 323.509 440.179 323.509C440.372 323.509 440.543 323.467 440.69 323.385C440.841 323.303 440.964 323.182 441.061 323.023C441.158 322.861 441.219 322.665 441.244 322.435H443.192C443.172 322.974 443.037 323.446 442.787 323.849C442.54 324.253 442.192 324.567 441.743 324.791C441.297 325.013 440.767 325.124 440.153 325.124ZM447.314 325.124C446.626 325.124 446.035 324.983 445.541 324.702C445.049 324.418 444.67 324.023 444.403 323.517C444.139 323.009 444.007 322.419 444.007 321.749C444.007 321.075 444.139 320.486 444.403 319.98C444.67 319.472 445.049 319.077 445.541 318.795C446.035 318.511 446.626 318.369 447.314 318.369C448.001 318.369 448.591 318.511 449.082 318.795C449.576 319.077 449.956 319.472 450.22 319.98C450.487 320.486 450.62 321.075 450.62 321.749C450.62 322.419 450.487 323.009 450.22 323.517C449.956 324.023 449.576 324.418 449.082 324.702C448.591 324.983 448.001 325.124 447.314 325.124ZM447.326 323.551C447.576 323.551 447.788 323.474 447.961 323.321C448.135 323.168 448.267 322.955 448.358 322.682C448.451 322.409 448.498 322.094 448.498 321.736C448.498 321.372 448.451 321.054 448.358 320.781C448.267 320.509 448.135 320.295 447.961 320.142C447.788 319.989 447.576 319.912 447.326 319.912C447.068 319.912 446.849 319.989 446.67 320.142C446.494 320.295 446.359 320.509 446.265 320.781C446.174 321.054 446.129 321.372 446.129 321.736C446.129 322.094 446.174 322.409 446.265 322.682C446.359 322.955 446.494 323.168 446.67 323.321C446.849 323.474 447.068 323.551 447.326 323.551ZM451.688 325V318.455H453.712V319.648H453.78C453.9 319.216 454.094 318.895 454.364 318.685C454.634 318.472 454.948 318.365 455.306 318.365C455.402 318.365 455.502 318.372 455.604 318.386C455.706 318.398 455.801 318.416 455.89 318.442V320.253C455.79 320.219 455.659 320.192 455.498 320.172C455.338 320.152 455.196 320.142 455.071 320.142C454.824 320.142 454.601 320.197 454.402 320.308C454.206 320.416 454.051 320.568 453.938 320.764C453.827 320.957 453.772 321.185 453.772 321.446V325H451.688ZM458.822 321.267V325H456.739V318.455H458.72V319.656H458.793C458.938 319.256 459.185 318.942 459.534 318.714C459.884 318.484 460.3 318.369 460.783 318.369C461.243 318.369 461.642 318.473 461.98 318.68C462.321 318.885 462.585 319.172 462.773 319.541C462.963 319.908 463.057 320.337 463.054 320.828V325H460.97V321.237C460.973 320.874 460.881 320.589 460.693 320.385C460.509 320.18 460.251 320.078 459.922 320.078C459.703 320.078 459.51 320.126 459.342 320.223C459.178 320.317 459.05 320.452 458.959 320.628C458.871 320.804 458.825 321.017 458.822 321.267ZM467.404 325.124C466.719 325.124 466.128 324.989 465.631 324.719C465.137 324.446 464.756 324.058 464.489 323.555C464.225 323.05 464.093 322.449 464.093 321.753C464.093 321.077 464.226 320.486 464.493 319.98C464.76 319.472 465.137 319.077 465.623 318.795C466.108 318.511 466.681 318.369 467.34 318.369C467.806 318.369 468.232 318.442 468.618 318.587C469.005 318.732 469.338 318.946 469.62 319.23C469.901 319.514 470.12 319.865 470.276 320.283C470.432 320.697 470.51 321.173 470.51 321.71V322.23H464.821V321.02H468.571C468.569 320.798 468.516 320.601 468.414 320.428C468.311 320.254 468.171 320.119 467.992 320.023C467.816 319.923 467.613 319.874 467.382 319.874C467.15 319.874 466.941 319.926 466.756 320.031C466.571 320.134 466.425 320.274 466.317 320.453C466.209 320.629 466.152 320.83 466.147 321.054V322.286C466.147 322.553 466.199 322.787 466.304 322.989C466.409 323.187 466.559 323.342 466.752 323.453C466.945 323.564 467.175 323.619 467.442 323.619C467.627 323.619 467.794 323.594 467.945 323.543C468.096 323.491 468.225 323.416 468.333 323.317C468.441 323.217 468.522 323.095 468.576 322.95L470.489 323.006C470.409 323.435 470.235 323.808 469.965 324.126C469.698 324.442 469.347 324.687 468.912 324.864C468.478 325.037 467.975 325.124 467.404 325.124ZM471.575 325V318.455H473.599V319.648H473.667C473.786 319.216 473.981 318.895 474.251 318.685C474.521 318.472 474.835 318.365 475.192 318.365C475.289 318.365 475.388 318.372 475.491 318.386C475.593 318.398 475.688 318.416 475.776 318.442V320.253C475.677 320.219 475.546 320.192 475.384 320.172C475.225 320.152 475.083 320.142 474.958 320.142C474.711 320.142 474.488 320.197 474.289 320.308C474.093 320.416 473.938 320.568 473.825 320.764C473.714 320.957 473.658 321.185 473.658 321.446V325H471.575Z" fill="black"/>
<defs>
<linearGradient id="paint0_linear_54_91" x1="136" y1="126" x2="41.5" y2="187" gradientUnits="userSpaceOnUse">
<stop stop-color="#1AAC20"/>
<stop offset="1" stop-color="#737373" stop-opacity="0"/>
</linearGradient>
<linearGradient id="paint1_linear_54_91" x1="359.5" y1="273" x2="447.5" y2="331.5" gradientUnits="userSpaceOnUse">
<stop stop-color="#1AAC20"/>
<stop offset="1" stop-color="#737373" stop-opacity="0"/>
</linearGradient>
</defs>
</svg>
