<svg width="775" height="349" viewBox="0 0 775 349" fill="none" xmlns="http://www.w3.org/2000/svg">
<rect x="119.5" y="151.5" width="175" height="119" fill="#D9D9D9" stroke="black" stroke-width="3"/>
<rect x="513.5" y="1.5" width="147" height="232" fill="#D9D9D9" stroke="black" stroke-width="3"/>
<rect x="297.5" y="124.5" width="215" height="146" fill="#D9D9D9" stroke="black" stroke-width="3"/>
<path d="M179.661 206.273H182.273L184.489 211.676H184.591L186.807 206.273H189.419V215H187.365V209.639H187.293L185.196 214.945H183.884L181.787 209.609H181.714V215H179.661V206.273ZM193.79 215.124C193.103 215.124 192.512 214.983 192.017 214.702C191.526 214.418 191.147 214.023 190.88 213.517C190.615 213.009 190.483 212.419 190.483 211.749C190.483 211.075 190.615 210.486 190.88 209.98C191.147 209.472 191.526 209.077 192.017 208.795C192.512 208.511 193.103 208.369 193.79 208.369C194.478 208.369 195.067 208.511 195.559 208.795C196.053 209.077 196.432 209.472 196.696 209.98C196.963 210.486 197.097 211.075 197.097 211.749C197.097 212.419 196.963 213.009 196.696 213.517C196.432 214.023 196.053 214.418 195.559 214.702C195.067 214.983 194.478 215.124 193.79 215.124ZM193.803 213.551C194.053 213.551 194.265 213.474 194.438 213.321C194.611 213.168 194.743 212.955 194.834 212.682C194.928 212.409 194.975 212.094 194.975 211.736C194.975 211.372 194.928 211.054 194.834 210.781C194.743 210.509 194.611 210.295 194.438 210.142C194.265 209.989 194.053 209.912 193.803 209.912C193.544 209.912 193.326 209.989 193.147 210.142C192.971 210.295 192.836 210.509 192.742 210.781C192.651 211.054 192.605 211.372 192.605 211.736C192.605 212.094 192.651 212.409 192.742 212.682C192.836 212.955 192.971 213.168 193.147 213.321C193.326 213.474 193.544 213.551 193.803 213.551ZM200.248 211.267V215H198.164V208.455H200.146V209.656H200.218C200.363 209.256 200.61 208.942 200.96 208.714C201.309 208.484 201.725 208.369 202.208 208.369C202.669 208.369 203.068 208.473 203.406 208.68C203.747 208.885 204.011 209.172 204.199 209.541C204.389 209.908 204.483 210.337 204.48 210.828V215H202.396V211.237C202.399 210.874 202.306 210.589 202.119 210.385C201.934 210.18 201.677 210.078 201.348 210.078C201.129 210.078 200.936 210.126 200.768 210.223C200.603 210.317 200.475 210.452 200.385 210.628C200.297 210.804 200.251 211.017 200.248 211.267ZM205.77 215V208.455H207.854V215H205.77ZM206.814 207.692C206.521 207.692 206.27 207.595 206.06 207.402C205.849 207.206 205.744 206.97 205.744 206.695C205.744 206.422 205.849 206.189 206.06 205.996C206.27 205.8 206.521 205.702 206.814 205.702C207.109 205.702 207.361 205.8 207.568 205.996C207.778 206.189 207.884 206.422 207.884 206.695C207.884 206.97 207.778 207.206 207.568 207.402C207.361 207.595 207.109 207.692 206.814 207.692ZM212.875 208.455V209.989H208.745V208.455H212.875ZM209.61 206.886H211.694V212.942C211.694 213.07 211.714 213.173 211.754 213.253C211.797 213.33 211.858 213.385 211.937 213.419C212.017 213.45 212.112 213.466 212.223 213.466C212.302 213.466 212.386 213.459 212.474 213.445C212.565 213.428 212.633 213.413 212.679 213.402L212.994 214.906C212.895 214.935 212.754 214.97 212.572 215.013C212.393 215.055 212.179 215.082 211.929 215.094C211.44 215.116 211.021 215.06 210.672 214.923C210.325 214.784 210.059 214.568 209.875 214.276C209.693 213.983 209.605 213.615 209.61 213.172V206.886ZM216.923 215.124C216.235 215.124 215.645 214.983 215.15 214.702C214.659 214.418 214.279 214.023 214.012 213.517C213.748 213.009 213.616 212.419 213.616 211.749C213.616 211.075 213.748 210.486 214.012 209.98C214.279 209.472 214.659 209.077 215.15 208.795C215.645 208.511 216.235 208.369 216.923 208.369C217.61 208.369 218.2 208.511 218.691 208.795C219.186 209.077 219.565 209.472 219.829 209.98C220.096 210.486 220.23 211.075 220.23 211.749C220.23 212.419 220.096 213.009 219.829 213.517C219.565 214.023 219.186 214.418 218.691 214.702C218.2 214.983 217.61 215.124 216.923 215.124ZM216.936 213.551C217.186 213.551 217.397 213.474 217.571 213.321C217.744 213.168 217.876 212.955 217.967 212.682C218.061 212.409 218.108 212.094 218.108 211.736C218.108 211.372 218.061 211.054 217.967 210.781C217.876 210.509 217.744 210.295 217.571 210.142C217.397 209.989 217.186 209.912 216.936 209.912C216.677 209.912 216.458 209.989 216.279 210.142C216.103 210.295 215.968 210.509 215.875 210.781C215.784 211.054 215.738 211.372 215.738 211.736C215.738 212.094 215.784 212.409 215.875 212.682C215.968 212.955 216.103 213.168 216.279 213.321C216.458 213.474 216.677 213.551 216.936 213.551ZM221.297 215V208.455H223.321V209.648H223.39C223.509 209.216 223.703 208.895 223.973 208.685C224.243 208.472 224.557 208.365 224.915 208.365C225.012 208.365 225.111 208.372 225.213 208.386C225.316 208.398 225.411 208.416 225.499 208.442V210.253C225.4 210.219 225.269 210.192 225.107 210.172C224.948 210.152 224.806 210.142 224.681 210.142C224.434 210.142 224.211 210.197 224.012 210.308C223.816 210.416 223.661 210.568 223.547 210.764C223.436 210.957 223.381 211.185 223.381 211.446V215H221.297ZM232.945 206.273V215H230.839V208.241H230.788L228.837 209.435V207.611L230.989 206.273H232.945Z" fill="black"/>
<path d="M377.661 189.273H380.273L382.489 194.676H382.591L384.807 189.273H387.419V198H385.365V192.639H385.293L383.196 197.945H381.884L379.787 192.609H379.714V198H377.661V189.273ZM391.79 198.124C391.103 198.124 390.512 197.983 390.017 197.702C389.526 197.418 389.147 197.023 388.88 196.517C388.615 196.009 388.483 195.419 388.483 194.749C388.483 194.075 388.615 193.486 388.88 192.98C389.147 192.472 389.526 192.077 390.017 191.795C390.512 191.511 391.103 191.369 391.79 191.369C392.478 191.369 393.067 191.511 393.559 191.795C394.053 192.077 394.432 192.472 394.696 192.98C394.963 193.486 395.097 194.075 395.097 194.749C395.097 195.419 394.963 196.009 394.696 196.517C394.432 197.023 394.053 197.418 393.559 197.702C393.067 197.983 392.478 198.124 391.79 198.124ZM391.803 196.551C392.053 196.551 392.265 196.474 392.438 196.321C392.611 196.168 392.743 195.955 392.834 195.682C392.928 195.409 392.975 195.094 392.975 194.736C392.975 194.372 392.928 194.054 392.834 193.781C392.743 193.509 392.611 193.295 392.438 193.142C392.265 192.989 392.053 192.912 391.803 192.912C391.544 192.912 391.326 192.989 391.147 193.142C390.971 193.295 390.836 193.509 390.742 193.781C390.651 194.054 390.605 194.372 390.605 194.736C390.605 195.094 390.651 195.409 390.742 195.682C390.836 195.955 390.971 196.168 391.147 196.321C391.326 196.474 391.544 196.551 391.803 196.551ZM398.248 194.267V198H396.164V191.455H398.146V192.656H398.218C398.363 192.256 398.61 191.942 398.96 191.714C399.309 191.484 399.725 191.369 400.208 191.369C400.669 191.369 401.068 191.473 401.406 191.68C401.747 191.885 402.011 192.172 402.199 192.541C402.389 192.908 402.483 193.337 402.48 193.828V198H400.396V194.237C400.399 193.874 400.306 193.589 400.119 193.385C399.934 193.18 399.677 193.078 399.348 193.078C399.129 193.078 398.936 193.126 398.768 193.223C398.603 193.317 398.475 193.452 398.385 193.628C398.297 193.804 398.251 194.017 398.248 194.267ZM403.77 198V191.455H405.854V198H403.77ZM404.814 190.692C404.521 190.692 404.27 190.595 404.06 190.402C403.849 190.206 403.744 189.97 403.744 189.695C403.744 189.422 403.849 189.189 404.06 188.996C404.27 188.8 404.521 188.702 404.814 188.702C405.109 188.702 405.361 188.8 405.568 188.996C405.778 189.189 405.884 189.422 405.884 189.695C405.884 189.97 405.778 190.206 405.568 190.402C405.361 190.595 405.109 190.692 404.814 190.692ZM410.875 191.455V192.989H406.745V191.455H410.875ZM407.61 189.886H409.694V195.942C409.694 196.07 409.714 196.173 409.754 196.253C409.797 196.33 409.858 196.385 409.937 196.419C410.017 196.45 410.112 196.466 410.223 196.466C410.302 196.466 410.386 196.459 410.474 196.445C410.565 196.428 410.633 196.413 410.679 196.402L410.994 197.906C410.895 197.935 410.754 197.97 410.572 198.013C410.393 198.055 410.179 198.082 409.929 198.094C409.44 198.116 409.021 198.06 408.672 197.923C408.325 197.784 408.059 197.568 407.875 197.276C407.693 196.983 407.605 196.615 407.61 196.172V189.886ZM414.923 198.124C414.235 198.124 413.645 197.983 413.15 197.702C412.659 197.418 412.279 197.023 412.012 196.517C411.748 196.009 411.616 195.419 411.616 194.749C411.616 194.075 411.748 193.486 412.012 192.98C412.279 192.472 412.659 192.077 413.15 191.795C413.645 191.511 414.235 191.369 414.923 191.369C415.61 191.369 416.2 191.511 416.691 191.795C417.186 192.077 417.565 192.472 417.829 192.98C418.096 193.486 418.23 194.075 418.23 194.749C418.23 195.419 418.096 196.009 417.829 196.517C417.565 197.023 417.186 197.418 416.691 197.702C416.2 197.983 415.61 198.124 414.923 198.124ZM414.936 196.551C415.186 196.551 415.397 196.474 415.571 196.321C415.744 196.168 415.876 195.955 415.967 195.682C416.061 195.409 416.108 195.094 416.108 194.736C416.108 194.372 416.061 194.054 415.967 193.781C415.876 193.509 415.744 193.295 415.571 193.142C415.397 192.989 415.186 192.912 414.936 192.912C414.677 192.912 414.458 192.989 414.279 193.142C414.103 193.295 413.968 193.509 413.875 193.781C413.784 194.054 413.738 194.372 413.738 194.736C413.738 195.094 413.784 195.409 413.875 195.682C413.968 195.955 414.103 196.168 414.279 196.321C414.458 196.474 414.677 196.551 414.936 196.551ZM419.297 198V191.455H421.321V192.648H421.39C421.509 192.216 421.703 191.895 421.973 191.685C422.243 191.472 422.557 191.365 422.915 191.365C423.012 191.365 423.111 191.372 423.213 191.386C423.316 191.398 423.411 191.416 423.499 191.442V193.253C423.4 193.219 423.269 193.192 423.107 193.172C422.948 193.152 422.806 193.142 422.681 193.142C422.434 193.142 422.211 193.197 422.012 193.308C421.816 193.416 421.661 193.568 421.547 193.764C421.436 193.957 421.381 194.185 421.381 194.446V198H419.297ZM426.909 198V196.483L430.092 193.696C430.331 193.48 430.534 193.283 430.702 193.104C430.869 192.922 430.997 192.74 431.085 192.558C431.173 192.374 431.217 192.173 431.217 191.957C431.217 191.716 431.165 191.51 431.06 191.339C430.955 191.166 430.81 191.033 430.625 190.939C430.44 190.845 430.229 190.798 429.99 190.798C429.749 190.798 429.537 190.848 429.355 190.947C429.173 191.044 429.031 191.185 428.929 191.369C428.83 191.554 428.78 191.778 428.78 192.043H426.781C426.781 191.449 426.915 190.936 427.182 190.504C427.449 190.072 427.824 189.74 428.307 189.507C428.793 189.271 429.357 189.153 429.999 189.153C430.661 189.153 431.236 189.264 431.724 189.486C432.213 189.707 432.591 190.017 432.858 190.415C433.128 190.81 433.263 191.268 433.263 191.791C433.263 192.124 433.196 192.453 433.062 192.78C432.929 193.107 432.689 193.467 432.342 193.862C431.999 194.257 431.51 194.73 430.876 195.281L429.832 196.244V196.3H433.369V198H426.909Z" fill="black"/>
<path d="M558.661 118.273H561.273L563.489 123.676H563.591L565.807 118.273H568.419V127H566.365V121.639H566.293L564.196 126.945H562.884L560.787 121.609H560.714V127H558.661V118.273ZM572.79 127.124C572.103 127.124 571.512 126.983 571.017 126.702C570.526 126.418 570.147 126.023 569.88 125.517C569.615 125.009 569.483 124.419 569.483 123.749C569.483 123.075 569.615 122.486 569.88 121.98C570.147 121.472 570.526 121.077 571.017 120.795C571.512 120.511 572.103 120.369 572.79 120.369C573.478 120.369 574.067 120.511 574.559 120.795C575.053 121.077 575.432 121.472 575.696 121.98C575.963 122.486 576.097 123.075 576.097 123.749C576.097 124.419 575.963 125.009 575.696 125.517C575.432 126.023 575.053 126.418 574.559 126.702C574.067 126.983 573.478 127.124 572.79 127.124ZM572.803 125.551C573.053 125.551 573.265 125.474 573.438 125.321C573.611 125.168 573.743 124.955 573.834 124.682C573.928 124.409 573.975 124.094 573.975 123.736C573.975 123.372 573.928 123.054 573.834 122.781C573.743 122.509 573.611 122.295 573.438 122.142C573.265 121.989 573.053 121.912 572.803 121.912C572.544 121.912 572.326 121.989 572.147 122.142C571.971 122.295 571.836 122.509 571.742 122.781C571.651 123.054 571.605 123.372 571.605 123.736C571.605 124.094 571.651 124.409 571.742 124.682C571.836 124.955 571.971 125.168 572.147 125.321C572.326 125.474 572.544 125.551 572.803 125.551ZM579.248 123.267V127H577.164V120.455H579.146V121.656H579.218C579.363 121.256 579.61 120.942 579.96 120.714C580.309 120.484 580.725 120.369 581.208 120.369C581.669 120.369 582.068 120.473 582.406 120.68C582.747 120.885 583.011 121.172 583.199 121.541C583.389 121.908 583.483 122.337 583.48 122.828V127H581.396V123.237C581.399 122.874 581.306 122.589 581.119 122.385C580.934 122.18 580.677 122.078 580.348 122.078C580.129 122.078 579.936 122.126 579.768 122.223C579.603 122.317 579.475 122.452 579.385 122.628C579.297 122.804 579.251 123.017 579.248 123.267ZM584.77 127V120.455H586.854V127H584.77ZM585.814 119.692C585.521 119.692 585.27 119.595 585.06 119.402C584.849 119.206 584.744 118.97 584.744 118.695C584.744 118.422 584.849 118.189 585.06 117.996C585.27 117.8 585.521 117.702 585.814 117.702C586.109 117.702 586.361 117.8 586.568 117.996C586.778 118.189 586.884 118.422 586.884 118.695C586.884 118.97 586.778 119.206 586.568 119.402C586.361 119.595 586.109 119.692 585.814 119.692ZM591.875 120.455V121.989H587.745V120.455H591.875ZM588.61 118.886H590.694V124.942C590.694 125.07 590.714 125.173 590.754 125.253C590.797 125.33 590.858 125.385 590.937 125.419C591.017 125.45 591.112 125.466 591.223 125.466C591.302 125.466 591.386 125.459 591.474 125.445C591.565 125.428 591.633 125.413 591.679 125.402L591.994 126.906C591.895 126.935 591.754 126.97 591.572 127.013C591.393 127.055 591.179 127.082 590.929 127.094C590.44 127.116 590.021 127.06 589.672 126.923C589.325 126.784 589.059 126.568 588.875 126.276C588.693 125.983 588.605 125.615 588.61 125.172V118.886ZM595.923 127.124C595.235 127.124 594.645 126.983 594.15 126.702C593.659 126.418 593.279 126.023 593.012 125.517C592.748 125.009 592.616 124.419 592.616 123.749C592.616 123.075 592.748 122.486 593.012 121.98C593.279 121.472 593.659 121.077 594.15 120.795C594.645 120.511 595.235 120.369 595.923 120.369C596.61 120.369 597.2 120.511 597.691 120.795C598.186 121.077 598.565 121.472 598.829 121.98C599.096 122.486 599.23 123.075 599.23 123.749C599.23 124.419 599.096 125.009 598.829 125.517C598.565 126.023 598.186 126.418 597.691 126.702C597.2 126.983 596.61 127.124 595.923 127.124ZM595.936 125.551C596.186 125.551 596.397 125.474 596.571 125.321C596.744 125.168 596.876 124.955 596.967 124.682C597.061 124.409 597.108 124.094 597.108 123.736C597.108 123.372 597.061 123.054 596.967 122.781C596.876 122.509 596.744 122.295 596.571 122.142C596.397 121.989 596.186 121.912 595.936 121.912C595.677 121.912 595.458 121.989 595.279 122.142C595.103 122.295 594.968 122.509 594.875 122.781C594.784 123.054 594.738 123.372 594.738 123.736C594.738 124.094 594.784 124.409 594.875 124.682C594.968 124.955 595.103 125.168 595.279 125.321C595.458 125.474 595.677 125.551 595.936 125.551ZM600.297 127V120.455H602.321V121.648H602.39C602.509 121.216 602.703 120.895 602.973 120.685C603.243 120.472 603.557 120.365 603.915 120.365C604.012 120.365 604.111 120.372 604.213 120.386C604.316 120.398 604.411 120.416 604.499 120.442V122.253C604.4 122.219 604.269 122.192 604.107 122.172C603.948 122.152 603.806 122.142 603.681 122.142C603.434 122.142 603.211 122.197 603.012 122.308C602.816 122.416 602.661 122.568 602.547 122.764C602.436 122.957 602.381 123.185 602.381 123.446V127H600.297ZM611.229 127.119C610.564 127.119 609.974 127.006 609.46 126.778C608.949 126.548 608.545 126.232 608.25 125.828C607.955 125.425 607.804 124.96 607.798 124.435H609.92C609.929 124.625 609.99 124.794 610.104 124.942C610.217 125.087 610.372 125.2 610.568 125.283C610.764 125.365 610.987 125.406 611.237 125.406C611.487 125.406 611.707 125.362 611.898 125.274C612.091 125.183 612.241 125.06 612.349 124.903C612.457 124.744 612.51 124.562 612.507 124.358C612.51 124.153 612.452 123.972 612.332 123.812C612.213 123.653 612.044 123.53 611.825 123.442C611.609 123.354 611.354 123.31 611.058 123.31H610.21V121.81H611.058C611.317 121.81 611.544 121.767 611.74 121.682C611.939 121.597 612.094 121.477 612.205 121.324C612.315 121.168 612.369 120.989 612.366 120.787C612.369 120.591 612.322 120.419 612.226 120.271C612.132 120.121 612 120.004 611.83 119.922C611.662 119.839 611.467 119.798 611.246 119.798C611.013 119.798 610.801 119.839 610.611 119.922C610.423 120.004 610.274 120.121 610.163 120.271C610.053 120.422 609.994 120.597 609.989 120.795H607.973C607.979 120.276 608.124 119.818 608.408 119.423C608.692 119.026 609.078 118.714 609.567 118.49C610.058 118.266 610.618 118.153 611.246 118.153C611.871 118.153 612.42 118.263 612.895 118.482C613.369 118.7 613.739 118.999 614.003 119.376C614.267 119.751 614.399 120.176 614.399 120.651C614.402 121.142 614.241 121.547 613.918 121.865C613.597 122.183 613.183 122.379 612.678 122.453V122.521C613.354 122.601 613.864 122.82 614.207 123.178C614.554 123.536 614.726 123.983 614.723 124.52C614.723 125.026 614.574 125.474 614.276 125.866C613.98 126.256 613.568 126.562 613.04 126.787C612.514 127.009 611.911 127.119 611.229 127.119Z" fill="black"/>
<rect x="640.5" y="214.5" width="133" height="92" fill="url(#paint0_linear_54_90)" stroke="#1AAC20" stroke-width="3"/>
<rect x="1.5" y="255.5" width="133" height="92" fill="url(#paint1_linear_54_90)" stroke="#1AAC20" stroke-width="3"/>
<path d="M26.3878 300.124C26.3395 299.945 26.2685 299.787 26.1747 299.651C26.081 299.511 25.9659 299.393 25.8295 299.297C25.6932 299.2 25.5369 299.128 25.3608 299.08C25.1847 299.028 24.9915 299.003 24.7812 299.003C24.358 299.003 23.9915 299.105 23.6818 299.31C23.375 299.514 23.1378 299.812 22.9702 300.205C22.8026 300.594 22.7188 301.067 22.7188 301.624C22.7188 302.183 22.7997 302.661 22.9616 303.055C23.1236 303.45 23.358 303.751 23.6648 303.959C23.9716 304.166 24.3438 304.27 24.7812 304.27C25.1676 304.27 25.4943 304.207 25.7614 304.082C26.0313 303.955 26.2358 303.774 26.375 303.541C26.5142 303.308 26.5838 303.034 26.5838 302.719L26.9759 302.766H24.8537V301.227H28.6165V302.382C28.6165 303.163 28.4503 303.832 28.1179 304.389C27.7884 304.946 27.3338 305.374 26.7543 305.672C26.1776 305.97 25.5142 306.119 24.7642 306.119C23.9318 306.119 23.2003 305.939 22.5696 305.578C21.9389 305.217 21.4474 304.703 21.0952 304.036C20.7429 303.365 20.5668 302.57 20.5668 301.649C20.5668 300.933 20.6733 300.298 20.8864 299.744C21.0994 299.187 21.3963 298.716 21.777 298.33C22.1605 297.943 22.6037 297.651 23.1065 297.452C23.6122 297.253 24.1563 297.153 24.7386 297.153C25.2443 297.153 25.7145 297.226 26.1491 297.371C26.5866 297.516 26.973 297.72 27.3082 297.984C27.6463 298.249 27.9205 298.562 28.1307 298.926C28.3409 299.29 28.4716 299.689 28.5227 300.124H26.3878ZM32.9151 306.124C32.2276 306.124 31.6367 305.983 31.1424 305.702C30.6509 305.418 30.2717 305.023 30.0046 304.517C29.7404 304.009 29.6083 303.419 29.6083 302.749C29.6083 302.075 29.7404 301.486 30.0046 300.98C30.2717 300.472 30.6509 300.077 31.1424 299.795C31.6367 299.511 32.2276 299.369 32.9151 299.369C33.6026 299.369 34.1921 299.511 34.6836 299.795C35.1779 300.077 35.5572 300.472 35.8214 300.98C36.0884 301.486 36.2219 302.075 36.2219 302.749C36.2219 303.419 36.0884 304.009 35.8214 304.517C35.5572 305.023 35.1779 305.418 34.6836 305.702C34.1921 305.983 33.6026 306.124 32.9151 306.124ZM32.9279 304.551C33.1779 304.551 33.3896 304.474 33.5629 304.321C33.7362 304.168 33.8683 303.955 33.9592 303.682C34.0529 303.409 34.0998 303.094 34.0998 302.736C34.0998 302.372 34.0529 302.054 33.9592 301.781C33.8683 301.509 33.7362 301.295 33.5629 301.142C33.3896 300.989 33.1779 300.912 32.9279 300.912C32.6694 300.912 32.4506 300.989 32.2717 301.142C32.0955 301.295 31.9606 301.509 31.8668 301.781C31.7759 302.054 31.7305 302.372 31.7305 302.736C31.7305 303.094 31.7759 303.409 31.8668 303.682C31.9606 303.955 32.0955 304.168 32.2717 304.321C32.4506 304.474 32.6694 304.551 32.9279 304.551ZM40.3448 306.124C39.6573 306.124 39.0664 305.983 38.5721 305.702C38.0806 305.418 37.7013 305.023 37.4343 304.517C37.1701 304.009 37.038 303.419 37.038 302.749C37.038 302.075 37.1701 301.486 37.4343 300.98C37.7013 300.472 38.0806 300.077 38.5721 299.795C39.0664 299.511 39.6573 299.369 40.3448 299.369C41.0323 299.369 41.6218 299.511 42.1133 299.795C42.6076 300.077 42.9869 300.472 43.2511 300.98C43.5181 301.486 43.6516 302.075 43.6516 302.749C43.6516 303.419 43.5181 304.009 43.2511 304.517C42.9869 305.023 42.6076 305.418 42.1133 305.702C41.6218 305.983 41.0323 306.124 40.3448 306.124ZM40.3576 304.551C40.6076 304.551 40.8192 304.474 40.9925 304.321C41.1658 304.168 41.2979 303.955 41.3888 303.682C41.4826 303.409 41.5295 303.094 41.5295 302.736C41.5295 302.372 41.4826 302.054 41.3888 301.781C41.2979 301.509 41.1658 301.295 40.9925 301.142C40.8192 300.989 40.6076 300.912 40.3576 300.912C40.0991 300.912 39.8803 300.989 39.7013 301.142C39.5252 301.295 39.3903 301.509 39.2965 301.781C39.2056 302.054 39.1602 302.372 39.1602 302.736C39.1602 303.094 39.2056 303.409 39.2965 303.682C39.3903 303.955 39.5252 304.168 39.7013 304.321C39.8803 304.474 40.0991 304.551 40.3576 304.551ZM47.1097 306.094C46.6268 306.094 46.1879 305.969 45.793 305.719C45.3981 305.469 45.0827 305.094 44.8469 304.594C44.6112 304.094 44.4933 303.473 44.4933 302.732C44.4933 301.962 44.6154 301.328 44.8597 300.831C45.104 300.334 45.4237 299.966 45.8185 299.727C46.2163 299.489 46.6438 299.369 47.1012 299.369C47.445 299.369 47.739 299.429 47.9833 299.548C48.2276 299.665 48.4293 299.815 48.5884 300C48.7475 300.185 48.8683 300.376 48.9506 300.575H48.9933V297.273H51.0771V306H49.0146V304.939H48.9506C48.8626 305.141 48.7376 305.33 48.5756 305.506C48.4137 305.682 48.2106 305.824 47.9663 305.932C47.7248 306.04 47.4393 306.094 47.1097 306.094ZM47.8342 304.47C48.087 304.47 48.3029 304.399 48.4819 304.257C48.6609 304.112 48.7987 303.909 48.8952 303.648C48.9918 303.386 49.0401 303.08 49.0401 302.727C49.0401 302.369 48.9918 302.061 48.8952 301.803C48.8015 301.544 48.6637 301.345 48.4819 301.206C48.3029 301.067 48.087 300.997 47.8342 300.997C47.5756 300.997 47.3569 301.068 47.1779 301.21C46.9989 301.352 46.8626 301.553 46.7688 301.811C46.6779 302.07 46.6325 302.375 46.6325 302.727C46.6325 303.08 46.6793 303.386 46.7731 303.648C46.8668 303.909 47.0018 304.112 47.1779 304.257C47.3569 304.399 47.5756 304.47 47.8342 304.47ZM57.0568 297.273V306H54.973V297.273H57.0568ZM61.4428 306.124C60.7582 306.124 60.1673 305.989 59.6701 305.719C59.1758 305.446 58.7951 305.058 58.5281 304.555C58.2638 304.05 58.1317 303.449 58.1317 302.753C58.1317 302.077 58.2653 301.486 58.5323 300.98C58.7994 300.472 59.1758 300.077 59.6616 299.795C60.1474 299.511 60.7198 299.369 61.3789 299.369C61.8448 299.369 62.271 299.442 62.6573 299.587C63.0437 299.732 63.3775 299.946 63.6587 300.23C63.94 300.514 64.1587 300.865 64.315 301.283C64.4712 301.697 64.5494 302.173 64.5494 302.71V303.23H58.8604V302.02H62.6104C62.6076 301.798 62.555 301.601 62.4528 301.428C62.3505 301.254 62.2099 301.119 62.0309 301.023C61.8548 300.923 61.6516 300.874 61.4215 300.874C61.1886 300.874 60.9798 300.926 60.7951 301.031C60.6104 301.134 60.4641 301.274 60.3562 301.453C60.2482 301.629 60.1914 301.83 60.1857 302.054V303.286C60.1857 303.553 60.2383 303.787 60.3434 303.989C60.4485 304.187 60.5977 304.342 60.7908 304.453C60.984 304.564 61.2141 304.619 61.4812 304.619C61.6658 304.619 61.8335 304.594 61.984 304.543C62.1346 304.491 62.2638 304.416 62.3718 304.317C62.4798 304.217 62.5607 304.095 62.6147 303.95L64.5281 304.006C64.4485 304.435 64.2738 304.808 64.0039 305.126C63.7369 305.442 63.386 305.687 62.9513 305.864C62.5167 306.037 62.0138 306.124 61.4428 306.124ZM69.3338 299.455V300.989H65.1236V299.455H69.3338ZM66.0014 306V299.122C66.0014 298.616 66.0966 298.197 66.2869 297.865C66.4773 297.53 66.7415 297.28 67.0795 297.115C67.4176 296.947 67.8082 296.864 68.2514 296.864C68.5412 296.864 68.8139 296.886 69.0696 296.932C69.3281 296.974 69.5199 297.013 69.6449 297.047L69.3125 298.572C69.2358 298.547 69.142 298.526 69.0312 298.509C68.9233 298.491 68.821 298.483 68.7244 298.483C68.4801 298.483 68.3125 298.537 68.2216 298.645C68.1307 298.753 68.0852 298.901 68.0852 299.088V306H66.0014ZM74.0309 299.455V300.989H69.9016V299.455H74.0309ZM70.7667 297.886H72.8505V303.942C72.8505 304.07 72.8704 304.173 72.9102 304.253C72.9528 304.33 73.0138 304.385 73.0934 304.419C73.1729 304.45 73.2681 304.466 73.3789 304.466C73.4585 304.466 73.5423 304.459 73.6303 304.445C73.7212 304.428 73.7894 304.413 73.8349 304.402L74.1502 305.906C74.0508 305.935 73.9102 305.97 73.7283 306.013C73.5494 306.055 73.3349 306.082 73.0849 306.094C72.5962 306.116 72.1772 306.06 71.8278 305.923C71.4812 305.784 71.2156 305.568 71.0309 305.276C70.8491 304.983 70.761 304.615 70.7667 304.172V297.886ZM80.7276 306.124C80.0373 306.124 79.445 305.982 78.9506 305.697C78.4592 305.413 78.0813 305.018 77.8171 304.513C77.5529 304.004 77.4208 303.416 77.4208 302.749C77.4208 302.078 77.5529 301.49 77.8171 300.984C78.0842 300.476 78.4634 300.08 78.9549 299.795C79.4492 299.511 80.0387 299.369 80.7234 299.369C81.3285 299.369 81.8555 299.479 82.3043 299.697C82.756 299.916 83.1083 300.226 83.3612 300.626C83.6168 301.024 83.7518 301.491 83.766 302.028H81.8185C81.7788 301.693 81.6651 301.43 81.4776 301.24C81.293 301.05 81.0515 300.955 80.7532 300.955C80.5117 300.955 80.3001 301.023 80.1183 301.159C79.9364 301.293 79.7944 301.491 79.6921 301.756C79.5927 302.017 79.543 302.341 79.543 302.727C79.543 303.114 79.5927 303.44 79.6921 303.707C79.7944 303.972 79.9364 304.172 80.1183 304.308C80.3001 304.442 80.5117 304.509 80.7532 304.509C80.9464 304.509 81.1168 304.467 81.2646 304.385C81.4151 304.303 81.5387 304.182 81.6353 304.023C81.7319 303.861 81.793 303.665 81.8185 303.435H83.766C83.7461 303.974 83.6112 304.446 83.3612 304.849C83.114 305.253 82.766 305.567 82.3171 305.791C81.8711 306.013 81.3413 306.124 80.7276 306.124ZM87.8878 306.124C87.2003 306.124 86.6094 305.983 86.1151 305.702C85.6236 305.418 85.2443 305.023 84.9773 304.517C84.7131 304.009 84.581 303.419 84.581 302.749C84.581 302.075 84.7131 301.486 84.9773 300.98C85.2443 300.472 85.6236 300.077 86.1151 299.795C86.6094 299.511 87.2003 299.369 87.8878 299.369C88.5753 299.369 89.1648 299.511 89.6562 299.795C90.1506 300.077 90.5298 300.472 90.794 300.98C91.0611 301.486 91.1946 302.075 91.1946 302.749C91.1946 303.419 91.0611 304.009 90.794 304.517C90.5298 305.023 90.1506 305.418 89.6562 305.702C89.1648 305.983 88.5753 306.124 87.8878 306.124ZM87.9006 304.551C88.1506 304.551 88.3622 304.474 88.5355 304.321C88.7088 304.168 88.8409 303.955 88.9318 303.682C89.0256 303.409 89.0724 303.094 89.0724 302.736C89.0724 302.372 89.0256 302.054 88.9318 301.781C88.8409 301.509 88.7088 301.295 88.5355 301.142C88.3622 300.989 88.1506 300.912 87.9006 300.912C87.642 300.912 87.4233 300.989 87.2443 301.142C87.0682 301.295 86.9332 301.509 86.8395 301.781C86.7486 302.054 86.7031 302.372 86.7031 302.736C86.7031 303.094 86.7486 303.409 86.8395 303.682C86.9332 303.955 87.0682 304.168 87.2443 304.321C87.4233 304.474 87.642 304.551 87.9006 304.551ZM92.2621 306V299.455H94.2862V300.648H94.3544C94.4737 300.216 94.6683 299.895 94.9382 299.685C95.2081 299.472 95.522 299.365 95.88 299.365C95.9766 299.365 96.076 299.372 96.1783 299.386C96.2805 299.398 96.3757 299.416 96.4638 299.442V301.253C96.3643 301.219 96.2337 301.192 96.0717 301.172C95.9126 301.152 95.7706 301.142 95.6456 301.142C95.3984 301.142 95.1754 301.197 94.9766 301.308C94.7805 301.416 94.6257 301.568 94.5121 301.764C94.4013 301.957 94.3459 302.185 94.3459 302.446V306H92.2621ZM99.3967 302.267V306H97.3129V299.455H99.2944V300.656H99.3668C99.5117 300.256 99.7589 299.942 100.108 299.714C100.458 299.484 100.874 299.369 101.357 299.369C101.817 299.369 102.216 299.473 102.554 299.68C102.895 299.885 103.159 300.172 103.347 300.541C103.537 300.908 103.631 301.337 103.628 301.828V306H101.544V302.237C101.547 301.874 101.455 301.589 101.267 301.385C101.083 301.18 100.826 301.078 100.496 301.078C100.277 301.078 100.084 301.126 99.9165 301.223C99.7518 301.317 99.6239 301.452 99.533 301.628C99.445 301.804 99.3995 302.017 99.3967 302.267ZM107.978 306.124C107.293 306.124 106.702 305.989 106.205 305.719C105.711 305.446 105.33 305.058 105.063 304.555C104.799 304.05 104.667 303.449 104.667 302.753C104.667 302.077 104.8 301.486 105.067 300.98C105.335 300.472 105.711 300.077 106.197 299.795C106.683 299.511 107.255 299.369 107.914 299.369C108.38 299.369 108.806 299.442 109.192 299.587C109.579 299.732 109.913 299.946 110.194 300.23C110.475 300.514 110.694 300.865 110.85 301.283C111.006 301.697 111.085 302.173 111.085 302.71V303.23H105.396V302.02H109.146C109.143 301.798 109.09 301.601 108.988 301.428C108.886 301.254 108.745 301.119 108.566 301.023C108.39 300.923 108.187 300.874 107.957 300.874C107.724 300.874 107.515 300.926 107.33 301.031C107.146 301.134 106.999 301.274 106.891 301.453C106.783 301.629 106.727 301.83 106.721 302.054V303.286C106.721 303.553 106.773 303.787 106.879 303.989C106.984 304.187 107.133 304.342 107.326 304.453C107.519 304.564 107.749 304.619 108.016 304.619C108.201 304.619 108.369 304.594 108.519 304.543C108.67 304.491 108.799 304.416 108.907 304.317C109.015 304.217 109.096 304.095 109.15 303.95L111.063 304.006C110.984 304.435 110.809 304.808 110.539 305.126C110.272 305.442 109.921 305.687 109.487 305.864C109.052 306.037 108.549 306.124 107.978 306.124ZM112.149 306V299.455H114.173V300.648H114.241C114.36 300.216 114.555 299.895 114.825 299.685C115.095 299.472 115.409 299.365 115.767 299.365C115.863 299.365 115.963 299.372 116.065 299.386C116.167 299.398 116.262 299.416 116.35 299.442V301.253C116.251 301.219 116.12 301.192 115.958 301.172C115.799 301.152 115.657 301.142 115.532 301.142C115.285 301.142 115.062 301.197 114.863 301.308C114.667 301.416 114.512 301.568 114.399 301.764C114.288 301.957 114.233 302.185 114.233 302.446V306H112.149Z" fill="black"/>
<path d="M661.388 259.124C661.339 258.945 661.268 258.787 661.175 258.651C661.081 258.511 660.966 258.393 660.83 258.297C660.693 258.2 660.537 258.128 660.361 258.08C660.185 258.028 659.991 258.003 659.781 258.003C659.358 258.003 658.991 258.105 658.682 258.31C658.375 258.514 658.138 258.812 657.97 259.205C657.803 259.594 657.719 260.067 657.719 260.624C657.719 261.183 657.8 261.661 657.962 262.055C658.124 262.45 658.358 262.751 658.665 262.959C658.972 263.166 659.344 263.27 659.781 263.27C660.168 263.27 660.494 263.207 660.761 263.082C661.031 262.955 661.236 262.774 661.375 262.541C661.514 262.308 661.584 262.034 661.584 261.719L661.976 261.766H659.854V260.227H663.616V261.382C663.616 262.163 663.45 262.832 663.118 263.389C662.788 263.946 662.334 264.374 661.754 264.672C661.178 264.97 660.514 265.119 659.764 265.119C658.932 265.119 658.2 264.939 657.57 264.578C656.939 264.217 656.447 263.703 656.095 263.036C655.743 262.365 655.567 261.57 655.567 260.649C655.567 259.933 655.673 259.298 655.886 258.744C656.099 258.187 656.396 257.716 656.777 257.33C657.161 256.943 657.604 256.651 658.107 256.452C658.612 256.253 659.156 256.153 659.739 256.153C660.244 256.153 660.714 256.226 661.149 256.371C661.587 256.516 661.973 256.72 662.308 256.984C662.646 257.249 662.92 257.562 663.131 257.926C663.341 258.29 663.472 258.689 663.523 259.124H661.388ZM667.915 265.124C667.228 265.124 666.637 264.983 666.142 264.702C665.651 264.418 665.272 264.023 665.005 263.517C664.74 263.009 664.608 262.419 664.608 261.749C664.608 261.075 664.74 260.486 665.005 259.98C665.272 259.472 665.651 259.077 666.142 258.795C666.637 258.511 667.228 258.369 667.915 258.369C668.603 258.369 669.192 258.511 669.684 258.795C670.178 259.077 670.557 259.472 670.821 259.98C671.088 260.486 671.222 261.075 671.222 261.749C671.222 262.419 671.088 263.009 670.821 263.517C670.557 264.023 670.178 264.418 669.684 264.702C669.192 264.983 668.603 265.124 667.915 265.124ZM667.928 263.551C668.178 263.551 668.39 263.474 668.563 263.321C668.736 263.168 668.868 262.955 668.959 262.682C669.053 262.409 669.1 262.094 669.1 261.736C669.1 261.372 669.053 261.054 668.959 260.781C668.868 260.509 668.736 260.295 668.563 260.142C668.39 259.989 668.178 259.912 667.928 259.912C667.669 259.912 667.451 259.989 667.272 260.142C667.096 260.295 666.961 260.509 666.867 260.781C666.776 261.054 666.73 261.372 666.73 261.736C666.73 262.094 666.776 262.409 666.867 262.682C666.961 262.955 667.096 263.168 667.272 263.321C667.451 263.474 667.669 263.551 667.928 263.551ZM675.345 265.124C674.657 265.124 674.066 264.983 673.572 264.702C673.081 264.418 672.701 264.023 672.434 263.517C672.17 263.009 672.038 262.419 672.038 261.749C672.038 261.075 672.17 260.486 672.434 259.98C672.701 259.472 673.081 259.077 673.572 258.795C674.066 258.511 674.657 258.369 675.345 258.369C676.032 258.369 676.622 258.511 677.113 258.795C677.608 259.077 677.987 259.472 678.251 259.98C678.518 260.486 678.652 261.075 678.652 261.749C678.652 262.419 678.518 263.009 678.251 263.517C677.987 264.023 677.608 264.418 677.113 264.702C676.622 264.983 676.032 265.124 675.345 265.124ZM675.358 263.551C675.608 263.551 675.819 263.474 675.993 263.321C676.166 263.168 676.298 262.955 676.389 262.682C676.483 262.409 676.529 262.094 676.529 261.736C676.529 261.372 676.483 261.054 676.389 260.781C676.298 260.509 676.166 260.295 675.993 260.142C675.819 259.989 675.608 259.912 675.358 259.912C675.099 259.912 674.88 259.989 674.701 260.142C674.525 260.295 674.39 260.509 674.297 260.781C674.206 261.054 674.16 261.372 674.16 261.736C674.16 262.094 674.206 262.409 674.297 262.682C674.39 262.955 674.525 263.168 674.701 263.321C674.88 263.474 675.099 263.551 675.358 263.551ZM682.11 265.094C681.627 265.094 681.188 264.969 680.793 264.719C680.398 264.469 680.083 264.094 679.847 263.594C679.611 263.094 679.493 262.473 679.493 261.732C679.493 260.962 679.615 260.328 679.86 259.831C680.104 259.334 680.424 258.966 680.819 258.727C681.216 258.489 681.644 258.369 682.101 258.369C682.445 258.369 682.739 258.429 682.983 258.548C683.228 258.665 683.429 258.815 683.588 259C683.748 259.185 683.868 259.376 683.951 259.575H683.993V256.273H686.077V265H684.015V263.939H683.951C683.863 264.141 683.738 264.33 683.576 264.506C683.414 264.682 683.211 264.824 682.966 264.932C682.725 265.04 682.439 265.094 682.11 265.094ZM682.834 263.47C683.087 263.47 683.303 263.399 683.482 263.257C683.661 263.112 683.799 262.909 683.895 262.648C683.992 262.386 684.04 262.08 684.04 261.727C684.04 261.369 683.992 261.061 683.895 260.803C683.801 260.544 683.664 260.345 683.482 260.206C683.303 260.067 683.087 259.997 682.834 259.997C682.576 259.997 682.357 260.068 682.178 260.21C681.999 260.352 681.863 260.553 681.769 260.811C681.678 261.07 681.632 261.375 681.632 261.727C681.632 262.08 681.679 262.386 681.773 262.648C681.867 262.909 682.002 263.112 682.178 263.257C682.357 263.399 682.576 263.47 682.834 263.47ZM689.973 265V258.455H691.997V259.648H692.065C692.185 259.216 692.379 258.895 692.649 258.685C692.919 258.472 693.233 258.365 693.591 258.365C693.688 258.365 693.787 258.372 693.889 258.386C693.991 258.398 694.087 258.416 694.175 258.442V260.253C694.075 260.219 693.945 260.192 693.783 260.172C693.624 260.152 693.482 260.142 693.357 260.142C693.109 260.142 692.886 260.197 692.688 260.308C692.491 260.416 692.337 260.568 692.223 260.764C692.112 260.957 692.057 261.185 692.057 261.446V265H689.973ZM695.024 265V258.455H697.108V265H695.024ZM696.068 257.692C695.775 257.692 695.524 257.595 695.314 257.402C695.103 257.206 694.998 256.97 694.998 256.695C694.998 256.422 695.103 256.189 695.314 255.996C695.524 255.8 695.775 255.702 696.068 255.702C696.363 255.702 696.615 255.8 696.822 255.996C697.032 256.189 697.137 256.422 697.137 256.695C697.137 256.97 697.032 257.206 696.822 257.402C696.615 257.595 696.363 257.692 696.068 257.692ZM701.485 267.591C700.863 267.591 700.33 267.504 699.887 267.331C699.444 267.158 699.096 266.92 698.843 266.619C698.59 266.318 698.438 265.977 698.387 265.597L700.36 265.486C700.397 265.619 700.465 265.736 700.565 265.835C700.667 265.935 700.799 266.011 700.961 266.065C701.126 266.119 701.319 266.146 701.54 266.146C701.89 266.146 702.178 266.061 702.406 265.891C702.636 265.723 702.751 265.429 702.751 265.009V263.858H702.678C702.596 264.06 702.471 264.24 702.303 264.399C702.136 264.558 701.927 264.683 701.677 264.774C701.43 264.865 701.146 264.911 700.825 264.911C700.347 264.911 699.91 264.8 699.512 264.578C699.117 264.354 698.8 264.007 698.562 263.538C698.326 263.067 698.208 262.46 698.208 261.719C698.208 260.955 698.33 260.325 698.575 259.831C698.819 259.334 699.138 258.966 699.533 258.727C699.931 258.489 700.359 258.369 700.816 258.369C701.16 258.369 701.454 258.429 701.698 258.548C701.945 258.665 702.148 258.815 702.308 259C702.467 259.185 702.587 259.376 702.67 259.575H702.729V258.455H704.805V265.026C704.805 265.58 704.665 266.047 704.387 266.428C704.109 266.808 703.719 267.097 703.219 267.293C702.719 267.491 702.141 267.591 701.485 267.591ZM701.549 263.393C701.802 263.393 702.018 263.327 702.197 263.193C702.376 263.06 702.513 262.868 702.61 262.618C702.707 262.368 702.755 262.068 702.755 261.719C702.755 261.364 702.707 261.058 702.61 260.803C702.516 260.544 702.379 260.345 702.197 260.206C702.018 260.067 701.802 259.997 701.549 259.997C701.29 259.997 701.072 260.068 700.893 260.21C700.714 260.352 700.577 260.553 700.484 260.811C700.393 261.067 700.347 261.369 700.347 261.719C700.347 262.068 700.394 262.368 700.488 262.618C700.582 262.868 700.717 263.06 700.893 263.193C701.072 263.327 701.29 263.393 701.549 263.393ZM708.217 261.267V265H706.133V256.273H708.149V259.656H708.221C708.369 259.253 708.61 258.937 708.946 258.71C709.284 258.483 709.697 258.369 710.186 258.369C710.646 258.369 711.047 258.472 711.387 258.676C711.728 258.878 711.993 259.163 712.18 259.533C712.37 259.902 712.464 260.334 712.461 260.828V265H710.377V261.237C710.38 260.874 710.289 260.589 710.105 260.385C709.92 260.18 709.66 260.078 709.325 260.078C709.106 260.078 708.913 260.126 708.745 260.223C708.581 260.317 708.451 260.452 708.358 260.628C708.267 260.804 708.22 261.017 708.217 261.267ZM717.457 258.455V259.989H713.327V258.455H717.457ZM714.192 256.886H716.276V262.942C716.276 263.07 716.296 263.173 716.336 263.253C716.379 263.33 716.44 263.385 716.519 263.419C716.599 263.45 716.694 263.466 716.805 263.466C716.884 263.466 716.968 263.459 717.056 263.445C717.147 263.428 717.215 263.413 717.261 263.402L717.576 264.906C717.477 264.935 717.336 264.97 717.154 265.013C716.975 265.055 716.761 265.082 716.511 265.094C716.022 265.116 715.603 265.06 715.254 264.923C714.907 264.784 714.641 264.568 714.457 264.276C714.275 263.983 714.187 263.615 714.192 263.172V256.886ZM724.153 265.124C723.463 265.124 722.871 264.982 722.376 264.697C721.885 264.413 721.507 264.018 721.243 263.513C720.979 263.004 720.847 262.416 720.847 261.749C720.847 261.078 720.979 260.49 721.243 259.984C721.51 259.476 721.889 259.08 722.381 258.795C722.875 258.511 723.464 258.369 724.149 258.369C724.754 258.369 725.281 258.479 725.73 258.697C726.182 258.916 726.534 259.226 726.787 259.626C727.043 260.024 727.178 260.491 727.192 261.028H725.244C725.205 260.693 725.091 260.43 724.903 260.24C724.719 260.05 724.477 259.955 724.179 259.955C723.938 259.955 723.726 260.023 723.544 260.159C723.362 260.293 723.22 260.491 723.118 260.756C723.018 261.017 722.969 261.341 722.969 261.727C722.969 262.114 723.018 262.44 723.118 262.707C723.22 262.972 723.362 263.172 723.544 263.308C723.726 263.442 723.938 263.509 724.179 263.509C724.372 263.509 724.543 263.467 724.69 263.385C724.841 263.303 724.964 263.182 725.061 263.023C725.158 262.861 725.219 262.665 725.244 262.435H727.192C727.172 262.974 727.037 263.446 726.787 263.849C726.54 264.253 726.192 264.567 725.743 264.791C725.297 265.013 724.767 265.124 724.153 265.124ZM731.314 265.124C730.626 265.124 730.035 264.983 729.541 264.702C729.049 264.418 728.67 264.023 728.403 263.517C728.139 263.009 728.007 262.419 728.007 261.749C728.007 261.075 728.139 260.486 728.403 259.98C728.67 259.472 729.049 259.077 729.541 258.795C730.035 258.511 730.626 258.369 731.314 258.369C732.001 258.369 732.591 258.511 733.082 258.795C733.576 259.077 733.956 259.472 734.22 259.98C734.487 260.486 734.62 261.075 734.62 261.749C734.62 262.419 734.487 263.009 734.22 263.517C733.956 264.023 733.576 264.418 733.082 264.702C732.591 264.983 732.001 265.124 731.314 265.124ZM731.326 263.551C731.576 263.551 731.788 263.474 731.961 263.321C732.135 263.168 732.267 262.955 732.358 262.682C732.451 262.409 732.498 262.094 732.498 261.736C732.498 261.372 732.451 261.054 732.358 260.781C732.267 260.509 732.135 260.295 731.961 260.142C731.788 259.989 731.576 259.912 731.326 259.912C731.068 259.912 730.849 259.989 730.67 260.142C730.494 260.295 730.359 260.509 730.265 260.781C730.174 261.054 730.129 261.372 730.129 261.736C730.129 262.094 730.174 262.409 730.265 262.682C730.359 262.955 730.494 263.168 730.67 263.321C730.849 263.474 731.068 263.551 731.326 263.551ZM735.688 265V258.455H737.712V259.648H737.78C737.9 259.216 738.094 258.895 738.364 258.685C738.634 258.472 738.948 258.365 739.306 258.365C739.402 258.365 739.502 258.372 739.604 258.386C739.706 258.398 739.801 258.416 739.89 258.442V260.253C739.79 260.219 739.659 260.192 739.498 260.172C739.338 260.152 739.196 260.142 739.071 260.142C738.824 260.142 738.601 260.197 738.402 260.308C738.206 260.416 738.051 260.568 737.938 260.764C737.827 260.957 737.772 261.185 737.772 261.446V265H735.688ZM742.822 261.267V265H740.739V258.455H742.72V259.656H742.793C742.938 259.256 743.185 258.942 743.534 258.714C743.884 258.484 744.3 258.369 744.783 258.369C745.243 258.369 745.642 258.473 745.98 258.68C746.321 258.885 746.585 259.172 746.773 259.541C746.963 259.908 747.057 260.337 747.054 260.828V265H744.97V261.237C744.973 260.874 744.881 260.589 744.693 260.385C744.509 260.18 744.251 260.078 743.922 260.078C743.703 260.078 743.51 260.126 743.342 260.223C743.178 260.317 743.05 260.452 742.959 260.628C742.871 260.804 742.825 261.017 742.822 261.267ZM751.404 265.124C750.719 265.124 750.128 264.989 749.631 264.719C749.137 264.446 748.756 264.058 748.489 263.555C748.225 263.05 748.093 262.449 748.093 261.753C748.093 261.077 748.226 260.486 748.493 259.98C748.76 259.472 749.137 259.077 749.623 258.795C750.108 258.511 750.681 258.369 751.34 258.369C751.806 258.369 752.232 258.442 752.618 258.587C753.005 258.732 753.338 258.946 753.62 259.23C753.901 259.514 754.12 259.865 754.276 260.283C754.432 260.697 754.51 261.173 754.51 261.71V262.23H748.821V261.02H752.571C752.569 260.798 752.516 260.601 752.414 260.428C752.311 260.254 752.171 260.119 751.992 260.023C751.816 259.923 751.613 259.874 751.382 259.874C751.15 259.874 750.941 259.926 750.756 260.031C750.571 260.134 750.425 260.274 750.317 260.453C750.209 260.629 750.152 260.83 750.147 261.054V262.286C750.147 262.553 750.199 262.787 750.304 262.989C750.409 263.187 750.559 263.342 750.752 263.453C750.945 263.564 751.175 263.619 751.442 263.619C751.627 263.619 751.794 263.594 751.945 263.543C752.096 263.491 752.225 263.416 752.333 263.317C752.441 263.217 752.522 263.095 752.576 262.95L754.489 263.006C754.409 263.435 754.235 263.808 753.965 264.126C753.698 264.442 753.347 264.687 752.912 264.864C752.478 265.037 751.975 265.124 751.404 265.124ZM755.575 265V258.455H757.599V259.648H757.667C757.786 259.216 757.981 258.895 758.251 258.685C758.521 258.472 758.835 258.365 759.192 258.365C759.289 258.365 759.388 258.372 759.491 258.386C759.593 258.398 759.688 258.416 759.776 258.442V260.253C759.677 260.219 759.546 260.192 759.384 260.172C759.225 260.152 759.083 260.142 758.958 260.142C758.711 260.142 758.488 260.197 758.289 260.308C758.093 260.416 757.938 260.568 757.825 260.764C757.714 260.957 757.658 261.185 757.658 261.446V265H755.575Z" fill="black"/>
<rect x="491.5" y="255.5" width="133" height="92" fill="url(#paint2_linear_54_90)" stroke="#1AAC20" stroke-width="3"/>
<path d="M512.388 300.124C512.339 299.945 512.268 299.787 512.175 299.651C512.081 299.511 511.966 299.393 511.83 299.297C511.693 299.2 511.537 299.128 511.361 299.08C511.185 299.028 510.991 299.003 510.781 299.003C510.358 299.003 509.991 299.105 509.682 299.31C509.375 299.514 509.138 299.812 508.97 300.205C508.803 300.594 508.719 301.067 508.719 301.624C508.719 302.183 508.8 302.661 508.962 303.055C509.124 303.45 509.358 303.751 509.665 303.959C509.972 304.166 510.344 304.27 510.781 304.27C511.168 304.27 511.494 304.207 511.761 304.082C512.031 303.955 512.236 303.774 512.375 303.541C512.514 303.308 512.584 303.034 512.584 302.719L512.976 302.766H510.854V301.227H514.616V302.382C514.616 303.163 514.45 303.832 514.118 304.389C513.788 304.946 513.334 305.374 512.754 305.672C512.178 305.97 511.514 306.119 510.764 306.119C509.932 306.119 509.2 305.939 508.57 305.578C507.939 305.217 507.447 304.703 507.095 304.036C506.743 303.365 506.567 302.57 506.567 301.649C506.567 300.933 506.673 300.298 506.886 299.744C507.099 299.187 507.396 298.716 507.777 298.33C508.161 297.943 508.604 297.651 509.107 297.452C509.612 297.253 510.156 297.153 510.739 297.153C511.244 297.153 511.714 297.226 512.149 297.371C512.587 297.516 512.973 297.72 513.308 297.984C513.646 298.249 513.92 298.562 514.131 298.926C514.341 299.29 514.472 299.689 514.523 300.124H512.388ZM518.915 306.124C518.228 306.124 517.637 305.983 517.142 305.702C516.651 305.418 516.272 305.023 516.005 304.517C515.74 304.009 515.608 303.419 515.608 302.749C515.608 302.075 515.74 301.486 516.005 300.98C516.272 300.472 516.651 300.077 517.142 299.795C517.637 299.511 518.228 299.369 518.915 299.369C519.603 299.369 520.192 299.511 520.684 299.795C521.178 300.077 521.557 300.472 521.821 300.98C522.088 301.486 522.222 302.075 522.222 302.749C522.222 303.419 522.088 304.009 521.821 304.517C521.557 305.023 521.178 305.418 520.684 305.702C520.192 305.983 519.603 306.124 518.915 306.124ZM518.928 304.551C519.178 304.551 519.39 304.474 519.563 304.321C519.736 304.168 519.868 303.955 519.959 303.682C520.053 303.409 520.1 303.094 520.1 302.736C520.1 302.372 520.053 302.054 519.959 301.781C519.868 301.509 519.736 301.295 519.563 301.142C519.39 300.989 519.178 300.912 518.928 300.912C518.669 300.912 518.451 300.989 518.272 301.142C518.096 301.295 517.961 301.509 517.867 301.781C517.776 302.054 517.73 302.372 517.73 302.736C517.73 303.094 517.776 303.409 517.867 303.682C517.961 303.955 518.096 304.168 518.272 304.321C518.451 304.474 518.669 304.551 518.928 304.551ZM526.345 306.124C525.657 306.124 525.066 305.983 524.572 305.702C524.081 305.418 523.701 305.023 523.434 304.517C523.17 304.009 523.038 303.419 523.038 302.749C523.038 302.075 523.17 301.486 523.434 300.98C523.701 300.472 524.081 300.077 524.572 299.795C525.066 299.511 525.657 299.369 526.345 299.369C527.032 299.369 527.622 299.511 528.113 299.795C528.608 300.077 528.987 300.472 529.251 300.98C529.518 301.486 529.652 302.075 529.652 302.749C529.652 303.419 529.518 304.009 529.251 304.517C528.987 305.023 528.608 305.418 528.113 305.702C527.622 305.983 527.032 306.124 526.345 306.124ZM526.358 304.551C526.608 304.551 526.819 304.474 526.993 304.321C527.166 304.168 527.298 303.955 527.389 303.682C527.483 303.409 527.529 303.094 527.529 302.736C527.529 302.372 527.483 302.054 527.389 301.781C527.298 301.509 527.166 301.295 526.993 301.142C526.819 300.989 526.608 300.912 526.358 300.912C526.099 300.912 525.88 300.989 525.701 301.142C525.525 301.295 525.39 301.509 525.297 301.781C525.206 302.054 525.16 302.372 525.16 302.736C525.16 303.094 525.206 303.409 525.297 303.682C525.39 303.955 525.525 304.168 525.701 304.321C525.88 304.474 526.099 304.551 526.358 304.551ZM533.11 306.094C532.627 306.094 532.188 305.969 531.793 305.719C531.398 305.469 531.083 305.094 530.847 304.594C530.611 304.094 530.493 303.473 530.493 302.732C530.493 301.962 530.615 301.328 530.86 300.831C531.104 300.334 531.424 299.966 531.819 299.727C532.216 299.489 532.644 299.369 533.101 299.369C533.445 299.369 533.739 299.429 533.983 299.548C534.228 299.665 534.429 299.815 534.588 300C534.748 300.185 534.868 300.376 534.951 300.575H534.993V297.273H537.077V306H535.015V304.939H534.951C534.863 305.141 534.738 305.33 534.576 305.506C534.414 305.682 534.211 305.824 533.966 305.932C533.725 306.04 533.439 306.094 533.11 306.094ZM533.834 304.47C534.087 304.47 534.303 304.399 534.482 304.257C534.661 304.112 534.799 303.909 534.895 303.648C534.992 303.386 535.04 303.08 535.04 302.727C535.04 302.369 534.992 302.061 534.895 301.803C534.801 301.544 534.664 301.345 534.482 301.206C534.303 301.067 534.087 300.997 533.834 300.997C533.576 300.997 533.357 301.068 533.178 301.21C532.999 301.352 532.863 301.553 532.769 301.811C532.678 302.07 532.632 302.375 532.632 302.727C532.632 303.08 532.679 303.386 532.773 303.648C532.867 303.909 533.002 304.112 533.178 304.257C533.357 304.399 533.576 304.47 533.834 304.47ZM540.973 306V299.455H542.997V300.648H543.065C543.185 300.216 543.379 299.895 543.649 299.685C543.919 299.472 544.233 299.365 544.591 299.365C544.688 299.365 544.787 299.372 544.889 299.386C544.991 299.398 545.087 299.416 545.175 299.442V301.253C545.075 301.219 544.945 301.192 544.783 301.172C544.624 301.152 544.482 301.142 544.357 301.142C544.109 301.142 543.886 301.197 543.688 301.308C543.491 301.416 543.337 301.568 543.223 301.764C543.112 301.957 543.057 302.185 543.057 302.446V306H540.973ZM546.024 306V299.455H548.108V306H546.024ZM547.068 298.692C546.775 298.692 546.524 298.595 546.314 298.402C546.103 298.206 545.998 297.97 545.998 297.695C545.998 297.422 546.103 297.189 546.314 296.996C546.524 296.8 546.775 296.702 547.068 296.702C547.363 296.702 547.615 296.8 547.822 296.996C548.032 297.189 548.137 297.422 548.137 297.695C548.137 297.97 548.032 298.206 547.822 298.402C547.615 298.595 547.363 298.692 547.068 298.692ZM552.485 308.591C551.863 308.591 551.33 308.504 550.887 308.331C550.444 308.158 550.096 307.92 549.843 307.619C549.59 307.318 549.438 306.977 549.387 306.597L551.36 306.486C551.397 306.619 551.465 306.736 551.565 306.835C551.667 306.935 551.799 307.011 551.961 307.065C552.126 307.119 552.319 307.146 552.54 307.146C552.89 307.146 553.178 307.061 553.406 306.891C553.636 306.723 553.751 306.429 553.751 306.009V304.858H553.678C553.596 305.06 553.471 305.24 553.303 305.399C553.136 305.558 552.927 305.683 552.677 305.774C552.43 305.865 552.146 305.911 551.825 305.911C551.347 305.911 550.91 305.8 550.512 305.578C550.117 305.354 549.8 305.007 549.562 304.538C549.326 304.067 549.208 303.46 549.208 302.719C549.208 301.955 549.33 301.325 549.575 300.831C549.819 300.334 550.138 299.966 550.533 299.727C550.931 299.489 551.359 299.369 551.816 299.369C552.16 299.369 552.454 299.429 552.698 299.548C552.945 299.665 553.148 299.815 553.308 300C553.467 300.185 553.587 300.376 553.67 300.575H553.729V299.455H555.805V306.026C555.805 306.58 555.665 307.047 555.387 307.428C555.109 307.808 554.719 308.097 554.219 308.293C553.719 308.491 553.141 308.591 552.485 308.591ZM552.549 304.393C552.802 304.393 553.018 304.327 553.197 304.193C553.376 304.06 553.513 303.868 553.61 303.618C553.707 303.368 553.755 303.068 553.755 302.719C553.755 302.364 553.707 302.058 553.61 301.803C553.516 301.544 553.379 301.345 553.197 301.206C553.018 301.067 552.802 300.997 552.549 300.997C552.29 300.997 552.072 301.068 551.893 301.21C551.714 301.352 551.577 301.553 551.484 301.811C551.393 302.067 551.347 302.369 551.347 302.719C551.347 303.068 551.394 303.368 551.488 303.618C551.582 303.868 551.717 304.06 551.893 304.193C552.072 304.327 552.29 304.393 552.549 304.393ZM559.217 302.267V306H557.133V297.273H559.149V300.656H559.221C559.369 300.253 559.61 299.937 559.946 299.71C560.284 299.483 560.697 299.369 561.186 299.369C561.646 299.369 562.047 299.472 562.387 299.676C562.728 299.878 562.993 300.163 563.18 300.533C563.37 300.902 563.464 301.334 563.461 301.828V306H561.377V302.237C561.38 301.874 561.289 301.589 561.105 301.385C560.92 301.18 560.66 301.078 560.325 301.078C560.106 301.078 559.913 301.126 559.745 301.223C559.581 301.317 559.451 301.452 559.358 301.628C559.267 301.804 559.22 302.017 559.217 302.267ZM568.457 299.455V300.989H564.327V299.455H568.457ZM565.192 297.886H567.276V303.942C567.276 304.07 567.296 304.173 567.336 304.253C567.379 304.33 567.44 304.385 567.519 304.419C567.599 304.45 567.694 304.466 567.805 304.466C567.884 304.466 567.968 304.459 568.056 304.445C568.147 304.428 568.215 304.413 568.261 304.402L568.576 305.906C568.477 305.935 568.336 305.97 568.154 306.013C567.975 306.055 567.761 306.082 567.511 306.094C567.022 306.116 566.603 306.06 566.254 305.923C565.907 305.784 565.641 305.568 565.457 305.276C565.275 304.983 565.187 304.615 565.192 304.172V297.886ZM575.153 306.124C574.463 306.124 573.871 305.982 573.376 305.697C572.885 305.413 572.507 305.018 572.243 304.513C571.979 304.004 571.847 303.416 571.847 302.749C571.847 302.078 571.979 301.49 572.243 300.984C572.51 300.476 572.889 300.08 573.381 299.795C573.875 299.511 574.464 299.369 575.149 299.369C575.754 299.369 576.281 299.479 576.73 299.697C577.182 299.916 577.534 300.226 577.787 300.626C578.043 301.024 578.178 301.491 578.192 302.028H576.244C576.205 301.693 576.091 301.43 575.903 301.24C575.719 301.05 575.477 300.955 575.179 300.955C574.938 300.955 574.726 301.023 574.544 301.159C574.362 301.293 574.22 301.491 574.118 301.756C574.018 302.017 573.969 302.341 573.969 302.727C573.969 303.114 574.018 303.44 574.118 303.707C574.22 303.972 574.362 304.172 574.544 304.308C574.726 304.442 574.938 304.509 575.179 304.509C575.372 304.509 575.543 304.467 575.69 304.385C575.841 304.303 575.964 304.182 576.061 304.023C576.158 303.861 576.219 303.665 576.244 303.435H578.192C578.172 303.974 578.037 304.446 577.787 304.849C577.54 305.253 577.192 305.567 576.743 305.791C576.297 306.013 575.767 306.124 575.153 306.124ZM582.314 306.124C581.626 306.124 581.035 305.983 580.541 305.702C580.049 305.418 579.67 305.023 579.403 304.517C579.139 304.009 579.007 303.419 579.007 302.749C579.007 302.075 579.139 301.486 579.403 300.98C579.67 300.472 580.049 300.077 580.541 299.795C581.035 299.511 581.626 299.369 582.314 299.369C583.001 299.369 583.591 299.511 584.082 299.795C584.576 300.077 584.956 300.472 585.22 300.98C585.487 301.486 585.62 302.075 585.62 302.749C585.62 303.419 585.487 304.009 585.22 304.517C584.956 305.023 584.576 305.418 584.082 305.702C583.591 305.983 583.001 306.124 582.314 306.124ZM582.326 304.551C582.576 304.551 582.788 304.474 582.961 304.321C583.135 304.168 583.267 303.955 583.358 303.682C583.451 303.409 583.498 303.094 583.498 302.736C583.498 302.372 583.451 302.054 583.358 301.781C583.267 301.509 583.135 301.295 582.961 301.142C582.788 300.989 582.576 300.912 582.326 300.912C582.068 300.912 581.849 300.989 581.67 301.142C581.494 301.295 581.359 301.509 581.265 301.781C581.174 302.054 581.129 302.372 581.129 302.736C581.129 303.094 581.174 303.409 581.265 303.682C581.359 303.955 581.494 304.168 581.67 304.321C581.849 304.474 582.068 304.551 582.326 304.551ZM586.688 306V299.455H588.712V300.648H588.78C588.9 300.216 589.094 299.895 589.364 299.685C589.634 299.472 589.948 299.365 590.306 299.365C590.402 299.365 590.502 299.372 590.604 299.386C590.706 299.398 590.801 299.416 590.89 299.442V301.253C590.79 301.219 590.659 301.192 590.498 301.172C590.338 301.152 590.196 301.142 590.071 301.142C589.824 301.142 589.601 301.197 589.402 301.308C589.206 301.416 589.051 301.568 588.938 301.764C588.827 301.957 588.772 302.185 588.772 302.446V306H586.688ZM593.822 302.267V306H591.739V299.455H593.72V300.656H593.793C593.938 300.256 594.185 299.942 594.534 299.714C594.884 299.484 595.3 299.369 595.783 299.369C596.243 299.369 596.642 299.473 596.98 299.68C597.321 299.885 597.585 300.172 597.773 300.541C597.963 300.908 598.057 301.337 598.054 301.828V306H595.97V302.237C595.973 301.874 595.881 301.589 595.693 301.385C595.509 301.18 595.251 301.078 594.922 301.078C594.703 301.078 594.51 301.126 594.342 301.223C594.178 301.317 594.05 301.452 593.959 301.628C593.871 301.804 593.825 302.017 593.822 302.267ZM602.404 306.124C601.719 306.124 601.128 305.989 600.631 305.719C600.137 305.446 599.756 305.058 599.489 304.555C599.225 304.05 599.093 303.449 599.093 302.753C599.093 302.077 599.226 301.486 599.493 300.98C599.76 300.472 600.137 300.077 600.623 299.795C601.108 299.511 601.681 299.369 602.34 299.369C602.806 299.369 603.232 299.442 603.618 299.587C604.005 299.732 604.338 299.946 604.62 300.23C604.901 300.514 605.12 300.865 605.276 301.283C605.432 301.697 605.51 302.173 605.51 302.71V303.23H599.821V302.02H603.571C603.569 301.798 603.516 301.601 603.414 301.428C603.311 301.254 603.171 301.119 602.992 301.023C602.816 300.923 602.613 300.874 602.382 300.874C602.15 300.874 601.941 300.926 601.756 301.031C601.571 301.134 601.425 301.274 601.317 301.453C601.209 301.629 601.152 301.83 601.147 302.054V303.286C601.147 303.553 601.199 303.787 601.304 303.989C601.409 304.187 601.559 304.342 601.752 304.453C601.945 304.564 602.175 304.619 602.442 304.619C602.627 304.619 602.794 304.594 602.945 304.543C603.096 304.491 603.225 304.416 603.333 304.317C603.441 304.217 603.522 304.095 603.576 303.95L605.489 304.006C605.409 304.435 605.235 304.808 604.965 305.126C604.698 305.442 604.347 305.687 603.912 305.864C603.478 306.037 602.975 306.124 602.404 306.124ZM606.575 306V299.455H608.599V300.648H608.667C608.786 300.216 608.981 299.895 609.251 299.685C609.521 299.472 609.835 299.365 610.192 299.365C610.289 299.365 610.388 299.372 610.491 299.386C610.593 299.398 610.688 299.416 610.776 299.442V301.253C610.677 301.219 610.546 301.192 610.384 301.172C610.225 301.152 610.083 301.142 609.958 301.142C609.711 301.142 609.488 301.197 609.289 301.308C609.093 301.416 608.938 301.568 608.825 301.764C608.714 301.957 608.658 302.185 608.658 302.446V306H606.575Z" fill="black"/>
<defs>
<linearGradient id="paint0_linear_54_90" x1="643.5" y1="213" x2="731.5" y2="271.5" gradientUnits="userSpaceOnUse">
<stop stop-color="#1AAC20"/>
<stop offset="1" stop-color="#737373" stop-opacity="0"/>
</linearGradient>
<linearGradient id="paint1_linear_54_90" x1="136" y1="254" x2="41.5" y2="315" gradientUnits="userSpaceOnUse">
<stop stop-color="#1AAC20"/>
<stop offset="1" stop-color="#737373" stop-opacity="0"/>
</linearGradient>
<linearGradient id="paint2_linear_54_90" x1="494.5" y1="254" x2="582.5" y2="312.5" gradientUnits="userSpaceOnUse">
<stop stop-color="#1AAC20"/>
<stop offset="1" stop-color="#737373" stop-opacity="0"/>
</linearGradient>
</defs>
</svg>
